<?xml version="1.0" encoding="utf-8"?>
<svg xmlns="http://www.w3.org/2000/svg" viewBox="0 0 1920 822"><path d="M375.2 189.7c1.1 1.3-.4 1.3-1.1 3.4-.8 0-.8 0-.8.8-3.4.1-5.5 1.6-6.5 4.6-.4-.4-.8-.4-1.1 0-4.1-2.1 10.6-9.5 9.5-8.8zm47.6 243.4c-2.4-.4-4 1-4.6 4.2 1.5-1 2.9-2.1 4.2-3.4 0-.5.4-.5.4-.8zM614 610.2c-2.8 2.8-5.8 5.2-9.1 7.2-.4 0-.4.8-.4 1.1 4.2-.8 8-3.9 9.5-8.3zM274.2 342c-3.8 1.1-6.1 2.7-7.6 5-3.2 1.6-4.7 3.7-4.6 6.5 0-1 10.7-9.6 12.2-11.5zm-30.1-4.9c-8.6 8.6 3.2 2.1 0 0 .9-2.3 2.5-4 4.7-5.1.1.4.2.7.6 1 4.2-4.2 14.1-8 14.1-14.9h-1.3c4.4-3.7 8.2-7.1 8.2-9.5h-.4c1.4-1.4 7-10.2 10.3-8-2.3 1-3.7 2.8-4.2 5.3 1.7-1.6 3.5-3.1 5.4-4.5.3.4.4.4.3-.1.4.4.4 1.1.4 1.9-3.3 9.8-40.7 49.5-48.4 49.5-8.1-2 3.7-18.9 10.3-15.6zm4.2-1.9c-.5-.5-.8-.5-1.1 0-1.8-.9 1.1 2.5 1.1 0zm-8.7 10.6c.5.1.5 0 0-.4v.4zm-3.1 2.7c1 0 1.5-.5 1.5-1.5-1 0-1.5.5-1.5 1.5zm-2.3-1.9h.4s0-.4.4-.4c-.4-.4-.8-.4-.8.4zm189 86.1c1.9 0 2.7-1.1 1.9-3.4-1.2.7-1.6 2.2-1.9 3.4zm64.3-160.8c-2.2 2.3-5.3 1.7-3.8 5 1.8 0 4.1-5 3.8-5zm-30.1 107.8c5.7-4.6 6.5-5.3 9.9-9.5-4.2 3.4-5.7 5-9.9 9.5zm-12.5 17.6c0 1 9.7-8.9 11-10.3 0 0-11 6.4-11 10.3zm-20.2 151.9c2.5 1.3 12.3-8.7 18.9-16 .8-2.1 1.6-4.2 2.5-6.3-.4.2-.7.5-1.1.9-4.8 4.7-20.3 14.6-20.3 21.4zm6.1-245.3c1.7 1.7 4.7-1.6 5.7-2.7 1.1-1-3.8-.4-5.7 2.7zm430 38.5c-1.1.8-2.3 1.5-3 3 1.1.7 5.2-.7 3-3zm-427.7 67.8c-1.8 1.1-4.6 3.5-5.7 5.7-1 1 8.5-2.9 5.7-5.7zM406 302h5.3c.5-1.5.9-3 1.1-4.6.1-3.8-6.4 4.6-6.4 4.6zm1061.1 140.2c1.3-1.8 2.6-3.5 4.1-5.1-.1.1-.2.1-.3.2-1.5 1.4-2.8 3-3.8 4.9zM411.3 302c3.1-.1 4.5-1.3 4.2-3.4-1.9-.2-3.3 1-4.2 3.4zm19.9-16.3c0 .3 10.6-8.4 8.8-8.4-2.2 1-8.8 5.2-8.8 8.4zm15.6-17.2c-2.4-.8-5.7 2.9-5.7 5 2.5 1.2 4.8-2.5 5.7-5zm-19.5 19.1c-1.1-.6-6.2 3.3-5 4.6 4-.9 4-3.6 5-4.6zm-42.2-106.3c-2.7-.2-4.6 1.5-5.7 5-.4.4-.4.8-.8 1.1l.4.4c3.3-1.4 5.3-3.5 6.1-6.5zm3.8 9.9c-2.4 1.8-8.8 4.1-7.2 8.8-11.8 8.8 13.9-8.8 7.2-8.8zm-69.7 182.4s0-.4.4-.8c-1.5.8-2.7 1.9-3.8 3.4 1.5-.7 2.2-1.8 3.4-2.6zm545-28.5c-1.1.4-2.3 1.1-3 2.3v.4h1.1c1.1-.8 1.9-1.6 1.9-2.7zm-464.3-163c1.6 1.8 3.4.7 5.3-3.4 0-.6-.3-1.2-.8-1.5-.8-.1-5.5 4.9-4.5 4.9zM1495.7 430c-2 1.7-3.5 3.7-4.6 6.1 2.2-1.1 15.2-12 15.2-16.4-3.4 3.6-6.9 7-10.6 10.3zM575.1 158.4c0 4.7 9.9-11.3 5-3.8-2.2.7-3.9 2-5 3.8zM494 265.9c1.9.4 2.7-.8 3-2.3-1.5.3-2.2 1.1-3 2.3zm1.9 6.4c2 0 3.4-2.1 3.4-3.8-1.1 1.1-3.4 2-3.4 3.8zM258.6 416.7c.1-.1 5.4-4.5 3.4-6.5-3.2-.1-5.5 2.1-6.9 6.5 2.4.4 3.1.4 3.5 0zM529 215.6c4.2.1 7.4-2.1 9.5-6.5.6-.6-3.6-1.4-9.5 6.5zm44.2-42.3c4.2-3.4 16.4-14 16.4-20.6-7.6 3.8-14.4 14.9-16.4 20.6zm-4.6-30.5v.8c3.5 0 7.6-6.9 7.6-9.1-2.3-.1-6.8 7.4-7.6 8.3zm-46.4 401.5c-2.6 0-4 1.4-4.2 4.2 1.5-1.6 3-2.7 4.2-4.2zm-43.4-297.5c-1.1 1.8-6 4.8-6.1 7.6.9-1.2 27.5-28.5 26.7-28.5-3.2 0-14.8 13.3-16.8 14.5 2.6-2.9 16.8-15.6 16.8-20.6-2.3 0-5.3 1.8-8.5 4.6.2-.6.2-1.2-.2-1.6-2.8-.1-4.9 1.6-6.5 5 0 1.4.9 1.6 2.1 1.1-8.5 9.1-17.5 22.3-20 26.3 5.5 0 7.5-6.4 12.5-8.4zm-12.6 2.6c1.5-1.2 7.6-6.1 6.1-6.1-2 .1-5.7 5.6-6.1 6.1zm9.1-134c-2.5 0-5.3 2.9-5.3 5.3 1.1 0 6.9-3.7 5.3-5.3zm-15.2 149.3c-1.3-.2-2.3.3-3 1.5-4 8 2.2-.7 3-1.5zm-12.6 33.5c7.5-3.7 13.7-10.6 18.3-18.3.1 0-21.2 15.4-18.3 18.3zm50.7-84.5c-2.6.8-3.9 2.2-3.8 4.2 2.1.2 3.3-1.2 3.8-4.2zm-17.5-105.9c-2.4 3-4.9 4.1-3.4 6.5 4.9-1.3 11.3-14.5 3.4-6.5zM530.9 230c.8-.6 8.4-5.7 3.8-5.7-2.6 1.4-3.9 3.3-3.8 5.7zm-68.5 152.4c3.6-2.9 8.3-6.6 12.7-10.6l1.5-2.7c-.2-.4-.4-.7-.5-1.1-7.1 7.1-14.6 15.3-13.7 14.4zm12.2-18.9c-.1-.4-.1-.7-.2-1.1-1.8 1.4-3.8 4.1-4.4 5.1 1.8-.9 3.1-2.4 4.6-4zm0 224.6c-5.2 5.2-5.7 10.7-10.3 15.2 6.7-4.5 10.9-7.4 10.3-15.2zm.7-302.1c0-1.4-4.2 2.9-4.2 4.6 2.1-.6 4.2-2.3 4.2-4.6zm20.6 286.8c-.8-.8-3.3-1.6-1.9-3-2.6 1.6-16.2 16.5-14.9 17.9 3.3 3.3 15.1-12.9 16.8-14.9zm-8.3-145.9c-.4.1-.7.2-1.1.4-.6.2-1.2.4-1.8.5-.8.8-1.6 1.7-2.2 2.7v.4c2.4 0 4-1.3 5.1-4zm135.5-284.5c-1.1 1.1-1.9 2.3-3.4 2.7-1.1 0-2.9 2.4-1.9 3.4 2.9 0 5.3-4.1 5.3-6.1zM988 217.1c-2.5 2.5-5.5 4.4-8 6.9-1.7 3.4-5.3 6.8-8 9.5 8.5-4.4 10.9-6.6 7.2-6.5 6-2.1 9-5.4 8.8-9.9zm-386.6-52.6v.4c4.2.3 7.1-2.4 8.8-8-3.8 1.1-6.7 3.6-8.8 7.6zM538.8 526c-2.6 2.8-4.7 5.1-5.9 6.4.2-.3-5 5-5 6.5.5-.1 7.8-4.7 15.3-10.4-1.6-.7-3.1-1.5-4.4-2.5zm239.5-127.4c-1.1 1.6-2.2 3.3-3.3 4.9 3.7-3.5 12.8-10.8 12.3-10.4 6.1-6.2-3.3-.1-9 5.5zM351.2 225.1c8.1-6.5 16-17.1 25.1-21.7-.9 1.1-9.5 7.1-10.7 11.8 4.4-2.5 8.1-5.9 11-10.3 0 4.8-11.8 15.9-17.9 19.2.1 0 .2.1.4.2.1 6.8-12.4 5.3-7.9.8zm4.9 0c.4.4.8.1 1.3-.3-.5.2-.9.3-1.3.3zm538.6 84.2c-.4.4-.4.8-.4 1.5l3.4-3.4c-1.5 0-2.6.7-3 1.9zm183.9-141c-.9.9-10 10.2-8.8 11.4 2.9-2.9 7.9-6.7 9.9-10.7-.3-.3-1.1-.3-1.1-.7zM350.8 267c2.5-1 4-2.7 4.6-5-2.5-.2-4 1.5-4.6 5zm-88.5 51c-5.6.3-9.7 4.4-12.3 12.2 1.7-3.5 7.3-8 12.3-12.2zm1247.9 96.8c-1.9 1.5-3 3-3.4 5.3 3.2-1.1 4.8-2.8 4.6-5.3-.5 0-.8-.4-1.2 0zm-813.6 99c.4-.4 0-.8 0-1.1-1.8 0-5 4.3-5 6.1 1.6-1.6 3.5-3.1 5-5zm811.3-100.2c-1.1 1.1-2.3 2.7-3.8 4.6 1.5-1.1 2.3-1.9 3-2.3.8-.4.8-1.1.8-2.3zm-614.7-85.7l3.4-3.4c-2 .8-3.4 2-4.2 3.8.4 0 .8 0 .8-.4zm168.7-132.1c-4.5-.2-7.5 2.9-9.1 9.1 2.6-2.4 5.2-4.7 8-6.9.9-.5 1.2-1.3 1.1-2.2zm-8-5.7c-1.4 1.5-13.9 13.2-11.4 15.6 4.3 0 10-11.5 11.4-14.5v-1.1zm-17.2 39.2c2.2 0 4.6-3.2 4.6 1.5 4.1-1.6 6.7-10.8 7.2-14.1-4.3 4.3-10.3 8.9-13.7 13.7 1.2 0 1.6-.7 1.9-1.1zM836.4 388.5c-3.3 1.1-7.8 2.9-9.9 6.1-8.3 11 9.9.8 9.9-6.1zM712.2 501.2c-1.6 0-4.2 3.2-4.2 4.6 1.5-1.5 2.9-3 4.2-4.6zm304.4-284.9c-3.3.3-3.7 2-5.3 5.3l5.3-5.3zM321.5 500.9c5.1-5.1 11.7-10.7 16.8-16.8-2.8 1.9-17.1 12.4-17.1 16.4l.3.4zm482.2-85c-.8.8-1.5 1.1-1.9 2.3 7.2 0 2.2-2.6 1.9-2.3zm-451-99c3.2-2.5 5.3-5.7 6.1-9.5-16.2 8.1-53.4 45.2-61.7 61.7 19.9-10 39.4-36 55.6-52.2zm-81.6 121.9c-.3.5-3 3.4-3.9 5.4 2-4.1 15.3-7.8 15.3-14.2-1.8.3-4.6 3.2-5.7 4.6 0-1.2 1.1-1.8 1.1-3 .1-2.3-6.6 7-6.8 7.2zm622.1-114.7c0-3.1-2-.6-3.4.8.8 1.1 1.9.8 3.4-.8zm-13.4 1.9c-3.5 0-7 4.8-10.1 8.4 3.7-2.7 8.7-6.5 10.1-8.4zm-13.3 11.5c1-.7 2.1-1.8 3.2-3-3.4 2.5-5.7 4.2-3.2 3zm-551.9-41.6c-1.5-.2-2.5.7-3 2.7 2.2-.2 3.2-1.1 3-2.7zm-32.4 126.5c-2 .4-3.3 1.6-3.8 3.8 1.7 2.5 3.8-.7 3.8-3.8zM528.8 211c-.9.7-1.9 1.1-2.8 1.1-.4 0-.4 0 .4-1.1-2.2-.6-34.7 28.7-34.7 34.3 1.9 0 3.4-.6 3.4 2.3 3.2-1.8 32.4-28.5 32.4-27.8-7.8 0-4.2-4.6 1.3-8.8zm-15.4-14.5c-1.5 2.3-3.2 4.4-5 6.5 2.1 2.1 19.4-16.4 18.3-17.5-3.8-3.9-25.6 24.7-13.3 11zM497.8 65.9c-1.7 2.2-9.5 9.8-9.5 12.9 5.6 0 19.8-17.6 22.1-20.9-3.6 0-11.7 6.7-12.6 8zm19.8-29c3.8.1 6.5-2.6 8-8-3 1.9-5.3 4.6-8 7.2-.4.5-.4.8 0 .8zm15.6-15.6c.5-.5-2.1-2.3-4.2 2.3 2.5 0 2.6.9 4.2-2.3zm563 142.5h-.4c-.3-.7-.1-1.2.4-1.5-4.1-.3-7.1 2.2-9.1 7.2 1.6 1.3 1 2.1-.1 3.9 1.7-1.7 3.7-3.2 5.5-5 1.3-1.4 2.6-2.9 3.7-4.6zm-611-82.7c-8.2 6.5-16.6 14.3-23.6 22.5 2.7-1.9 23.6-17.6 23.6-22.5zm-22.4 168.4c-2.1 1.1-10.3 9.2-11.6 12.8 1.6-3.6 13.3-4.3 11.6-12.8zm35.4-194.3c-3.2-.2-5.5 1.9-6.9 6.1 2.4 0 5.7-4.1 6.9-6.1zm4.6-1.9L484.1 72c-1.1 1.1-1.9 2.3-2.7 3.8 6.7 0 18.5-16.7 21.4-22.5zm-22.5 23.6c-1.5-4.5-2 .3-2.2 1.9 1.1.2 1.8-.4 2.2-1.9zm54.8 127.6c2.6-3.1 5.5-6 8.5-8.6-1.5 1.8-3.9 5.2-2.4 5.2 2.8 0 10-6 15.7-12.2-.7 1.1-1.2 2.2-1.2 3 1.1 0 8-5.7 8-6.9 0 0 6.5-5.4 6.5-7.6-1.2 0-5.9 3.4-9.6 7.1 2.3-2.9 3.8-5.6 3.9-7.3-3.6 3.9-18.3 18.9-18.3 13.9-6.1 2-11.9 15.4-17.2 19.7 3.9-2.9 8.7-5.6 11.1-6.3-.9-2.4-2.4-1.2-5 0zm88.6-95.3c-12.9 10.3-24.2 23.7-36 35.5 14.1-7.1 28.9-23.3 37.1-35.9-.4.2-.7.3-1.1.4zm-40.6 16.1c2.2.5 9.9-2.7 9.9-8-4.1 1.6-7.4 4.2-9.9 8zm510 51c2.4-2.6 4.9-5 7.6-7.2-2.7 0-7.5 6.2-8.4 8l.8-.8zM685.2 532.1c3-1 4.4-2.6 4.2-5-1.4 1-8.8 6.8-8.8 8.8 2-.5 3.6-1.8 4.6-3.8zm553-372.1c-2.3 0-3.4 1.5-4.6 3.4 2.1.2 3.6-1 4.6-3.4zm.4-.4c1.5 1.5 1.9 1.5 2.7.8 2-3 3.7-9.3-2.7-.8zm-3-83.4c-2 1 4.6 6.5 4.6 8 4.5 4.6 1.6-8-4.6-8zm17.5 35c0-1.7-5.2-5.3-6.9-5.3 2.1 4.1 7.4 5.8 6.9 5.3zm-76.6-8.4c-2.4 1.2-3.5 2.9-3.4 5 8.3-5 17.2-13.8 24.4-20.9-8.4 4.2-8 3.5-16 8.8-.2 2.8-2.7 5.7-5.7 7.2.3-.1.7-.1.7-.1zm-16.7 9.9c-.2.1 17.5-10.2 17.5-14.9-6.1 4.1-14.6 9.8-18.7 16 .4-.3 1.2-.7 1.2-1.1zm80 54.1c5.5-1.1 9.6-4.8 12.2-11-4.2 3.4-8.4 7.2-12.2 11zm-20.2-3c0 .3 3.4-1.6-1.1-6.1.6.7-7.3-.2 1.1 6.1zM1197.5 91c2.8-.5 4.5-1.9 5-4.2-3.3.4-4.8 2.9-7.6 5.7 1.3.5 2.1 0 2.6-1.5zm70.1 108.2h-.8c-2.5 2.1-10.7 7.4-10.7 11.8 7.7-2.3 11.5-6.3 11.5-11.8zm-16.4-18.3c2.5-.2 3.9-1.8 4.2-4.6-3-.1-4.4 1.4-4.2 4.6zm.4-29.3c-.4 0-.8-.4-1.1-.4 0 0-.8.4-1.1.8-3 2.9 1.4.4 2.2-.4zm-157.7 19c.1 0-2.6-.1-4.6 1.9.2-.2.6 6.1 4.6-1.9zm-17.6 10.9c-.1.1-.2.1-.3.2.8-.8.8-1.5 1.1-1.9-4.3 4.3-9.5 8.5-12.6 13.3 0 0 3.7-3.9 7.2-7.3v-.3c1.2-1 1.2-.9.9-.5 1.4-1.4 2.7-2.6 3.7-3.5zm-12.9 18.8c3.4-3.4-13.2 9-3.8 2.7l.4.4c1.1-1.2 2.3-2.3 3.4-3.1zm18.3-55.2c0-4-3 .2-3 1.9 1.2-.3 2.2-.9 3-1.9zm-61.3 81.9c-5.8 5.8-22.9 14.3-22.9 23.6 11-5.5 21.7-20.7 29.7-29.7-2.3 1.9-4.5 4.2-6.8 6.1zm76.1-59c0 2.1 8.1-5 8.4-5.3h-.8c0-8.7 39.5-36.6 45.3-41.5 1.2-.7 1.7-1.5 1.5-2.7-4.9 0-54.4 42.2-54.4 49.5zm14.1-11.5l-3.4 3.4c4-2 7.7-6.5 11-9.4-2.9 1.5-5.4 3.5-7.6 6zm-7.6 21.8c0 1.1 3.6-3.6 3.4-3.4l-3.4 3.4zm328.6 23.3c-4.8 2.4-14.1 13.2-15.5 14.7 6.6 0 11.1-12.1 15.5-14.7zm6.2.6c-1.5.4-2.7 1.5-3 3 1.1-.7 1.9-1.8 3-3zm78.9 139.1c1.7.2 2.6-.9 2.7-3.4.3 0 .3-.3 0 0v-.3c-1.7 1.5-2.8 1.5-2.7 3.7zm0-19.5c-4.6 3.4-4.6 3.4-6.1 6.5 2.4-1.8 4.4-3.9 6.1-6.5zm-34.3-36.9c-2.7.8-4.8 2.5-6.5 5-6.2 6.2 3.2 1.5 6.5-5zM436.9 326c3.6-2.8 6.3-6.4 8-10.7-1.9 1.2-11.4 10.7-8 10.7zM1378 200.3c-3.4 2.3-6.5 4.6-8.8 8.4 3.5-3 6.5-4.9 8.8-8.4zm-174.6 109.6c1.1-1.4 2-2.4 2.6-3.2l-2.4 3c-.1 0-.1.1-.2.2zm228.3-58.5c-1.4-1.4-6.9 7.6-6.9 8.4 2.8 0 10.7-4.6 6.9-8.4zM1278.2 224c.3-.6.8-.9 1.2-1.1 4.1-4.1 7.5-7.4 9-9.2-6.6 4.6-12.9 10.4-18.2 16.6 3-1.8 5.7-3.7 8-6.3zm9.5-16c0-.1 6 .4 1.5-5.7-1.5 1.1-3 1.5-4.2 3 2.1 3 2.7-1.3 2.7 2.7zm-16.5 18c-1.8 1.4-3.5 2.7-4.3 4.2 1.4-1.4 2.8-2.8 4.3-4.2zm6.6-6.6c-2.2 2.2-4.4 4.4-6.7 6.6 2.8-2.1 5.9-4.2 6.7-6.6zm2.3 3.4c-.2 0-.5 0-.7.1-7 7-15.9 16.2-20.7 23.5 10.7-8.7 21.4-16.8 21.4-23.6zm-13.2 7.4c-.3.6-.5 1.1-.5 1.7 1.5.2 2.8-.4 3.9-1.7-6.6 7.8-13.3 15.5-19.8 23.2-4.1 3.8-7.6 7.6-9.8 11.5-11.7 13.7-23.3 27.5-34.6 41.6 1.6-2.2 1.1-2.7-2-2.7 15.7-27.5 39.7-50.8 62.8-73.6zm-53.8 59.6h.4c.1-.5-.1-.5-.4 0zm13.3-13.7c-1.7.6-5.7 7.2-6.1 8.8 2.7-2.3 5.4-4.6 6.1-8.8zm304.3 50.7c-2.9 2.2-8.4 6-7.6 10.7 0 4.1 10-9.1 7.6-10.7zm-3.4 23.2c-1.1.8-2.3 1.5-2.7 3 11 .1 1.9-2.6 2.7-3zm6.1-8c-1.4 1.6-2.4 3.5-3 5.6.6-1 5.2-7.7 3-5.6zm-292.8-77c-1.5 2.7-2.4 5.4-2.4 8.1 1.8 0 6.5-4.4 10.6-9 0 .6-.1 1.2-.3 1.7 2.4-1.2 3.6-3.7 2.3-3.9 3.4-4 5.8-7.5 4.6-7.5 0-2.1 1.3-4.9 3.4-8-2.8 2.3-5.7 4.7-8.3 7.1-3.3 3.8-6.6 7.7-9.9 11.5zm142-73.4c1.1-1.1 2.7-2.7 4.2-3.8-1.9.7-3.1 2.3-4.2 3.8zm24.4 34.6c-1.8 0-7 6.1-7.2 7.2 3.3.1 7.2-3.7 7.2-7.2zm-119.6-88.7c2.1 2.4 4.7 4.1 7.6 5.3-5.8-6.7-12.6-6.9-7.6-5.3zM1239 275.8c.4-.8-.4-1.5-.8-2.3-1.8 1.1-2.8 2.6-3 4.6-3.7 5-24.4 26.4-24.4 29.7.7.7 28.1-23.1 24.6-29.4 1.7-.2 2.9-1.1 3.6-2.6zm35-26.3c5.7-4.2 9.5-8.4 12.6-13.7 4.5-6.8 6.4-1.9 11-1.9 3.7-1.9-1.9-5.6-2.7-7.2-6.3 5.3-16.8 14.7-20.9 22.8zm242.7 41.9c-.8-.4-1.1-1.1-2.3 0-2.2 1.4-3.4 3.4-3.8 5.7 2.6-1.9 4.5-3.8 6.1-5.7zm-1089 121.9v-.8c-4.8 0-20.1 15-30.1 27.5v-.9c-1.1.2-2 .7-2.7 1.5.4.8.8.8 1.1.8h.4c-4.2 5.4-7.3 10.2-8 13 8-5.7 15.7-20.8 23.6-24.8v1.9c3.1-1.2 12.9-15.4 15.7-18.2zm-64.3 38c-1.9 1.3-3.4 2.9-4.6 5 1.2-1.1 2.5-2.1 3.8-3 .4-.4 1.1-.8.8-2zm7.6-64.7c6.5-6.5 13.6-11.6 18.3-19.4-3.6 2.4-13.7 9.8-20.5 16.7-2.1 1.2-7.3 6-7.3 6.9.7 0 1.4-.3 2.2-.8-.9 1.4-1.4 2.7-1.4 3.8 3.9.3 6.8-2.1 8.7-7.2zm-17.5-47.2c2.9.3 5-1.5 6.1-5.3.4-.4.4-1.1.4-1.5-4.6 1.2-6.7 3.5-6.5 6.8zm54.8 414.4c-1 1-1.8 2.5-2.7 3.4 1.4 0 5.2-1.6 3.4-3.4.4-.4.1-.4-.7 0zm-48.4-357.7c-2.6 2-11.8 11.6-15.5 15.3 4.4-3.9 8.7-7.8 12.9-11.9 1.1-.7 1.5-1.9 2.6-3.4zm1111.3 41c3.7-2.6 7-6 9.6-9.7 4.9-7.3 13.6-13.6 19.3-20.8-4.9-3.9-23.9 25-28.9 30.5zM467 585.8c1.6-1.6 4.2-4 4.2-6.5 0-4.7-18.9 13.1-15.6 16.4 3.1-4.3 6.9-7.8 11.4-10.3v.4zm513.8-338.6c-2.7 6.4-14.1 17.6-17.5 22.5 9.6-8.7 18.4-18.9 27-28.6-.4-.4-1.1-.8-1.5-1.1 1.4-2.4 2.9-4.7 4.6-6.9-6 3.4-10.2 8.1-12.6 14.1zM493.2 662.7c4 2 14.7-10.3 9.5-10.3-5.1 3.5-5.8 6.7-9.5 10.3zm-63.8-95c0-.1-.1-.1-.1-.2 0 .1-.1.3-.1.4-5.4 5.5-12.2 12.9-12.5 12.9 0 1.9-8.2 11.6-9.5 10.3-.1-2 .4-3.8 1.6-5.4-1.1 1.3-2.3 2.3-3.8 2.3-1.3-1.3 13.3-15.9 13.3-17.5-1 .8-3.5 3-5 3 3.7-4.7 19.2-27 25.9-22.9 8.6 5.4-3 11.7-3 11.4-.1-.9-3.1 2-6.8 5.7zm-14.6 13.5c-2.1 0-3.6 1.6-5 3.2 1.2-1.2 2.9-2.3 5-3.2zm8.4-14.5c-.4-.4-.4 0-.8 0v.4c.4 0 .8 0 .8-.4zm1078.3-160.4c.9-.2 1.7-.5 2.5-1 2.3-2.4 10.2-10 10.8-8.3.8-3.6 2.9-12.2 3.7-13.7-7.6 11.3-11.1 11.7-17 23zM387.4 366.8v-.8c-1.1.7-7.2 5-7.2 6.9 3-.9 5.4-2.9 7.2-6.1zm-7.7-41.9c1.5.1 2.5-.9 3-3-1.4.7-2.2 1.5-3 3zm19.8-6.1c6.4 0 10.4-14.5 14.5-14.5-5.1 0-12 11.7-14.5 14.5zm-21.7 22.5c-2.7.2-4.7 1.9-6.1 4.6-4.1 4.1 7.9-2.8 6.1-4.6zm19.1-31.3c.1 0 6.3-.3 8.8-7.6-5.7-1.9-6.7 6.2-8.8 7.6zm8.4-.7c0-1.9-5.9 6.3-4.2 4.6 1.3-1 4.2-2.6 4.2-4.6zm-33.9-11.1c2.7 0 30.5-29.3 29.7-30.1-9.5 7.8-23.3 19-30.1 29.7.4 0 .4.4.4.4zm-8.8 6.1c0 5.2 4.7-2.6 5-3.8-2.4.1-4 1.4-5 3.8zm39.2 51.4c2.9-2.2 10.7-8.9 10.7-12.9-7.5 0-15.1 17.4-10.7 12.9zm-4.2-34.6c-.7.4-13.3 9.9-13.3 12.6 6.3-.4 10.9-4.2 13.7-11.4.2-.6.1-1-.4-1.2zm22.1 14.5c2.1 0 9.7-8 6.1-8-2.6 1.7-6.1 5.8-6.1 8zm8.4-21c-5.5 3.1-10.4 7.9-15.6 11.8-4.2 3.2-13.3 14-15.6 18.7 4.7-3.2 36.2-25.5 31.2-30.5zm65.1 348.5c-.4 0-1.1 0-1.5.4-2 1.5-3.8 3.3-5.3 5.3 2.9-.8 5.2-2.7 6.8-5.7zm369.5-311.9c1.1.1 2.1-.3 3-1.1-2.7 3.4-5.7 6.1-8.4 8.8 0-1.1.4-1.9.4-3-6.5 6.5-12.6 11.8-17.5 19.8 6.3-1.8 27.4-11.2 27.4-20.2 0 .4-9.1 8-10.7 8.8 4.3-7.1 20.9-14.5 20.9-22.5-6.5-.2-11.8 3.2-15.1 9.4zm14.8-4.2s-2.3.9-2.3 1.1c-3 3.1 1.8-.5 2.3-1.1zm-87.6 81.9c-5.4 0-9.2 7.2-13.3 9.9-.1-2.4 3.4-3.5 3.4-6.1-3.4 0-10.5 12.8-13.3 11.4 0 4.2 7.1-3.8 6.9-3.4 0 8.2-45.5 40.5-44.2 41.9l.4.4c-.5-.1-.8.1-.9.8h.1c-.2.1-.3.2-.4.4 4.7 4.6 58.2-49 61.3-55.3zm24.4-22.1c-2.6 0-5.2 3.3-6.9 5-1.2 1.2 6.9-1.1 6.9-5zm79.2-94.1c.4-.6.6-1.2.4-1.9-2.1 2.1-8 5.5-8 9.5 2.7-2.7 4.8-4.7 7.6-7.6zM798.3 419c1.6.2 2.6-.8 3-3-1.5 0-1.9 1.1-2.7 1.9-.3.3.1.7-.3 1.1zm42.3-40c-1.8-1.8-3.9 3.4-4.4 4.8.1 0 .3.2.3.2.6-.4 5.5-3.7 4.1-5zm96-104.8c.9-.6-6.4 3.7-8 6.9 3.4-1 6.1-3.3 8-6.9zm-18.7 13c4.2-3.4 8.4-6.9 11.8-10.7v-.8c-3.6.1-9.8 7.5-11.8 11.5zm25.2-8.4c1.5-.4 2.3-1.1 3-1.9-.8.4-1.5.8-2.3 1.5 0-.4 0-.8.4-1.1-.4 0-.8.7-1.1 1.5zm-7.3 9.1c2.8-3.5 7.1-9.4 1.9-4.2.4-.4.8-.4 1.1-.8-1.5 2.7-3 4.6-5 6.5v.4c.9-.7 1.6-1.1 2-1.9zm-34.3 21.8l4.6-5.7-5.3 5.3c.4.4.7.4.7.4zm-2.2 10.6c4.2-4.2 4-3.3 9.7-10.7-2.5 1.9-14.7 10.7-9.7 10.7zm1.5-16.7c-1.1 1.1-1.9 2.3-2.7 3.4 3 0 5.2-3.7 7.2-5.7-1.2-1.5-2.8-.8-4.5 2.3zM755.3 471.5c2.5-.8 15.1-11.8 9.9-11.8-2.6 1.6-9.9 8.2-9.9 11.8zM514.9 618.9c-5.7 6.1-11.5 12-17.7 17.7 2.5-2.2 20.9-16.7 19.7-19.7-.6.6-1.3 1.2-2 2zm128.8-31.6v-.8c-1.9 0-4.4 3.6-5 5 2.3.2 4-1.2 5-4.2zm2.6-3c2.2-.4 3.3-1.4 3-3-1.5-.3-2.5.7-3 3zm876.8-198.1c-.4-.8-.8-1.1-1.5-.8-8.3 5.6 1.5 5.6 1.5 1.1-.4.1-.4-.3 0-.3zm-998.6 248c-2.3 0-11.8 9.2-11.8 11 3.2 0 9.5-8.8 11.8-11zm13.9-36.5c.4-.2 20.3-18.1 18.4-20-5.1-2-34.3 30.7-38.8 33.9-2.3 2.7-57.6 55.5-56.8 56.4 9.9 0 29.8-25.2 36-31.4-.9.8 14.8-20.4 19.6-20.4 0 0 0 .2.2.7 7.4-5.7 15.2-11.4 21.4-19.2zm-13.6 20.1c-2.3 1.3-3.9 3.1-5 5.3 1.4 0 6.1-4.3 6.1-5.7-.2.4-.5.6-1.1.4zm120-50.7c2.8 0 6.3-6 8-7.6-2.4 0-7.8 7.6-8 7.6zm-7.6 8v-.8c-2.3 0-4.9 4.1-5.3 5.3 2.3-1.4 4.2-3 5.3-4.5zm91.4-71.2c-.7.4-5.3 3.4-5.3 4.6 1.1 2.9 2.9 1.3 5.3-4.6zM694 536.3c1.9 0 4.2-2.7 5-3.8 7.3-7.4-7.7 3.8-5 3.8zm29.3-40.2c-1.9.9-5 1.8-5 4h.9c-4.8 5-8.2 9.6-8.2 12.6 9.1 0 37.2-29.8 41.5-38.5-4.6 1.7-18.7 12-29.2 21.9zm-53 45.9c-3.3 0-6.6 3.4-2.3 3.4 1.7-.8 2.5-1.9 2.3-3.4zm-12.1 25.9c3.3 0 15.6-12.7 13.7-13.7-1.7 1-14.3 13.7-13.7 13.7zm57.1-64.1c-3.1 4.6-23.2 14.4-23.2 21.1.4-.1 20.2-16.1 23.2-21.1zm-41.9 35.9c1.3-.8 1.8-1.8 1.5-3-1.7 0-2.2 1.9-1.9 3-.4.4 0 .4.4 0zM395 358.8c-6.7-1.7-1.9 3.8-2.7 5.3 1.3 1.4 4.7-5.3 2.7-5.3zm1003.1 145.6c2.2-2.3 4.5-4.5 7-6.5-3-.8-6.3 4.1-7 6.5zm-86.4 83.8c0 .3 0 .3.3.6-3.7 3.8-23.3 26.4-24.3 24.4 4-3.9 16-16.8 14.9-17.9-10.5 7.2-59.8 45.5-59.8 57.5 10.7-5.4 19.1-16.8 28.2-24.4-11.9 12.6-21.6 24.6-33.1 36.2-.4-.4-.4-.8-.8-1.1-13.6 6.8-32.1 32.8-41.9 44.6.8.8 10-8.4 18.8-17.2-9 10.3-18.4 22.3-20.5 24.5-2.1 2.1-29.2 27.6-23.8 19.4-2 1.7-3.7 3.4-6.2 3.2 3.8-4.3 9.6-11.6 7.7-11.6-9.8 0-17.4 18.4-25.1 20.9 0 .1 0 .3.1.4-.4 0-.9.1-.9.8h.4c0-.3.2-.6.5-.7 5 10.5-16.1 23.5-24.1 27.7-1.5 1.1-2.7 2.7-3.8 3.8-6.6 0-33.1 42.1-52.9 42.7h-1c4.6-4.4 38.2-28 35.3-36.6-12.2 11.1-28.2 32.8-45.7 36.6h-10.2c.8-.5 1.1-1.2 1-2-2.3 0-4.3 1.5-6.9 2h-3.2c25.9-28.5 54.8-54.8 82.4-81.7 3.9-3.8 23.7-28.4 28.9-33.6-23.2 18.4-43.4 40.5-63.9 61.9-.6.6-1.1 1.2-1.7 1.8-3.3 2.2-5.6 4.9-7.2 8.1-14.1 16.4-32.4 38.8-48.3 43.5 8.3-7.7 37-27.4 37-38.2-17.4 0-24.2 34.5-43.9 38.2h-7.1c1.4-1.5 5.3-2.5 5.3-5 0-.4-5.2 2.8-7.7 4.3.4-.4.6-1 .5-1.7-17.4 0-39.6 2.4-58.6 2.4 0-.1.1-.1.3-.1v-.4c-.3.1-.4.2-.4.4h-17.5c5.3-6.1 10.3-11 14.5-18-7.3 0-16 15.5-23.6 18H441.1c1-1 2-1.9 3-2.7.8 2.5 12.3-6 13.3-6.9-.3.9-.7 1.8-1.1 2.7 3.5 0 6.1-1.7 6.1-5.3 7.8 0-.3 3.2 1.1 6.1 2-2 4.1-3.3 6.1-5.3v.4s.4 0 .4-.4c3.2-1 5.6-3.1 7.2-6.5-3 2.7-5.3 4.6-7.6 6.5h-.4c0-3.6 10.9-14.8 11.8-16.4-3.8 3-9.6 14.4-15.6 11.4.6-1.2 1.4-2.3 2.2-3.3.3-.3.6-.6.9-1 2.6-2.8 5.8-5.1 7.9-8.3-.3-.3.5-1.8 2.2-4-.1.3-.1.5 0 .6 3-1.7 5.1-4 6.5-6.9-.5 0-2 1.1-3.4 2.4 16.3-19.1 63.5-66 65.5-64.1.1 0-3.4 4.7-3.4 5.3 20-14.4 40-32.8 57.5-50.3-4.1 0-14.1 11.3-18.3 14.1 0-14.4 60.4-59.2 70.6-68.9 13.8-13.3 97.7-78.1 97.7-95.2-1.2-1.2-5.7 3-5.7 1.9 16-16 32.5-31.6 49.1-47.1-3.8 2.3-7 3.6-9.5 3.6-10.2 15.4-31.9 34.6-52.3 51.2-.8 1.9-4.6 7.5-4.8 7.5 1.1-.6 8.2-9.1 11.4-9.1-5.8 6.9-36.1 41.7-48.6 47.2 6.7-6.8 12.2-12.7 15.9-17.3 1.9-2 3.8-4.1 5.7-6.3l-3.6 3.6c2.6-3.6 3.8-6.2 3.2-7.4-4.4 3.8-8.6 8.2-13.3 11.8 1.8-1.7 10.7-10.3 19-17.9-6.2 4.9-11.9 9.3-16.8 13-.3.3-.5.3-.8.5 40.3-36.3 78-75.5 117.5-112.7 16.3-15.3 33.1-35 51-51.5-1.4 1.4-2.5 3.1-3.2 5.2v.8c1.4 0 9.5-8 9.5-9.5-2.3.6-4.2 1.6-5.7 2.9 7.6-7 15.4-13.3 23.5-18.5-1.9 1.9-3.7 3.9-5.6 5.8 1-.5 2.1-.9 3.1-.9-8.7 9.5-26.4 30.5-45.2 50.9 13.5-12.9 26.9-26 39.9-39.5 10.3-10.7 20.5-23.2 31.2-35 10.9-8.1 29.7-21.9 30.8-28.4.4-.3.8-.5 1.1-.8 2.4-.5 3.4-1.5 3.8-2.5.4-.3.8-.5 1.2-.8.4.4.4.8.8 1.1 16.7-16.7 36.1-33.4 50.1-52.5 8.8-7.2 26.2-26.6 28.7-29.1 4.5-5.9 16.7-13.3 23.6-19.4 0 2 3.3-1 1.6-1.6 4.4-4.6 4.6-5.6.7-9.5 3-1.5 5.1-6 7.5-8.3-.1.2-.2.5-.2.8.3-.3.7-.7 1.1-1.2.7-.4 1.2-.9 1.5-1.5 1.6-1.6 3.3-3.1 3-2.8-.2.4-.4.8-.8 1.1h.1c-2.2 1.6-3.3 3.5-3.1 5.7 7.2 0 9.4-10.2 14.9-12.9 1.2 0-3.6 6.5-6.9 10.4 2.1-.1 3.5-1.6 5.4-3.2-.3 1-1 2.2-1.7 3.4 11-3.9 1.7 4.1 1.7 11.9 1.4-1.2 5-4.6 7.2-4.6-1.4 2.5-2.9 4.9-4.6 7.2 16.1-3.2 43.8-39.7 54.7-50.1 20.7-19.8 43.9-50.4 72.6-60 0 5.4 7.2-3.5 9.5 0-7.4-7.4-77 63.6-95.8 82.4.4-.7-.1-.3-.1.1-1.6 1.6-2.8 2.8-3.6 3.5.3-1-5.3 1.4-4.2 3.7-3.6 3.1-29.6 21-27.3 28 0 1.9 17-13.5 17.5-12.9-1.4 1.6-18 21.3-22.9 25.5v-.4c-.6 0-1 .3-1.2 1.1-1.5.7-2.1 1.7-1.8 3.1 2.7 0 7.9-3.4 13.1-7.5-2.3 2.2-3.9 4-3.9 4.4 2.5 0 4.4-1.9 6.9-1.9-2.2 3.7-19.5 22.9-20.6 22.9 6.9 0 9.1-9.1 14.5-9.1 0 2.9-9.3 11.6-10.3 15.6 6.8-10.2 17.7-22.3 25.1-29.7 1.3-.7-.4 5 1.1 5 3.1 0 7.5-8.5 10.3-9.9 2.3 2.3 12-12.3 11.8-11.8.3-1.1.9-1.5 1.9-1.1.8.3 34.4-26.8 37.3-28.9-2.2 6.7-15.6 18.4-31.4 31.2.1-.3.1-.6.1-1.1-.8 0-.9.2-1.3.5-.7.7-.4 1.3 0 1.5-27.3 22-61.2 46.6-56.7 52.9-1.5 1.5-13.8 12.4-11.7 14.4.7.7 15.2-10.6 13.8-14.2 1.4.1 2.6.5 3.7.5 3.1 12.4 39.1-36.9 51.4-36.9-.4 1.9-1.9 2.7-2.7 4.2 1.5-.4 3-1.5 4.6-.4-2 4-45.3 41.8-45.3 38.5-2.6.9-8.7 6.6-7.6 9.9 1.5 0 3-.8 4.6.4 8.9-8.9 28.9-22.2 40.2-32.2-7.5 7.4-45.9 36-45.9 49 5.8-3.2 11.4-7.8 15.6-12.9.9 1.9.4 3.6-1.5 5.3 10.9 0 4.3-16.4 13.7-16.4 1.5 0-1.8 5.7.4 5.7 9.4 0 40.1-39 47.8-46.1 11.8-10.9 44.9-37.3 47.8-54.5-15.1 13.2-29.8 29.4-46.3 40.9 9.2-9.8 15.4-21.7 25.7-29.5 2.6 2.6 4.6-1.6 6.1-3l-.2-.2c12.6-8.1 21.1-21.7 34.4-28.4 0 8.2-14.7 17.7-18.3 23.6 6.7-3.4 13.5-15.3 21.3-19.9.4-.1.9-.4 1.3-.7 1.6-.7 3.2-1.2 4.8-1.2.4-.1 6.1-1.5 7.2-1.5.6.6-25 26.7-21.3 26.7 5.7 0 13.8-16.4 21.3-16.4-7.8 5.2-15.2 14.1-20.6 21.3 1.9 0 3.3-1.1 5.3-1.1 0 1.9-.9 3.6-2.2 5.2.3.4.1.7-.8 1-2.7 2.9-6.5 5.3-8.4 7.1 0-2.6 4.9-5.7 2.7-8-10.7 0-23.2 28.9-32.4 35.8-1.4 0 6.5-9.8 6.1-12.1-.8 1.4-18.3 14-10.5 16.2-2.7 1.8-5.7 5.9-7.4 8 4.4-1.5 7.2-4.1 8.3-7.8 2.5.4 4.9-.2 7.3-.2-4.9 7.5-11.1 13.4-17.5 19.8.3 0 .6.3 1 .3-6.7 8.8-28.8 20.3-25.3 30.5 0-6.4 24.7-16 28.6-19.4-8.2 8.2-15.2 18.3-23.2 26.3 3.3 0 5.9-5.8 9.1-6.9 7.4 14.7 19.1-27.1 22.5-28.2 14.5-4.8 14-4.4 28.6-17.1 5.7-4.9 15.8-12.2 24.6-20-21.4 30.3-53.7 51.5-77.3 81.5-.3-.2-1-.2-1-.1 0 .3.3.7.3 1-2.6 3.3-5.1 6.7-7.4 10.3 0-.1-.1-.2-.2-.3-6.4 3.7-15.1 11.6-19 17.5 25.4-19.1 47.9-40.3 72.7-62.1 5.3 15.8-83.5 86.6-91 97.1 7.3 4.4 12.6-5 17.1-9.4-.1.3 0 .7.1 1-2.3 2.3-16.8 14.6-16.8 20.6 6.2 3.1 27.4-26.3 39.1-41.6 4.1-1 4-2.5 3.9-5 1.6-1.9 2.8-3.2 3.4-3.7 0 5.9 23.7-21.1 26.3-21.7 0 1.7-23.3 22-25.9 28.2-15.1 13.6-29.5 27.8-37.4 43.4l.2.2c-2.6 2.1-17 18.6-20.6 23.3 3.8-.8 18.5 10.6 13.2-6 5.9 2.3 11.2 1.6 16-1-.5.6-.8 1.3-.7 2.1 2 .2 3.4-1.1 4.2-3.8-.5.1-1 .2-1.4.4 19-13 30.3-56.3 48.3-62.2 1.8-2.9 2.6-5.2-3.6-1 .9-3.5 5.5-5.5 8.4-6.5 0 .6 18.5-11.7 20.6-13.7 0 2.1-2.3 3.9-2.3 6.1 0 2.3 22.4-19.9 32.8-30.8 1.9-1.2 3.4-2.8 4.5-4.9.7-.8.9-1.1.4-.7 2.4-3.2 4.7-6.5 6.9-9.8-.2.4-.3.8-.2 1.2 3.1-1.2 3.3-3.5 5-6.9-.7.6-1.2 1.1-1.8 1.6 2.1-3.4 16.1-19.4 16.6-19.8 1.1 2.3-27.6 36.4-18.3 28.1v.1c11.1 0 13.8-14.6 20.2-20.9 0 1.6-.4 3.2-.4 5 5 0 32.7-34 39.2-39.2 0 6.6-20 25.3-34.1 39.4-.2-.3-.1-.6.2-.9 0 0-.4 0-.4.4v.7c-5.6 5.6-10.2 10.4-12.2 13.4-.3-.1-.5-.1-.1.2.7.3 1.4.3 2.1-.2 0 .6-.2 1.3-.6 2l-.9.6c-.2.2-.1.4.2.5-5.1 7.4-23.1 18.5-12.8 18.5-28.5 28.5-55.5 58.6-84 87.4-14.9 15.1-35.1 31.1-44.4 49.7 10.7-5.4 18.4-20 27.1-25.2-2.3 2.6-6.2 7.7-3.8 7.7 1.7 0 20.8-18.1 13.8-17.7 32.6-29.5 62.5-63 93.5-94.2-5.1 4.4-14.9 11.7-15.9 11.7 13.3-15.6 32.2-25.6 44.9-41.5-2.7 1.9-5.4 3.8-8 5.7 0-.9 4.9-6.4 1.9-5-4.5 2.3-8.4 5.3-12.9 7.6 8-13.3 16.7-10.3 26.7-16.8 14.6-9.4 28.6-20.9 42-33-.6 1.2-.9 2.4-.9 3.6 1.3 0 2.6-.4 3.8-1.1-9.5 9.4-18.8 18.9-21.6 23 .1 0 .3.2.3.2h-.4v-.1c0 .1-.1.1-.1.2h.1c0 .2-.1.2-.1.1-.6.9-.8 1.5-.6 1.7 3.3-2.4 19.4-11.5 19.4-14.1 0 4-19.6 20.9-17.9 20.9-7.3 21.9-63.2 44.9-63.2 67.4.7.7 4.6-1.5 9.5-4.8-22 17.9-42.7 38.2-62.9 59.1-.1-.2-.3-.1-.3.2-1.6 0-1.4.5-.7.9-21.5 22.2-42.3 45-63.3 66.4-9.2 9.4-27.5 22.1-34.6 34.1-11.3 19.2.3 6 1.9 10.6 21.8-7.3 97.1-73.6 97.1-92.2-3.6-.2-6.4 1.9-8.4 6.1-1.8-.9-1.9-2-1.4-3.2.8-1 1.4-1.8 1.9-2.6.4-.4.7-.8.9-1.1h-.2c6.5-9.4 20.8-16.5 30.3-24.4-1.2 2.5-15.5 13.4-13.3 15.6s180.4-172.7 199.2-182.1c-3.1 6.1 9.1-4.6 9.9-4.2 0 10.9-28.6 21.7-31.6 33.9 3.7-.2 9.1-4.6 13.7-7.2-3.1 4.6-6.6 9-10.3 13.3-8.7 7.1-16.4 15.4-24.3 23.2-.3 0-.5.1-.6.4.2-.1.5-.2.6-.4h.4c-.6.6-1.3 1.1-1.9 1.7 0 .4.4.6 1 .6-1.4.8-2.2 2-2.5 3.4 14 0 12.2-19 12.2-6.1 12.1-4-6.1 12.1-6.5 12.9 4.3 0 15.2-12.9 18.3-15.6-14.2 18.9-86.8 73.8-86.8 94.1 8.5 0 18.2-8.4 28.1-19-1.1 1.5-1.8 2.8-1.8 3.8 0-3.9 31.4-21.9 32-31.7-.9 2-15.5 13-24.6 21.9 12.2-13.5 24.4-28.5 35.2-33.5-4.5 6.7 15.3-3.6 10-9.2 1.2-1.1 2.4-2.3 3.7-3.4-.5 2.4 4-.5 4.3-.8 4.3 4.3 10.5-7.5 14.1-11.1-2.4.8-4.5 4.2-6.9 4.2 0-1 4.4-4.8 2.9-6.2 9.1-7.9 20.5-18.4 31.3-23.8-2.3 1.9-33.6 29.9-24.5 31.2-2 2.1-2.3 4-3.6 6.5-.1.1 14.4-10 10.2-11.3 4.6-3.8 3.2 1.2 8.1-1.2-2.6 5.2 24-21.3 28.9-16.4 9.9-5.9 19.2-12.6 27.8-20.2.9 3.7-6.5 5.9-6.5 9.1 1.5.1 2.8-.5 3.8-1.9-1.3 3.2-4.2 8.4 1.5 8.4 0 11.3-8.7.3-6.5-1.9-.2 0-.5 0-.7.1.3-.9-.6-2.1-1.6-3.1-1.1 1.5-2.3 2.7-2.7 4.6.5 0 .9 0 1.3-.1-5.9 4.2-13 15.9-15.8 18.7 2.8 2.8-7.3 8.9-1.1 8.6-8.1 7.8-28.3 18.9-28.3 31 2.1-1.8 33.1-31.1 31.1-32.8 4.9-4.3 7.6-6.7 12.3-11.4 0 3.2-6.4 21.3-8 22.9l.4.4c5.6-4 9.1-7.9 14.9-11.4-2.2 5.4-10.8 12.4-15.3 15.7v-.1c-13 0-47.2 46.8-47.2 53.7.5-2.4-19.1 15.6-20.6 18.6-1.7-5.8-40.5 34.9-47.5 42 2 2 .8 3-3 5V431c-14.5 13.7-29.5 29.9-44.2 44.6 1.4 0 5.2-2.2 10.5-5.9-5.5 6.5-10 11.8-12.4 14.3-3.3 1.6-5.2 4-5.6 7.2 4.1-4.2 16.5-16.1 17.4-15.2 0 .6 45.2-35.5 50.7-46.5-14.2 8.1-27.5 33.5-42.7 37.3 5.3-5.3 10.9-10.5 16.3-15.8 10.1-8.5 21-18.1 30.5-27.3 1.9-1.5 26.2-19.1 22.9-22.5l-4.2 2.8c4.9-5.9 8-10.7 8-13.5 0 4.9 34.2-35 41.9-37.9 4.8-6.1 9.3-10.2 12.9-9.8-2 1.5-1.6 4.8.9.6 2 1.5 38-30.9 42.1-33.7.9 2.7.2 5.1-2 7.3-1-.3-1.4.3-1.1 1.7-3.1 4.4-7.3 9.1-12.3 13.9-1.8-1.1-9.7 2.5-8.2 4.1.9.1 2.5-.1 4-.2-6.5 5.9-13.8 12-21 18l1.8-1.8c-1.1.4-1.5.4-1.5.8-5.4 5.4-20.1 15.6-26.7 24.4-26.4 26.2-53.8 51.3-80 77.7-7.1 7.2-42.7 37.6-42.7 44.9 15.4 0 70-66.1 81.7-76.2 31.6-27.2 62.9-56.8 90.9-87.7.4.2.7.4 1.1.5-.6 2.4-2.3 8.6-2.3 8.8 0 1.4 19.2-16.6 20.9-14.9.5 2.1-6.1 4.5-5 6.9 1.5.5 6.2-5.8 7.2-3.8-1.5 1.9-6.1 5.7-6.1 7.6 4 4 16.4-22.1 16.4-22.9 0 5.9 2.8 3 8 3 0 1.9-6.6 7.8-7.9 9-.1-.1-.3-.1-.5.1l-.4.4h.3c-12.4 10.2-22 26.2-33.4 37.7 3.1 0 3.9 1.1 6.2 1.1-17.7 17-68.6 55-76.7 79.2 11.4 0 90.3-88.1 89.7-88.6.9-.8 2.4-2.4 4.2-4.2 3.8-2.2 9.3-8.3 12.7-10 .1-.1.7-.5 1.4-1 .3-.1.6-.1.9-.1-.8 1.5-1.9 2.7-2.7 4.2 6.6 0 3.6 8.2 19-7.2 0 3.6-1.7 4.8-4.6 7.6l-.4.4v-.4c-1.1 0-9.5 7.4-16.1 13.4-.4.1-.8.4-1.1.7 0 0-.4.5-1.3 1.4-5.5 5-8.3 7.8-.8.8-5.5 5.6-19.9 19.8-22 21.9-4.5 1.6-16 15-28 29.5-2.7 2.1-4.9 4.6-6.9 7.6 1.6-1.7 3.2-3.4 4.9-5.1-10.7 13-21.5 26.3-27.7 32.3-25.3 24.5-54.3 44.9-79.3 69.9.1-.4.2-.8.5-1-6.3 2.5-12.6 10.3-16.8 15.2 6.6-3.3 8.2-8.4 15.3-13.2-39.6 38.3-90.6 94.3-120.4 124-7.1 8-7 13.6-11.8 8.8-4 3.2-17.8 18.9-29.3 32.2 9.4-7.2 19.7-14 21.7-18.1 2.5-4.4 3.6-11.6 8-7.2 38.5-25.7 73.1-71.9 106.6-105.5 0 5.6-7.2 5.4-.8 11.8-10.8 0-33.6 32-40 38.5-.9.9-1.8 1.8-2.7 2.8-1.4 1.3-2.6 2.6-3.8 3.9-17.9 18.1-36.1 35.9-54 54-16.9 17.1-88.7 72.1-88.7 95.1 13.5 0 36.1-30.2 53.8-51.4 3.8-3.2 8.9-9.7 10.4-11.8 2.4-2.5 4.6-4.6 6.6-6v.4c1.4 0 3.1-1 5-2.6.1 0 .1-.1.2-.1 5.7-4.9 12.9-15.2 16.6-18.9-.3 2.1-6.1 8.7-12.2 15.3 15.8-12.5 39.1-27.8 43.1-35.6-.4.4-.4 0-.4-.4-10.9 1.8-18.1 18.6-28.5 22.8.4-.4 3.3-4.9.9-4.9 19-19 38.2-38.3 57-57.8 8.4-7 17.1-15.5 20.2-21.1 5.4-5.7 10.7-11.4 16-17.1v.4c2.2 0 4.8-1.3 7.8-3.3-2.1 3.9-3.8 7.8-5.1 11.7.8 0 1.4-.5 1.9-.4h.1c-.1 2-4.6 9.1-1 5.3zm-91.8 79.9c-.4-.4-.8-.4-1.1 0v.4h1.1v-.4zm243.4-278.5c2.1.2 3.6-1.1 4.6-3.8 0 0 0-.8.4-1.1-1.9 1.5-3.4 3-5 4.9zm-35.1 47l3.5-3.5c-1.7.9-2.8 1.9-3.5 3.5zm22.9-94.2c0 .4 0 .8.4 1.1 1.4-.7 2.1-1.7 1.9-3-1.1-.2-1.9.4-2.3 1.9zm-.7 2.3c0 1.7 1.2.3 1.5 0-.5-1-1-1-1.5 0zm-18.7 7.6c.9.2 1 .1.4-.4-.4 0-.4 0-.4.4zm-43 43.8c8.7 0 19-14.8 28.6-28.7-9.7 9.6-21.8 17.8-28.6 28.7zm-31.3 30.1c1.1 0 1.5-.4 1.5-1.5l-1.5 1.5zm78.1-104.7l.4.4v-.8l-.4.4zm14.9-38.5c2.5.2 4.3-1.3 5.3-4.6-2.1 0-4.5 3-5.3 4.6zm-7.6 7.2c2.1-.8 3.8-2.9 3.8-5.3-2.1 0-3.8 3.7-3.8 5.3zm-6.1 11.5c2.4-1.6 12.6-4.3 12.6-10.3-1.5-1.5-12.6 8.9-12.6 10.3zm-3.5 2.2h.4v-.4l-.4.4zm-4.5 4.6c1.2 0 2.3-.7 2.3-1.9-1.1 0-2 .9-2.3 1.9zm-6.1 5.7c1.6-.3 2.6-1.3 3-3-2.2.4-3.2 1.4-3 3zm-43.8 70.5h-.4v.4l.4-.4zm24.4-37.7c0 .4.4.8.4 1.1 3.9-.9 4.2-2.8 4.2-5.7-1.7.5-4.6 2.4-4.6 4.6zm-2.7 18.3c3.1-.1 6.9-2.8 6.9-6.9-3.1 1.5-5.4 3.8-6.9 6.9zm-.8-58.7c1.1-1.5 2.3-2.7 3.8-3.8-2.4-.2-3.7 1-3.8 3.8zm-11 8.4c1-.3 1.5-.9 1.5-1.9-1.2 0-1.5.4-1.5 1.9zm-13 15.2c1.5.1 2.8-.5 3.8-1.9-5.2 10.3 25.6-18.4 19.8-21.3-4.8 4.8-9.3 12.8-15.6 16 3-1.8 4.7-4.2 5-7.2-1.3.6-15.2 12.2-13 14.4zm-11.8-1.1c2.9 0 4.7-3.3 4.6-5.3-1.3 1.3-4.6 2.8-4.6 5.3zm-1.5 75.4l-2.7 2.7c1.3-.3 2.3-1 3-2.3l-.3-.4zm-6.1-52.6c1.7 0 5.4-4.3 5.7-5.9 0 0-.1 0-.4.2-1.2 1.3-5.3 3.6-5.3 5.7zm-3.4-.7c.8.2 1.3-.2 1.5-1.1-1.1-.1-1.6.3-1.5 1.1zm-.4 59l.4.4v-.8l-.4.4zm-9.1-49.5c1.9-1.5 2.7-1.9 3.4-2.7v-.4c-1.7-.1-2.9.9-3.4 3.1zm-6.9 65.1l.4.4v-.8l-.4.4zm76.9-192.3c.3-.2.5-.4.4-.8-.4.4-.7.8-.4.8zm-24.7 16.7c1.4 0 1.6-2 2.3-2.7-1.4.1-2.2 2.7-2.3 2.7zm-116.2 64c1.9-1 25.5-25.9 24.8-25.9-6 6-24.8 17.3-24.8 25.9zm-14.1 4.6h.4l.4-.4h-.4s0 .4-.4.4zm-.7 10.7c.4 0 .4 0 .8-.4-.4-.1-.7 0-.8.4zm-28.2-13c4.4 0 15.6-7.9 15.6-12.9-2.7 0-15.6 8.8-15.6 12.9zm-19.5 17.9c.5.5.8.5 1.1 0l-.4-.4c-.3.4-.3.4-.7.4zm-4.9 5.3c2 0 1.5-3.4 0-.4v.4zm-8.8 9.2h.8c0-.4.4-.8.4-1.5-1 .2-1.4.7-1.2 1.5zm-2.3 9.5l.4-.4-.4-.4v.8zm-1.9-5.7c.8-.3 1.4-1.1 1.5-1.9-1-.2-1.5.4-1.5 1.9zm-2.6 10.7c.3.1.6 0 .8-.4-.4-.1-.7 0-.8.4zm-3.4 2.6c-3.8 1.1-5.6 3.2-5.3 6.1 1.8 0 6.1-4.4 6.1-6.1h-.8zm-5.8-1.5c.8-.2 1.4-.8 1.5-1.5-.9-.3-1.4.3-1.5 1.5zm-6.4 14.1c-.3-.1-.6 0-.8.4 0 0 .4.4.4 0 .4.4.4 0 .4-.4zm-5-2.7c1.8-1 9.1-6.3 9.1-9.1-2-.1-3.5 1.1-4.6 3.4l.4.4c-2.6 1.1-4.3 2.9-4.9 5.3zm-4.2 3.8c.6.1 1-.3 1.1-1.1-.6-.1-1 .3-1.1 1.1zm-19 26.7c2.4 0 7.6-4.2 7.6-7.2 0 .6-7.6 4.5-7.6 7.2zm44.9-102.5c3.8-3.4 6.1-6.1 8.4-8.8-13.1 11.3-4.5 3-8.4 8.8zm-8.7 10.6c1.3-1.3 7.8-7.5 5.6-7.5-2.4 0-4.9 6-5.6 7.5zm-36.6 31.3c1.9-.8 2.7-2.3 3.8-3.8-1.5 1.6-3 2.3-3.8 3.8zm75-89.1h.4c-.4-.4-.4 0-.4 0zm-68.1 49.1h.4s0-.4.4-.4h-.4c-.1.1-.1.4-.4.4zm65.1-101.7c-2.9.4-4.3 1.5-4.2 3.4 1.9.3 3.3-.9 4.2-3.4zm.7-3.4h-.4v.4l.4-.4zm-9.9 7.6c1.5-.8 2.7-1.5 2.3-3.4 3.7-1.8 9.5-6.3 9.5-10.7-3.5-3.5-14.4 10.2-11.8 14.1zm-47.6 62.5c-.3.3 6.3-4.6 3.4-4.6-.9.4-5 3-3.4 4.6zm-70.8 13l.4-.4c-.4-.2-.5 0-.4.4zM871.8 399.2c1.9-1.3 3.8-3.4 5.8-5.7-1.9 1.8-3.9 3.7-5.8 5.7zm-83 80.7l-.4.4.4.4v-.8zM452.1 818.5c-1.1.4-1.5 1.1-2.3 2.3 1.2-.8 1.9-1.2 2.3-2.3zm270.8-255.9c3.1-.4 5.1-2.5 6.1-6.1-2.7 1.4-4.7 3.5-6.1 6.1zm-9.1 14.4c1.5-1.1 3-2.7 4.6-4.2-1.6 1.2-3.1 2.7-4.6 4.2zm-8 7.6c.3-.2.5-.4.4-.8l-.4.8zm-4.2 73.6c1 0 1.5-.5 1.5-1.5-1-.1-1.5.4-1.5 1.5zm-33.9-43.5c9.1-8.4 17.9-16.4 26.3-25.5-9.2 8-17.6 16.8-26.3 25.5zm19.8 62.5s0 .4-.4.4c.7-.2.6-.6.4-.4zM676.1 630c-1.9 0-6 5.5-6.9 6.9 3.3-.9 4.9-3.2 6.9-6.5.3.3.3 0 0-.4zm-14.9-3.1c3.4-3 6.9-6.5 10.3-9.9-3.4 3.1-6.9 6.5-10.3 9.9zm-.4 19.1c1.6-.4 2.2-1.3 1.9-2.7-1.4.1-2 1-1.9 2.7zm-.7 1.1c1.1 0 1.1 0 .8-.8-.5 0-.5.4-.8.8zm-17.6 14.5c4.8-.5 9.3-4.3 11-9.5-3.7 0-9.4 7-11 9.5zm-20.9-3.4c6.1-4.8 11.7-10.5 17.1-16-6.1 4.5-11.8 10.2-17.1 16zm13.3 36.1c-.9 1-1 2-.4 3 2.4.2 4-1.4 4.6-5-2.3.5-3.4 1.3-4.2 2zm-18.6-25.1c9.2-2.6 13.8-7.2 13.7-13.7-2.3 2.2-13.7 10.2-13.7 13.7zm-1.9-.4l.4-.4-.4-.4v.8zm-7.7-4.6c-5.3 0-13.1 12-16.4 15.2 4.3.1 13.5-12.2 16.4-15.2zm-3.8 14.9c0 .9-.1 1.8-.3 2.6 2.2-2.3 4-4.7 4.9-6.7-1.5 1.1-3.4 2.6-4.6 4.1zm-3.8 10.7c1.1-.8 2.3-1.1 2.7-2.7-1.2.4-1.9 1.5-2.7 2.7zm-8.4 2.3c1 0 1.9-.9 1.9-1.9-1.2-.1-1.3 1.3-1.9 1.9zm-4.1 4.9c.4-.4.4-.8.4-1.1-.5.2-.6.6-.4 1.1zm-.8 1.9c.4-.3.6-.6.4-1.1-.4.3-.4.7-.4 1.1zm-5.3 5.3c1.3-.5 2.1-1.4 2.3-2.7-1.4.2-2.2 1.1-2.3 2.7zm-11.9 7.3c2.6 0 9.5-8.6 9.9-9.1-3 2.6-6.4 5.6-9.9 9.1zm-5.3 32c6.5 3.3 15.9-19 19.4-19-2.9-3-16.7 14.9-19.4 19zm-2.6 1.5c.9-.2 1.1-.7 1.9-1.5-1.3-.2-1.9.3-1.9 1.5zm-7.3-14.5c1.3-.5 2.1-1.4 2.3-2.7-.4 0-.8.4-1.1.4 0 .8-.4 1.2-1.2 2.3zm-14.8 1.9c.8 1.1 1.7.6 2.7-1.5-2-.2-2.9.4-2.7 1.5zm-51.8 52.2c1.5-.8 2.7-2.3 3.8-3.8-1.6 1.1-2.7 2.3-3.8 3.8zm5.3 1.5c18.7-18.7 39.6-36.5 56.8-56.8-11.8 10.3-61.3 45.6-61.3 61.3.8.1 4.2-4.2 4.5-4.5zm56.4-27.8v.8c2.3.2 3.7-1.3 4.2-4.6-2.3 1.9-3.1 3.1-4.2 3.8zm-7.3-15.6c1 0 1.9-.9 1.9-1.9-2.6 0-.2.3-1.9 1.9zm-3.8 26.3c0 4.4 8.7-3.1 6.5-5.3-2.9-.1-5 1.7-6.5 5.3zm-6.5 9.1c-.7.6-1 1.4-.8 2.3 1.8 0 3.3-2.3.8-2.3zm-24 19.8c.4 0 .4 0 .4-.4.4 0 .4-.4.8-.4-.4.1-1.2.1-1.2.8zm-11 17.6c.8-1.1 1.9-1.9 2.3-3.4-6.6-2.3-6.5 11.7-2.3 3.4zm1.9.7v-.4c-.5.9-.5 1 0 .4zm1.5 2.7c-1 0-1.5.5-1.5 1.5 1 0 1.5-.5 1.5-1.5zm12.6-10.7c-1.9 0-5.5 2.9-3.4 5 1.5-.8 3.4-3 3.4-5zm3-16.4c-2.2.9-12.2 12-12.2 14.5 3.5 3.5 12.8-11.5 12.2-14.5zm3.6.2c1.7-1.5 7.3-6.3 6-6.3-2.1 0-5.3 5.3-6 6.3zm26.2-14.2c6.4-2.2 9.4-5.8 9.1-10.7-1.5 0-4.9 2.9-8.2 6.2 4.2-4.5 8.2-9.3 8.2-11.9-8.9 0-30.1 30.7-35 36.6 6.5 0 7.5-7 12.9-9.1-.8 1.3-6.5 5.6-6.5 8 7.7-5 12.3-13.8 19.5-19.1zm-3.1 38.8c-3.2.1-5.4 2.1-5 5 2.5-.6 4.2-2.3 5-5zm9.5-9.9c-1.5.4-2.7 1.1-3.4 2.7 1.9.3 3-.8 3.4-2.7zm2.3 5.3c-1.4 0-3.4 2.4-3.4 3.8 1.9 0 3.4-2.1 3.4-3.8zm39.2-46.4c-1.9 0-5 4.2-5 6.1 4.7-1.3 6.4-3.3 5-6.1zm2.3-17.9c-4.7 0-5 1.8-9.9 8.4 2.4 1.5 10.8-7.6 9.9-8.4zm16.9-19.2c1.4-1.4 10.6-8.8 10.6-12.5-8.6 0-78.5 60.6-78.5 72.7 1.7-1.7 3.8.8 3.8 2.3 4.3-3.1 33.5-29.5 33.5-29.3-2.3 0-3.2 2.5-5.3 1.9 2.4-4.8 14.9-16.4 19-17.5-1.1-2.3-2.7-1.3-5.3 0 2.9-3 5.8-5.8 8.9-8.6-1.6 2-3.8 5.1-2.4 5.1 4.3.1 16.2-14.6 15.7-14.1zm2.2 17.3c-.9.1-.5.5-1.1 1.1.6.1 1-.3 1.1-1.1zm14.4-30.1c-2 0-14.9 10.4-14.9 14.9 1.1 0 8.7-6.5 8-7.2l6.9-6.9c-.3-.1 0-.5 0-.8zm6.5-44.2v-.8c-2.6 0-7.6 7-7.6 9.1 3.4.1 8.5-9.8 7.6-8.3zm6.5 51.8c-.8-.3-.8.4-.4 1.1.4-.4.8-.7.4-1.1zm7.6-33.5c-8.3 4.1-15.2 14.9-17.1 21.3 2.6-2.2 18.7-16.5 17.1-21.3zm10.7-16.8c9.8-9.8 19.2-19 27.4-30.1-14.5 10.7-26.7 25.5-39.6 38.5 6.3-3.2 6.1-3.3 12.2-8.4zm24.7 6.1c1.8-1.8-8.7 6.1-5.7 6.1 2.6 0 4.8-3.5 6.1-5.3v-.4l-.4-.4zm-17.1-6.1c-1.1.6-1.7 1.5-1.9 2.7 1.3-.7 2.3-1.2 2.7-2.7h-.8zm3.4 21c-1.8 0-9.1 7.3-9.1 8.8 4.4.2 7.5-2.7 9.1-8.8zm6.5-30.1c-.3.2-.5.4-.4.8.4-.2.5-.5.4-.8zm8 97.1c2.5-.7 4.4-2.2 5.7-4.6-1.4-1.4-1.5-1.9.4-3.8-4.4 0-15.2 14-13.7 12.6 2.8-.9 5.3-2.3 7.6-4.2zm11.4-1.9c-1.7-1.7-11 8.4-10.3 9.1 3.3-.5 10.3-4.7 10.3-9.1zm8 19c-.8-.2-1.3.2-1.5 1.1.6-.2 1.1-.6 1.5-1.1zm.4-35.4c6-7.6 27.4-21.1 27.4-29.7v.4c1.4-1.1 18.7-14.4 15.6-17.5-7.7 5-50.7 41.5-50.7 54.1.6.4 10.1-8.1 7.7-7.3zm8-.4c-1.7.7-6.9 5-6.9 7.2 2.1.1 6.3-5.3 6.9-7.2zm11.4 9.9c-6.7 2-10 5.5-9.9 10.3 2.9 0 9.1-7.9 9.9-10.3zm21.4 41.5c-1.5 1.5-3 2.7-4.2 4.2 2.6-1.5 2.6-1.9 4.2-4.2zm6.9-87.1c-6.9 5.6-36.2 23.6-36.2 32.3 9.1 0 28.5-24.1 36.2-32.3zm2.2-181.8c3.4-3.4 6.9-6.9 11-11.4-1.8 1.1-13.3 13.8-11 11.4zm1.5 198.1l-.4.4.4.4v-.8zm11.4-8c-.4 0-.4-.4-.4-.4-1.8 0-6.1 3.4-6.1 5.7 2 0 6.5-3 6.5-5.3zm2.3-189.3c-1.9 1.5-3.8 3.4-5.7 5.3 2.3-1.5 4.2-3.4 5.7-5.3zm1.6-4.9l5.3-5.3c-1.9 1.1-3.4 2.2-5.3 5.3zm2.6 1.1l-.4.4.4.4v-.8zm3.8-3.8c-.1.1-1 1.1-1.1 1.1.6-.1 1-.5 1.1-1.1zm4.6 181.3c-1.2 0-3 1.8-3 3 1.1 0 3-2 3-3zm.4-190.4c-1.5 1.1-3 1.9-3.8 3.8 1.5-1.1 2.8-2.3 3.8-3.8zm8-7.3c-.4 0-.8.4-1.1.8h.8c-.1-.4-.1-.4.3-.8zm22.1-21.7c.7-.4 1.3-.9 1.9-1.5-.8.3-1.4.8-1.9 1.5zm-5.4 308.5c-3.3 1.6-4.3 4.7-6.5 6.9 3.3-.9 5.4-3.2 6.5-6.9zm0-303.2c-1.1-.1-1.8.5-2.3 1.9.8-.3 1.6-1.1 2.3-1.9zm9.6 293.3c-2.6 2.1-8 5-8 8.8 1.5 1.5 7.2-7.8 8-8.8zm21.3-18.7c-6.1 2-15.2 13.6-17.5 18.3 6.3-4.5 11.9-11.8 17.5-18.3zm15.6 41.2c-.3-.1-.6 0-.8.4.4.1.6-.1.8-.4zm4.2-359.9c-11.1 8.9-31.4 24-37.7 36.6 12.3-6.2 26.1-24.6 35.8-34.3.8-.8 1.5-1.6 1.9-2.3zm4.6 351.5c-.4-.4-.8 0-.4.4 0 0 0-.4.4-.4zm3-358.8c-.7.4-1.4.9-1.9 1.5.7-.3 1.4-.8 1.9-1.5zm5.3-5.3c-.4-.4-.4 0-.4 0v.4c.1 0 .1 0 .4-.4zm12.6 382c-1.6-.2-2.6.8-3 3 1.7-.4 2.7-1.4 3-3zm61.7 8.4c-.9-.8-1.5-.4-1.9 1.1.9.2 1.5-.2 1.9-1.1zm203.8-190.1c-1.5 0-1.4 1.1-2.3 1.9.4 0 .8-.4 1.1-.4.8-.1 1.2-.6 1.2-1.5zm2.3 72c0-2.3-5 6.1-.4 1.5-.4-.7 0-1.1.4-1.5zm4.2-5.3h-.8c.4.4.4.4.8 0zm1.5 3.4c-.4.3-.6.6-.4 1.1.3-.3.4-.7.4-1.1zm6.8-7.2l-.4-.4c-.8.8-1.9 1.1-3 1.1.2.9.4 1.8.8 2.7 1.9-.7 2.8-1.8 2.6-3.4zm12.6-14.1c-3.5 2.3-7.9 7.1-10.3 10.3 2.7 2.6 12.3-6.4 10.3-10.3zm-9.5-40.8s.2 0 .3-.2c-.4.1-.9.2-.3.2zm39.2-78.1c1.6 0 1.9-1.8 1.9-3-1.2 0-3 3-1.9 3zm29-13.7c-1.7-1.7-25.8 23.9-28.2 26.3 1.1 3.3 2.1.1 5.3-1.1 4.1-1.4 22.9-19.2 22.9-25.2zm-1.6-15.2c5.6-3.4 10.9-7.9 15.2-12.6-6.8 1.5-9 6.4-15.2 12.6zm3.5-73.1c.4 0 .8-.4 1.1-.4 0-.4.4-.8.4-1.1-1.2-.4-1.7.1-1.5 1.5zm4.2-6.1c-.8-.2-1.2.1-1.1 1.1 1.1.4 1.4 0 1.1-1.1zm0 13.3c0 .3 2.3-1.1 2.3-2.3-1.4 0-2.3.8-2.3 2.3zm11.8 108.2c-.8 0-1.5.8-1.9 1.1-6.2 5.9-15.2 14.6-20.9 20.6 6-1.1 7.4-5.2 12.2-9.9 1.7 0 6.1-5.2 10.6-11.8zm-3.5 6.5c-.9.1-1.2.5-1.1 1.1.4 0 1.5-.8 1.1-1.1zm-19.8 19c-1.1 1.1-2.7 1.9-3 3.8 1.8-.9 5.3-3.9 5.3-6.1-.4.4-1.5 1.2-2.3 2.3zm18.7-153.5l.4-.4c-.3-.3-2.5 2.5-.4.4zm-23.2 155.4c0-.4.4-.8.8-1.1-.7.4-1.3.9-1.9 1.5.3.4.7.4 1.1-.4zm-1.2 4.2c.3.5.5.5.8 0h-.8zm-4.2 14.1c-1.1.5-2 1.2-2.7 2.3 1.4-.4 2.3-1.1 2.7-2.3zm66.7-65.5c-.4-.4-.4-1.1-.4-1.1-13.5 0-55.3 50.6-62.5 62.8 10.9 0 58.2-56.4 62.9-61.7zm-32.8 20.2c1.6 3.1 4.8-1.6 5.3-2.7-1.8 1.1-3.4 2.3-5.3 2.7zm1.6-135.6c-.8.2-1.3.7-1.5 1.5.7-.8 1.1-.3 1.5-1.5zm1.5 130.6c-.2.1-.3.2-.4.4.4.4.4.4.4-.4zm8.7-67c2-2.3 3.9-4.7 5.7-7.2 2.1-2.1-14.9 14.9-14.1 14.9 4.1.2 6.8-2.4 8.4-7.7zm-1.5 60.2c.4.4.4 0 .4 0h-.4zm-7.2 6.8c.4.4.4 0 .4 0h-.4zm28.9-75.4c-1.5 0-2.3 1.1-2.7 2.6 2.1-.4 2.3-.4 2.6-2.3-1.1 1.1-.9.8.1-.3zm0-72.8c-5.5-.3-9.5 3.3-11.8 10.7 5.4-3.8 9.1-5.3 11.8-10.7zm-3.4 75.5c-5.4 1.3-1.8 6.6.4 0h-.4zm2.7 14.8v-.8c-1.6-.1-2.7.9-3.4 3 1.8-.7 3-1 3.4-2.2zm52.1 12.2c-.4 0-.4 0-.4.4l.4-.4zm8.4-28.6c3.8-3.8 40.4-36.8 40.4-42.3-7.2 0-70.8 62.9-68.6 69.7 9.8-4.8 20.9-20.1 28.2-27.4zm27.4-23.6l.4.4v-.8l-.4.4zm-8.7 7.6c-1.1 1.1-2.3 2.3-3.4 5 2.1-1.2 3.6-2.9 4.6-5h-1.2zm-13.9 29.9c-.7.5-1.5 1-2.1 1.3l.4.4 1.7-1.7zm4-7.4c-.4 0-.8.4-1.1.4-1.1 1.5-2.7 2.3-3.8 4.6 1.9-1.9 3.4-3 4.6-4.6-.1.4.3 0 .3-.4zm59.1-50.8c.9.8.6 2.2 2.6.1 1.5-.7 2-1.5 1.5-2.7-1.7-.1-3.1.8-4.1 2.6zm-.1-7.1l.4-.4-.4-.4v.8zm-11.4 20.6c.4 0 .4-.4.8-.8-.4.4-.8.4-.8.8zm-44.2 34.3c3-1.7 5.9-3.7 8.5-5.9-2.2 2.1-5.5 6.1-8.9 9.9 14.3-13 29.8-24.6 43.5-38.2-12.8-.1-36.7 26.9-43.1 34.2zm117.7-146.3c.2-.2.3-.3.3-.4-.3 0-.3 0-.3.4zm-24.4 10.7s.4 0 .4.4v-.4s-.4 0-.4-.4c0 0-.4 0 0 .4zm-3 3.4c1 .4 1.6 0 1.5-1.1-.5 0-1.2.7-1.5 1.1zm-4.6 5.3l.4-.4c-.4-.1-.5.1-.4.4zm-4.9 5c.9-.3 1.5-.9 1.9-1.9-.9.2-1.7 1-1.9 1.9zm-128 132.5c2.9 1 10.1-3.8 19.3-11.5-1.7 2-3.4 4-5 5.9 2.2-2.4 4.4-4.9 6.6-7.3 5.3-4.6 11.3-10.1 17.4-16 .2-.1.4-.1.6-.1-.2 0-.4 0-.6.1 22.8-21.9 47.9-49.2 53.5-54.9 15.4-15.7 58.6-47.1 65.5-64.4-1.1.8-2.3 1.5-3.4 2.3 0-1.9 1.9-2.7 1.5-4.2-11.4 3.8-31.9 32.7-40 40.8-13.6 13.6-28.4 24.8-43 36.9-15.8 13.2-67.2 51.7-72.4 72.4zm-9.9 18.7l3.4-3.4c-2.3.3-3 1.1-3.4 3.4zm-.8 2.3c.4-.3.6-.6.4-1.1 0 .4-.4.4-.4.8-.7-.1-.7.3 0 .3zm-9.1 17.1c-.4.4-.4.8-.4 1.1 6.1 0 10.8-7.3 13.3-12.6 0-.9-13.7 12.4-12.9 11.5zm-15.7-38.4c8-6.2 31.6-19.9 27.1-24.4-4-4-20.6 16.8-27.1 24.4zm25.2-42.7c-1.7.6-4 1.9-6.1 3.6.4-.5.8-1.1 1.2-1.7-2 1.7-3.9 3.5-5.7 5.3h.8c.2-.2.3-.3.5-.4-1.4 1.7-2.4 3.6-2.4 5.4 2.3 0 11.7-10.6 11.7-12.2zm21.7-81.1c1.5 0 3-1.5 3-3-1.3-.1-3 1.7-3 3zm-4.6-8.8c1.4-.6 2.6-1.6 3.4-3-1.6.5-2.8 1.5-3.4 3zM1311 395c1.7 1.7 8.8-6.9 8.8-8.8-1.7 0-11.2 6.4-8.8 8.8zm-3.1 60.1c-.4.4-.8 1.1-1.5 1.9 1.3-.4 2.1-1.1 2.7-2.3-.4.1-.8.4-1.2.4zm-10.3-49.5c-1.7 1.7-7.2 5.8-7.2 8.4 0-2.2 15.3-9.9 16.8-15.6-.4.4-.4 0-.4 0-4-.2-7.1 2.2-9.2 7.2zm21.8-64c-.9 0-1.4.3-1.5 1.1.3.1.7-.3 1.5-1.1zm21.3-44.5c.8.2 1.3-.2 1.5-1.1-.6 0-1.5.4-1.5 1.1zm-18.3 32.7c2.1 2.1 28.5-25.7 40.1-37.5-14.3 12.3-28.8 24.3-40.1 37.5zm-25.1 18.7c2.3 2.3 24.8-20.1 24.8-24.8-3.7-3.6-25.2 24.5-24.8 24.8zm-3.8 4.2c1.9 0 2.8-2.7.4-2.7-.4.9-.5 1.8-.4 2.7zm-1.9 26.3c0 6.9 12.6-8 12.6-11.4-5.2 2-8.6 7.4-12.6 11.4zm-3.9 14.4c2.4-.5 3.8-1.8 4.2-3.8-2 .5-3.4 1.7-4.2 3.8zm0-21.7s0 .4-.4.4c1.2.7.6-.4.4-.4zm-18.6 5c4.9-3.3 18.7-13.1 18.7-19.8-3 2.7-18.7 14.6-18.7 19.8zm-12.2 25.9l.8-.4-.4-.4-.4.8zm-6.9 7.2v-.4c-.5 0-.5.1 0 .4zm-18.6 17.5c0 .3 7.9-7.1 8.4-7.6-3 0-6.8 4.9-8.4 7.6zm-3.4 19c3.2-2.9 5.8-5.3 7.2-6.8 6.1-6.2 55.9-46.7 53.7-57.5-25 12.5-41.8 40.7-60.9 64.3zm-9.6-4.9c2.7-.3 4.6-2.3 5-5.3-2.1 0-4.2 3.5-5 5.3zm-12.9 44.6c3.1 3.1 29.7-25.4 29.7-27.4-2.9-2.9-18.3 14.9-19 16.3-3.6 3.6-7.3 7.3-10.7 11.1zm-.8 135.2c-2.6.1-4.4 1.6-5.3 4.6 3-.6 4.8-2.2 5.3-4.6zm-.4-60.2c-2.7.5-4.5 2.7-5.7 5.7h.8c3.6-1 5.2-2.9 4.9-5.7zm-6.4-65.9c3.5-1.2 5-1.4 6.1-5.7 2-1-9.1 4.3-6.1 5.7zm-4.6 77c.6 0 2.3-1.2 2.3-1.9-1.1 0-2 1.9-2.3 1.9zm-1.9 92.1l.4-.4h-.4v.4zm-3.4-177.9c1-.1 1.9-.6 1.9-1.9-.9.4-1.5 1.1-1.9 1.9zm-.8.1h.7c-.7-.4-.7 0-.7 0zm-4.6 109.3c.6.3.9.1.8-.4-.4-.1-.6 0-.8.4zm-.4 16.7c2-.7 3.3-2.8 4.6-5-3.2 1-4.7 2.6-4.6 5zm-3.4-98.6h.4v-.4l-.4.4zm-5.3-13.7s0-.4.4-.4c-.4-.1-.5 0-.4.4zm-.4 121.1c2.3-1.1 2.3-1.1 4.2-4.2-1.5 1.5-3.8 2.3-4.2 4.2zm-.4-15.2c-6.1 4.6-12.3 10.4-16.4 16.4 5.8 0 14-11.6 16.4-16.4zm-1.9-85c-4.2 1.3-6.2 3.4-6.1 6.5 2.5-.7 6.5-3.4 6.5-6.5h-.4zm-3.8-39.6c2.6-.8 3.9-2.2 3.8-4.2-1.3 0-5.1 2.3-3.8 4.2zm-3.8 3.1h.4c.5-.9.5-1 0-.4-.4 0-.4.4-.4.4zm-1.9 13.3c3-1.9 3-1.9 5.7-6.1-2.7 2.3-4.9 3.4-5.7 6.1zm-7.6-3.8c2.5-1.9 4.7-4.2 6.5-6.9-4.6 3.9-4.6 3.9-6.5 6.9zm-21 45.7c5.6-2.8 37.7-29.5 37.7-37.3-8 0-33.8 30.3-37.7 37.3zm-17.1 17.1c1.9 0 6.1-5 6.1-6.5-2.5.1-6.1 4.2-6.1 6.5zm1.1 95.3c-.4.4-.4.8-.4 1.1 1 0 1.5-.5 1.5-1.5-.3.4-.7.4-1.1.4zm-12.9-83.8c2.1 0 9.1-7 9.1-9.5-3.5 1.7-7.1 6.4-9.1 9.5zm5.3 91.8c-1.2.8-2.1 1.8-2.7 3 1.1 0 3.8-3 2.7-3zm-7.2 5.7c-.8.9-1.5 2.2-1.5 3.4 1.3 0 2.3-3.4 1.5-3.4zm-4.6-82.3c2.2 2.2 3-.6 4.6-3-2.3.3-3.5 1.5-4.6 3zm8.8-100.5c1.1-1.1 1.9-2.7 1.9-3.8-3.8 0-10.9 7.2-11.4 11 3.4-2.3 6.8-4.2 9.5-7.2zm4.2-1.6c-2.1.9-3.7 2.5-5 4.6 3.5-.6 5.2-2.1 5-4.6zm8.3-7.6c-2 0-4.6.4-4.6 3.4.1 2.1 5.2-3.4 4.6-3.4zm92.2-94.4v.4c0-.1 1.1-.4 0-.4zm8.4-7.3l-.4.4h.4v-.4zm20.9-21.7l-1.1 1.1c.6-.1 1-.5 1.1-1.1zm13-25.9c.5.1.9-.2 1.1-.8-.5 0-.9.2-1.1.8zm-9.2 16.4c0 .3 1.1-.2 1.1-.8-.8-.1-1.2.2-1.1.8zm-6.4 6.5c2.2 1.4 1.9-1.3 3.8-3.8-1.6.9-2.9 2.2-3.8 3.8zm-9.6 1.5c2.3-1.5 4.6-3.4 6.1-6.5-2.6 1.9-4.1 4.2-6.1 6.5zm-8 8c.6-.1 1.1-.5 1.1-1.1-.6-.2-.9.2-1.1 1.1zm-15.6 17.5c.2-.3 6.2-3.4 3.8-4.6-1 0-5.1 3.3-3.8 4.6zm-22.4 21.7c4.7-3.5 18.3-17.1 18.3-17.9-6.3 2.6-15.8 10.4-18.3 17.9zm-10.3 10.3c3 0 7-6.9 7.6-8.8-2.5 1.3-7.7 8.8-7.6 8.8zm-45.3 19.8c0 3.2 9.9-6.7 9.9-8.8-3.1 0-8.4 6.4-9.9 8.8zm-4.2 29.3l.4.4c7.6-4.4 22.1-19.4 25.9-27-4.6 3.1-26.3 19.6-26.3 26.6zm-2.7 9.9c-2.7 5.3-8.2 8.5-11.4 13.3 1.5.7 16.5-12.5 17.1-14.5 2.2 0 11.9-9.8 16-11.4.4 0 .8-.4.8-.8l-.8.8c0-3.2 9.9-8 9.9-12.2-3.8 3.8-10.7 10.6-14.9 12.9 19.6-24 45.9-51 70.4-70.5-.6 5.9-14.3 15.1-17.9 19.9 3.3-2.2 22.9-18.2 18.7-20.4.1-.1.2-.1.3-.2 0-4.2 11.8-12.3 14.5-14.9-3.6 3.7 2.2 3.9.4-.3 1.7-.7 4.1-.8 4.1-3.6 1.6-.6 2.7-1.7 3.4-3.4-1.6.9-2.4 2.1-3.4 2.9 0-3.1 5.3-5.6 6.9-8.7-19.7 11.5-37.7 36-54.8 52.6-18.3 18-45.6 37.9-59.3 58.5zm-5.7-2.6c0 .2 1.1-.7 1.1-1.1-.4-.1-1.5 1.1-1.1 1.1zm3.8-35.5c.6.6 1.1.5 1.5-.4-.4-.6-.9-.5-1.5.4zm-3.8 4.2c0 .3 1.1-.2 1.1-.8-.4.5-.7.5-1.1.8 0-.3 0-.3 0 0zm-3.1 3.1l.4-.4-.4-.4v.8zm-3.8 13.7c3.4 0 12.3-11.5 13.7-12.9-4.1 2-13.7 7.9-13.7 12.9zm-6.5 28c-4.3 4.4-7.3 5.2-9.8 10.8 2.9 0 20.9-17.1 20.9-21.3-1.7-1.7-11.7 10.8-11.1 10.5zm-6.8-69.1c-2.3.9-3.3 2.3-3 4.2 1.9 0 8-6.5 8-8.4-2.4-.2-4 1.2-5 4.2zm.8-3.1c1.4 0 2.7-3.8-.8-.4.4.4.8.4.8.4zm22-20.6c-3.5 3.5-6.1 8.8-9.5 12.2 4.9-2.4 10.9-13.5 9.5-12.2zm-1.9-8.7c-4.6 0-16 12.1-16 17.1 0 .7 5.3-4.6 6.5-2.3 0 2.8-10.1 7.6-1.9 7.6 0 7.4 3.5-5 8.4-9.9 5.8-4.8 6.8-9 3-12.5zm-12.1 8.4c1.9-.8 2.7-2.3 4.2-4.6-3.2.7-4.8 2.2-4.6 4.6h.4zM1119 366h-.8l.4.4.4-.4zm13-49.1c1.4-2.3 3.2-3.3 5.3-3 .1.7 0 1.3-.4 1.9 9.9-.1-4.9-12.5-4.9 1.1zm14.8-22.1c-1.7-1.9-3.7-1.8-6.1.4-2.4 2.4-16 17.1-16 20.6 2.6-.1 23.9-17.5 22.1-21zm-25.1 46.1c-1.6.7-2.4 1.7-2.3 3 6.2 0 22.7-21.4 27-26.3-3.9.1-24.1 22.7-24.7 23.3zm24.7-27.8c.4-.4.4-.8.4-1.1-4.7-.3-8 2.8-9.9 9.1 4.3.2 7.5-2.5 9.5-8zm1.2-11.8c-1.6 0-3.8 2.8-3.8 4.2 3.3 0 2.2-2.6 3.8-4.2zm-3.8-16.4c.1-.1 15.1-11 11.8-11-1.2 0-11.8 9.4-11.8 11zm-14.9 1.1c3.3 3.3 11.5-9 10.3-7.6-3.4 2.6-7.3 4.6-10.3 7.6zm-4.9 4.6c1 0 1.5-.5 1.5-1.5-.6 0-1.5 1-1.5 1.5zm-3.2 18.5c5.3-4.4 21-16.2 21-21.2.1-2.6-16.5 16.8-21 21.2zM1108 326c1.5-.8 2.7-1.5 3-3-1.5.7-2.6 1.5-3 3zm-3.5 16.6c-3 3.8-4.9 7.3-4.9 9.4 4.5-3.1 9.2-6.6 13.6-10.3-5.5 5.4-12.1 12.6-12.1 14.5 3 0 30.9-28.9 28.6-30.1-4-2-11.4 2.7-17.9 8.7-.1-.5-.3-1-.7-1.5-3.4 4.3-8.1 6.3-10.3 11.4 0 0 1.7-.8 3.7-2.1zm-16.3 35.6c.8 0 1.6-.2 2.4-.6-.3.8-.5 1.6-.5 2.5 6.6 0 22.7-12.7 36.1-26.5 2.8-2.5 3.7-3.1 5-5.3 9-10 15.7-20 15.7-25.6-9.7 5.4-24.2 34.7-34.7 34.7 0-2.8 3-4.8 3-7.2-6.1 0-11.1 9.6-16 12.6-2.4 2.2-11 13.4-11 15.4zm-1.6 208.7c-5 3-9.5 7.6-14.1 13.7 5.8-4.1 10.3-8.3 14.1-13.7zm-6.1 13.4c-.4.4-.4.8 0 .8 0-.1.4-.5 0-.8zm-4.9 106.2c-1.1 1.1-1.5 2.3-1.1 3.8 1.2-.4 7-5.6 5-7.6-1.6 1.2-2.8 2.7-3.9 3.8zm-2.3-11.4s0 .4-.4.8c.9.2 1.1-.1.4-.8zm-8.4-156.9c1.6-1.6-2.7 1.8-3.4 2.3 1.6.2 2.7-.5 3.4-2.3zm-1.5 178.2c-.4.4-.4.8 0 .4.4 0 .4 0 0-.4zm-16.8-12.2c.8.1 1.4-.1 1.9-.8 0 0 0-.4.4-.8-1-.1-1.8.4-2.3 1.6zm2-159.5c-1 0-1.5.5-1.5 1.5.7-.2 1.2-.8 1.5-1.5zm6 81.1c-2.6 1.4-4.5 3.4-5.7 6.1 4.2-3.1 4.2-3.1 5.7-6.1zm-4.9-75.1c2.5-.8 3.1-3.5 5-6.5 1.3-.9-7.4 4.1-5 6.5zm0 171.8c0 .7 10.7-5.5 10.7-10.3-3 0-10.7 6.2-10.7 10.3zm10.3-2.6c.6.6.9.6.8 0h-.4c0-.4 0-.4-.4 0zm1.1-174.1c-3.4 2.3-6.1 5-8 7.2 3.1-1.5 5.4-4.2 8-7.2zm-1.5-4.2l1.1-1.1c-1.1-.4-1.5 0-1.1 1.1zm1.9-9.9c.1-.1-3-1.5-4.2 4.6 1.5-1.5 3.1-3.1 4.2-4.6zm3.8-19.4c-2.4 0-19 13.1-19 16-2.4 1.7-3.6 3.7-3.4 6.1 8.9-5.7 14.9-14.6 22.4-22.1zm-19.4 121.9c-.3.2-.5.4-.4.8.8-.1.8-.5.4-.8zm3.4-213.7c-.7.3-9.9 6.8-9.9 8.8 4.2 2.3 7.5-.6 9.9-8.8zm-6.5 66.3c-1 .3-1.5.9-1.5 1.9 1.2 0 2-1.7 2.7-2.3-.4.4-.8.4-1.2.4zm5-43.5c1.9-1.5 3.8-2.7 5-4.6-2 1.2-3.5 3.1-5 4.6zm4.2-25.5c.4-.3.6-.6.4-1.1-.3.3-.5.7-.4 1.1zm1.5 29.3c.4-1.9 1.1-3 2.3-4.2 1.1-1.1 1.1-2.7 1.1-4.6.3-.2-10.1 8.8-3.4 8.8zm-3.8 4.2c1.9-.8 3-1.9 3.4-4.2-1.1 1.2-3 2.3-3.4 4.2zm0-52.1c-3 0-5.1 4.1-6.5 6.1 2.5-1.3 4.8-3.9 6.5-6.1zm15.2 65.1c1.9 3 13.3-5.7 13.3-11.8-5.7 1.7-10.1 5.7-13.3 11.8zm4.2-29.3c.4-.4.4-.8.4-1.1-2.2-.2-3.5 1.2-4.2 4.2 1.9-.9 2.7-2 3.8-3.1zm11.8 45.3c1.9-1.9-4.2-.8-4.2 3 1.8 0 3.4-1.4 4.2-3zm-2.6 33.9c-2.4 2.4 1.5 1.1 1.5-.8-.8.4-1.2.8-1.5.8zm-13-87.6c.4-.4-.8-1.4-.8.8l.8-.8zm-.7 115.8c1.5-.4 1.9-1.9 3-3-1.5.7-2.7 1.4-3 3zm6-21.4c-4.8 0-10.4 12.7-2.7 5-2.4 2.4 7.6-5 2.7-5zm-.3 7.7c2.4-1.4 9.5-5.7 9.5-9.5-5 3.7-6.1 4.9-9.5 9.5zm14.4-35.5c-.3-.5-.5-.5-.8 0 .5.4.8 0 .8 0zm-1.1 104.4c1.6 0 5.3-3.1 5.3-5-1.1 0-5.3 3.6-5.3 5zm4.9-70.8c-1.4 0-3 1.8-3 3 2.1 0 2-2 3-3zm-1.1-18.3c.4-.4.4-.8.4-.8-.4.2-.5.4-.4.8zm1.5-103.6c-6.1 0-.7-5.7-.7-9.9h-.8c-2.3 1.5-27 24-27 28.2 2 2 19.5-17.5 22.1-17.5.3 0-17.5 21.5-17.5 25.5 5.5-3.7 16.3-22.2 22.5-23.2.9 3.7 1.3-2 1.4-3.1zm1.9-32.8v-.4c-3.4 2-2.7 3.2 0 .4zm-7.2-12.6c0 4 18.7-9.1 14.1-13.7-2.7-1.8-11.3 10.9-14.1 13.7zm-8.8 20.2c5.4-2.3 21.7-15.5 21.7-23.6-2.4 0-21.7 18.8-21.7 23.6zm6.1 2.7c-.8-2.4-1.9 0-3.4 1.5 1.1-.4 2.7-.4 3.4-1.5zm-1.9 4.6c-1.9 1.1-3.3 2.7-4.2 4.6 3 0 3.6-3.2 5.3-5-.3 0-.7 0-1.1.4zm-9.9-168c.7.2 1.4.5 2 .7-.4.8-.1 1.3.6 1.4 0 .1.1.1.1.2.1-.1.2-.1.3-.2.6-.1 1.4-.5 2-1.2 1.3-.8 1.2-1 .9-1.6.1-.4.2-.9.2-1.5-.2.1-.4.3-.7.4-.5-1.7.5-3.8 1.8-5.7-2.1 2.1-4.3 3.7-5.8 3.7.1 1.1-1.2 2.6-1.4 3.8zm-1.5.4c.3-.2.5-.4.4-.8-.8.4-.8.4-.4.8zm-1.9-9.9l.8-.4-.4-.4-.4.8zm9.5 96.3c-1.3-1.3-8.1 7.4-8.8 8.8-4.4 4 8.8-4.5 8.8-8.8zm-18.6 20.2c1.1-.5 1.9-1.4 2.3-2.7-1.4.6-2.2 1.4-2.3 2.7zm1.9 9.2l-.8.8c.5.1.9-.2 1.1-.8h-.3zm-3.1-29.7c1.3-.1 3-1.1 3-2.7-1.2 0-2.6 2.7-3 2.7zm-1.9 96.3c4.3 2.1 18.8-20.1 19.8-19-4.7-4.7-17.9 19-19.8 19zm17.5-7.2c-.4.4-.4.8-.4 1.1 1 0 1.5-.5 1.5-1.5-.3 0-.7 0-1.1.4zm-19.8 19c.4 1.1.8 1.9 1.5 2.7 9.8-9.8 22.6-15 30.9-27.4-10.9 3.4-15.3 16.8-25.5 20.2 3.4-3.8 7.2-6.9 9.5-11-5.1-.1-15.7 14.4-16.4 15.5zm-1.9-69.3c2.2 0 .8-1.4.8-.8-.4.1-.4.4-.8.8zm0-56.7c-1.1 1.1-1.9 1.9-3.4 3.8 1.6-.9 2.7-2.2 3.4-3.8zm-10.6-33.6v1.1c2.5 0 10.3-6.4 10.3-9.1-2.2-2-8.5 6.2-10.3 8zm-1.2 205.3c.4 0 .4 0 .8-.4-.4 0-.6.1-.8.4zm-2.3-201.8c0 2.3.8.7.8 0h-.8zm-.7 208.3c.7 0 1.1 0 1.1-.8-.4.4-.8.8-1.1.8zm-7.7-29.3c-.4.4-.4.8-.4 1.1v-.4c-2.7 1.9-3 5-3 8 3.8-2.4 7.2-8.3 8.8-12.6-2.4-.2-4.2 1.1-5.4 3.9zm.4-136.4c-5.7-.2-9.7 3.8-11.8 11.8 3.9-3.8 11.8-6 11.8-11.8zm-11.4 101c1.9-1.9 4.6-3.4 6.1-6.5-3.4 2.3-3.4 2.3-6.1 6.5zm-.8-128.4c.4.4.8 0 .4-.4 0 0-.4 0-.4.4zm0 8.8l.4.4c2.7-2.2 5.1-4.6 7.2-7.2-3.4 3-5.3 4.9-7.6 6.8zm-6.4 3.4l1.1-1.1c-.6-.2-1 .2-1.1 1.1zm-3.5 57.5c.5.2.9.1 1.1-.4-.3 0-.7.1-1.1.4zm.8 216h.4v-.4l-.4.4zm-5 18.6c9.6-6.4 15.1-14.3 23.2-22.5-5.3.1-20.5 20.1-23.2 22.5zm21.8-7.2h.4c.4-.4.4-.8.4-.8-.3.3-.6.5-.8.8zm-35.5-263.6c6.2-3.1 12-12 16.8-16.8-6.1 4.6-12.2 10.7-16.8 16.8zm6.1 48.4c.4 0 .8-.4 1.1-.4 0 0 0-.4.4-.4-.7-.7-1.2-.4-1.5.8zm-17.9 13.3h.4v-.4l-.4.4zm-5.5 279.2c1.3-1.5 2.8-3 4-4.2l-.4-.4c-1.8 1.9-2.9 3.5-3.6 4.6zm-7-310.4c1.6.2 2.6-.8 3-3-2.2.4-3.2 1.4-3 3zm-43.8 24.8c.4.1.5 0 .4-.4-.4 0-.4 0-.4.4zm-14.5 62l.4-.4-.4-.4v.8zm-9.2 272.7c0 .4-1.9.7-1.9 1.9 1 .1 1.9-.6 1.9-1.9zm4.2-311.5c1.5-1.5 2.9-3.2 4.2-5-13.6 10.2-7.1 9.3-4.2 5zm2.3 41.1c-.3.9.1.3.4 0h-.4zm-3.4 370.4c-.1.2-.2.4-.4.6 0 0 .4 0 .4-.4v-.2zm7.6-9.3c-2.1 1.5-7.2 5.1-7.2 8.4 1.7-1.2 7.2-6 7.2-8.4zm3.1-367.9c-.8-.2-1.3.2-1.5 1.1.8.2 1.3-.2 1.5-1.1zm20.5 243.3c-3.5 1.3-5.7 3.4-6.5 6.5 3.3.2 5.4-1.9 6.5-6.5zm4.6-91.7c-1 .1-1.6.6-1.9 1.5.7-.4 1.4-.9 1.9-1.5zm10.3 181.3c-.4 0-.8 0-.8.4h.4c0-.1 0-.4.4-.4zm6.4-418.6c-9.7 2.8-32.7 32-43.8 43 17.1-9.2 28.4-30.4 43.8-43zm-.3 412.1c1 .1 1.4-.3 1.1-1.1-.9-.1-1.3 0-1.1 1.1zm0-331c0-1.4-3.4 1-3.4 2.7 1.5 0 2.6-1.2 3.4-2.7zm-3.5 323l.4-.4c-.3-.1-.6 0-.8.4h.4zm.8 10.3s0 .4-.4.4c.4.1.5-.1.4-.4zm3 65.1c-.2.2-1.3.9-2.3 1.9 1.2-.1 1.9-.8 2.3-1.9zm.8 6.1c4 4 5.7-5.6 6.9-6.9.6-.7-10.5 6.9-6.9 6.9zm11.4-29c2.1-2.1-11.4 8-9.1 8 3.7-1.7 6.7-4.4 9.1-8zm-6.1-62c.8-.4 1.1-1.5.8-1.9-.4.4-1.1.8-1.5.8-.2.6 0 1 .7 1.1zm6.9 79.9c-6 3.3-.5 2 0 .4.4 0 .4 0 0-.4zm5.3-271.9c-5.6 0-15.3 14.3-18.3 19.4 5.7-4.2 9.5-8.4 13.3-12.2 3.5-1.8 5.2-4.2 5-7.2zM980.4 772c8.1-8.1 15.9-16.7 24-24.8-11.9 5.9-26.5 22.8-35 33.5 4.5.1 8.6-5.1 11-8.7zm.7-69.7c3.5-1.9 7-5 9.5-8.4 1.2-.8 1.7-1.8 1.5-3-.9 0-12.2 10.2-11 11.4zm20.2-20.1c-1.3 0-3.1 3-3 3 1.2-.4 3-1.6 3-3zm-22.1 103.2c-1.1.1-1.9.8-2.3 1.9 1.1 0 1.5-.8 2.3-1.5v-.4zm.8-3.1s17-15.5 16.8-15.2c.4-.4.4-.8.4-1.1-5.8 1.9-17.2 11.1-17.2 16.3zm1.9 8.4s-.4 0 0 .4l.4-.4s-.4-.4-.4 0zm2.3 3.8c-1.3.2-2.2 1-2.7 2.3 1.1-.8 1.5-1.1 2.3-1.5 0 .4 0-.4.4-.8zm21.3-18.7c-2.4 1.4-8.1 4.4-9.5 7.2.4 0 .4.4.4.4 3 0-2.3 6.9-2.3 8 1.3-.8 15.2-15.6 11.4-15.6zm2.7-20.5c-2.5 1-4.4 2.8-5.7 5.3 2.8-1 4.7-2.8 5.7-5.3zm3 61.3s0 .4-.4.4c.4.1.6 0 .4-.4zm6.1-81.9c-.3.2-.5.4-.4.8.4-.4.8-.8.4-.8zm1.5-136c-2.8 0-41.9 34.8-41.9 40.8 9.4 0 34.8-33.5 41.9-40.8zm2.7 206.5c-.5 0-1.1.5-1.1 1.1.6.1 1-.3 1.1-1.1zm1.9-47.6l-2.3 2.3c1.7-.4 2.4-1.2 2.3-2.3zm-1.5-15.7c.3-.2.5-.4.4-.8-.8.5-.8.8-.4.8zm2.3-13.7s-.4 0-.4-.4v.8l.4-.4zm3.4-149.3v-1.1c-1.9 0-6.1 4.6-6.1 6.5 1.9 0 5.5-4.2 6.1-5.4zm.4 188.6c-.9.1-1.2.5-1.1 1.1.8-.1 1.2-.5 1.1-1.1zm8.4-10.7c-.7.4-6 5.7-5 5.7 2.7.3 4.4-1.5 5-5.3.3 0 .3 0 0-.4zm.3-177.9l-6.5 6.9c2.2-.2 6.5-4 6.5-6.9zm-.7-38.4c0 .4-.4.4-.4.8.4-.1.8-.5.4-.8zm8-21.4c-7.4 0-28.2 24.4-32 30.1 0 .3 32-25.2 32-30.1zm-5 214.1c-.5-.1-.9.2-1.1.8.4-.1.8-.8 1.1-.8zm0-179.8c-.4 0-.4 0-.4.8.4-.2.5-.4.4-.8zm13 180.2c4-4 7.6-7.6 11-12.2-2.3.4-3 2.7-5.3 3 0-.8 0-1.5.4-2.3-7.1 0-14.4 15.6-15.6 20.9 3.8.1 7-7.6 9.5-9.4zm19 25.1v-.8c-7.3 3.6-11.6 11.6-17.1 17.1 6.2-4.9 11.9-10.4 17.1-16.3zm7.3-8.4l-.4.4h.4v-.4zm7.2-41.5c.3 0-17.3 14-14.9 15.2 6 0 11.8-10.9 14.9-14.9.4.5 0 .1 0-.3zm3.4-12.2c-4.4-4.4-5.7 1.9-9.5 5.7 3.6-3.6 3.4-2.9 3.4.4 2.7-1.9 4.6-3.8 6.1-6.1zm.4-91.8c-.1-.5-.4-.8-.8-1.1-3 1.1-5 3.4-6.1 6.5 3.3-.2 5.6-1.8 6.9-5v-.4zm3.1-96.7c-.4 0-.4 0-.4-.4-3.9 4-5.4 8.1.4.4zm4.9 9.9c-.6 0-1.2.3-1.5.8.8.8 1.5-.3 1.5-.8zm1.5 179.8c-1.6 0-.4.9-.4.4.4-.1.4-.1.4-.4zm24-41.9c-8 5.3-20.7 19.9-26.3 27.8v.8c5.7-.1 26.3-21.3 26.3-28.6zm.8-1.6s-.4 0-.4.4v1.1c0-.7.4-1.1.4-1.5zm0-10.2s0 .4-.4.4c.4.1.5-.1.4-.4zm31.6-106.7c-12.6 9.3-24.2 21.9-35.4 33.1-6.4 6.5 39-29.5 35.4-33.1zm-89.5 259.4l.4-.4c-.4-.1-.5 0-.4.4zm-2.7 2.7c-1 0-1.9.9-1.9 1.9 1.1 0 1.9-.9 1.9-1.9zm8-4.2c-2.4 2.4-6.5 6.3-7.6 9.5 3.4-2.7 6.1-5.3 7.6-9.5zm9.2-1.9c-.4.4 0 .4 0 .8v-.8zm22.4-3.5c-.8 0-.8 0-.4.4l.4-.4zm6.9-12.1l-.4-.4c-1.7.6-2.5 1.6-2.3 3h.8c.4-1.1 1.1-1.9 1.9-2.6zm3.4-17.2c.8-.8 1.1-1.5 1.5-1.9-7.2 2.4-33.9 26.5-33.9 34.3 12.1-6 23.7-22.7 32.4-32.4zm2.7 10.7c-1.1.4-1.9 1.1-2.3 1.9 1.1 0 1.9-.8 2.3-1.9zm19.8-13.4c-3.4 0-15 13.8-15.2 14.1 2.5 0 6.1-6.2 6.1.4 2.6-.8 9.1-11.9 9.1-14.5zm6.1-6c-.6.1-1.1.5-1.1 1.1.3.4 1.1-.8 1.1-1.1zm27-30.5c-.3.2-.5.4-.4.8 0 0 0-.4.4-.4v-.4zm9.2-9.2c1.9 0 4.6-2.1 4.6-4.2-.1-1-6.3 2.6-4.6 4.2zm11.4 2.7c-.8-.2-1.3.2-1.5 1.1.8.3 1.3-.1 1.5-1.1zm3.8-4.2l-.4.4.4.4v-.8zm1.5-5.3c-.4-.4-.4-1.1 0-1.5-4.4 0-13.7 10.2-13.7 14.5 0 2.7 15.5-14.8 13.7-13zm39.3-49.9c-1.4 0-2.3.8-2.3 2.3 1.4-.7 2.3-.5 2.3-2.3zm70-68.6c-2.9 0-14.7 12.6-16 16 2.4-1.6 16-11.4 16-16zm3.1 4.6c-.8-.2-1.2.1-1.1 1.1.6.1 1-.2 1.1-1.1zm4.2-11.8c-.8-.2-1.2.1-1.1 1.1.9.1 1.3-.3 1.1-1.1zm1.1 9.1c2.9-2.7 5.7-5.5 8.5-8.4-5.6 4.9-8.9 8-8.5 8.4zm1.3-5.5c.1-.1 0 0-.1.2.2.1.5.3.7.7.1.1.1.2.1.3 2.1-3.3 10.3-9.1 12.5-10.6-2 2.2-4 4.3-6.1 6.4 20.9-18.6 73.3-62.7 77.5-76-27 27-60.1 49.8-84.6 79zm91.7-85.4c.4.1.8.2 1.1-.1 1.9-1.5 3.5-3.3 4.8-5.4-2.1 1.6-4.1 3.6-5.9 5.5zm14.4-14.4c1.5-1.4 3-2.7 4.6-4-2.5 1-4 2.3-4.6 4zm-293.6-129.7l.3-.3c1.7-1.8 3.4-3.6 5-5.3.1-.3.3-.5.5-.9-4.1 1.4-6 3.5-5.8 6.5zm-54.7-134.1c.1.5.3.9.6 1.4h.4c.9-.5 1.5-.9 2-1.2.4-.4.7-1 .9-1.6-.1-.3-.3-.6-.4-1-1.6.4-2.8 1.2-3.5 2.4zm348.3 263.8c-1.3 1.2-2.5 2.3-3.7 3.6 1-.7 2.1-1.2 3.3-1.6 0-.7.2-1.4.4-2zM160 481.4c2 0 7-6.3 8-7.6-3.3-.2-5.7 1.9-7.2 6.1-.6.4-.9.9-.8 1.5zm940.5-113.3c-4.2 2.9-8.6 5.7-10 9.4 3.2-1.5 6.7-5.5 10-9.4zM1411 492.4c1.5-1.8 3.2-3.6 4.8-5.3-1.9 1.2-3.5 3-4.8 5.3zm-712.9 79.3c3.1-2.2 6-4.9 8.8-7.8.8-1 1.5-1.9 2.1-2.7-3.6 3.6-7.1 7-10.9 10.5zm-54.9 50.5c.6-.8.8-1.7.1-2.5 2.2-2 4.2-4.2 6-6.5-3.6 3.5-7.3 7-10.9 10.5 0 1.4 2.3.8 3.8-.4-4 3.9-7.6 7.7-7.6 7.7.6-.6 1.1-1.3 1.5-2.1-3.4.8-4.6 4.7-2.5 3-26.6 24.6-53 49.5-79.8 73.9 23.5-20.8 66.1-57.7 101.3-90.1-1 .4-2 .6-3 .6 2.1-4.4-3.4.6-8.9 5.9zm29-22.6c6.9-6.6 13.3-12.8 18.8-18.4-1.1.5-2 .8-2.8.8-4.5 3-10.1 10.5-16 17.6zm17.9-26c-2.9 2.9-5.9 5.9-8.9 8.8 5.9-5.6 11.8-11.3 17.8-16.9-3.4 2.2-6.3 4.9-8.9 8.1zm-8.9 8.8c-1.9 1.8-3.7 3.5-5.6 5.3 2-1.7 3.8-3.5 5.6-5.3zm-33.7 28.7l2.7-2.4c15.7-13.3 30.2-28.3 45-42.7-8 7.5-47.7 33.9-47.7 45.1zm-4.2 3.9c-3 3-6.1 5.9-9.2 8.8 3.9-2.2 9.2-3.8 9.2-8.8zm4.2-4.5l-.4-.4c-1.9 1.9-3.8 2.3-3.8 4.8v.2c.5-.1 1.2-.5 1.9-.9 1-.5 1.7-1.2 2-2.1v-.2c.1-.3.2-.6.2-.9.1-.1.1-.3.1-.5zm-16.8 16.6c1.1-1.1 2.3-2.2 3.4-3.3-1.5.9-2.8 1.9-3.4 3.3zm477.7-266.4c-2.3 1.1-5 4.2-7.8 7.4 3.2-2.2 6.3-4.5 7.8-7.4zM630.7 625.4c-1.8.9-3.1 2.1-3.8 3.8.7.1 1.3 0 1.8-.2-16.5 15.8-33.2 31.4-49 47.5 6.9 0 48.4-38.6 57.1-50.9-1.6 2.4-3.8 3.5-6.4 3.3 0-.7.1-1.2.4-1.8-.3.2-.5.5-.8.7.3-.6.6-1.4.7-2.4zm72.4-60.9c-3 1.9-3 1.9-5.3 5.7 3.7-1.1 5.5-3 5.3-5.7zm408.7-229.7c-2.7 2.5-5.2 5.2-7.2 7.8 3.2-2.1 7.4-5.3 7.2-7.8zm1.4 6.8c2.4-2.1 4.8-4.2 7-6.4 1-1.2-2.7 2.1-7 6.4zM454.4 803c-1.1 1.5-15 8.9-11.1 12.8-2.7 2.7-6.7 4.7-11.6 6.2H319.8c1.6-1.7 3.2-3.4 4.7-5-4.6 2.3-9.6 3.9-14.9 5h-75.4v-.4c-3.5 0-7.2.3-10.9.4h-5.4c-.5-1.5-4.2-1.9-4.7 0h-26.7c1.6-4.8-7.9-5.1-6.2 0h-20.8c-.3-1.1-1.1-1.9-2.2-2.4-.5 1.4-1.3 2.2-2.4 2.4h-.8c7.4-9-13.7-8.9-6.3 0h-26.3c4.8-2.7 2.6-.8 9.5-8.8-3.1.5-5.5 2.3-7.2 5.3v-2.3c.4 0 .4-.4.8-.8-1.9-1.3-11-4.7-11 1.1v-.4l-.4.4h.4c-.6 2.6.1 4.3 1.9 5-.1.1-.1.3-.2.4h-6.7c9.6-9.6-6.7-.2-6.7 0h-8.1c1.8-1.7 3.4-3.5 5-5.4-2.2 1.1-4.8 4-6.6 5.4 2.4-3.5-6.4-.6-7.8 0 1.1-1.3-.7-2.5-.7-3.9 7.2 1.6 10-1.3 8.4-8.8.3 0 6.9-5.2 8.7-7.3 7.2 2.1 9.6-.8 7.3-8.7 2.1-1.5 3.9-3.3 5.5-5.2-2.6 1.2-5 2.7-6.6 4.3-7.7-5.1-21.5 8-30.6 15.5.6-1.1.9-2.3.8-3.6-4.4 2.3-7.9 6.7-11.8 9.9 2.1-2.1 20.5-28.2 12.6-20.2 0-.4 0-.8-.4-1.1 1.6-1.9-5-13.8-10.8-10.2-.1-.4-.4-.6-.6-.9l-.8.8c.4.2.7.3.9.4-1.3.9-2.5 2.1-3.6 3 3.8-3.8 1.1-6.6 1.1-10.7-.4 0-.8 0-1.1.4-4.1-12.2-22.1 2.1-9.5 8.4-2.3 2.3-5 4.6-7.2 6.9-5.1-15.4-24.3 4-9.9 8.8-2.4 2.1-4.7 4.2-6.9 6.5-6.3-19-27.6 9.5-7.2 9.5-1.5 1.5-2.9 3-4.2 4.6-1.2-.1-1.9.4-1.9 1.5h-2.3c-.6-5.5-4.1-8-10.3-7.6 1.8-1.1 3-2.7 3.4-4.6-2.4 0-4.6-3.7-6.1-.8 0-.3.6-8.1 0-8.8l2.7-2.7c9.1 4.6 12.9-11.2 16.4-16.4 11.9 8.9 12.5-7 10.3-11.8 3.3-5 .6-6.9-1.9-1.9-.8-.4-1.5-.4-2.3-.8 2.6-2.6 8.4-7.5 8.4-11.4 0 3.1-11.5 9.3-15 13.5 0-1.1.5-2 .5-2.8-1.5 1.5-3.4 2.3-5.7 2.3 15.2-13.5-10.5-9.9-13.3-9.9 2.4-4 4.9-13 5.7-22.4 5 3.8 15.8-1.6 10.6-10 3.2-2 4.6-4.5 4.2-7.6-2.1-4.2-11.7 8.3-2.7 2.3-.9 1.2-2 2.4-3 3.4-3.8-3.3-7-2.6-9-.4-.5-6-2.1-11.3-5.1-14.9H1c.2-4.2 2.3-6.8 5.3-9.9 0 15.7 22.4-2.2 8.4-6.9 3.4-3.4 6.2-7.3 9.5-10.7-4.6 11.5 19.9 8.9 10.3-2.3-6.8-8-28.3 15.7-33.5 20.9v-13.7c-.3 0-.6-.1-.8-.2v-6.9c1.4-5.8 4.7-13.2 5.7-14.2-.8-.8-.6-11.8-5.3-2.3 1.1-4 4.3-18 0-19.4V620c3.9-.2 5.3-2.5 4.2-6.9.9-.8 1.5-1.8 1.9-3-1.5.8-2.7 2.6-4.2 1.1-.8.9-1.6 1.7-2.3 2.5v-.7c7.3-8.7 18.5-21.7 12.9-16.2-4.3 4.2-8.9 8.4-13.1 12.6 1.6-3.4 4.6-5.8 7.2-9.1-3 .5-5.4 2.2-7.2 5 1.3-2.5 4.4-7.8 5.3-10.7 0-3.6-4.9 1.7-5.3 1.9v-9.9c5.9 5.9 7.8-11.2 0-5.3v-15.4c2.7-9.3 10.4-15.8 17.2-25 .4-.3.7-.7.7-1v.3c0-.3.1-.6.4-.8H18c0-.2 0-.4.1-.6.9.1 7.6-9.5 2.1-4 10.2-14.5 9.1-4.9 16.4-12.2 0 4.1 8.3-3 1.1-3 1.5-5.2-1-11 5.3-11 2 .5.6 3.5 1.1 5 3.6-2.3 6.7-5.1 9.5-8.4-4.1 8.1 8.2-4.6.4-.8 5.3-5.3 17.8-19.7 31.9-34.4.1-.1.3-.2.3-.4 18.4-19.1 39.4-38.4 50.8-38.4 0 6.6-11 9.3-11 14.5 3.2 0 11.5-11.9 14.1-14.5.8.3 1 0 .8-.8-.3.3 8-12.2 13.7-12.2 2.2 0-25.2 27.6-25.9 28.2-16.9 16.2-40.2 34-52.2 52.9 16.6-14.8 31.4-31.3 48-46.1 1.4 1.4 25.4-25.9 29.7-25.9 0 2.8-8.1 8.3-9.9 11 .3-.2 13.5-6.3 12.2-7.6 4.9 4.9-14.1 14.1-14.1 19 1.7 1.7 13.5-5.5 16.6-8.6-.5 2-2 4.1-3.2 5.4-.1 0-.1 0-.2.1-.9.2 1.8 2.6 1.5.5 2.9.4 11.8-11.9 15.7-13.8.7 1.2.6-.4.8-.4h-.4c5.4-2.7 31.7-33 28.6-23.6.9-.5-28.5 33.8-38.1 41.5-.1 2.3 2 .4 3.4.4.9 0-8.7 9.9-5.3 9.9 2.5.6 6.8-5.7 10.3-8 .2 1.6-.3 3-1.5 4.2 4-1.3 3.2 2.1 1.7 5.1l-.6.6h.3c-.9 1.8-1.9 3.3-2.2 3.5.1.6.5.9 1.1 1.1-9.2 9.2-20.6 20.8-27.8 31.6 5.4 0 9.6-10.7 14.5-12.2-3.9 4.9-8.3 9.6-12.1 14.6 7.8-7.3 28.1-23 28.1-22.6-4.1 3.9-7.9 8.1-11.4 12.6 14.4-15.2 29.8-19 40-30.9.5-.1 19.5-6.8 18.3-8-4.3 4.3 18.3-18.3 15.2-18.3-3.5 3.1-11.8 8.8-16 12.9 1.2-2.5 25.5-28.6 31.6-25.5h-.4l.1.1c-1.2.6-2.4 1.9-2.4 3.3 1.6 0 2.8-.7 3.4-2.7 3 1.5 2.5 4.1-.2 7.5-4.6 2.3-10.7 8.5-15.2 13.4-15.6 11.8-36 25.4-36 32.5 0-.7 24-17.9 26.7-20.6-2.5 10.2-33.9 37.4-31.2 42.7 0 .8 28.3-29 25.1-16.4 8.6-2.5 42.1-32 30.1-27-4.3 5-11.1 11.3-16.8 15.2-.6 1.1-2.6 3.4-4.2 3.4 6.1-8.7 14-15.9 22.5-21.7 0-2.3-2.5-.4-3.8-.4-.8-.8 6.3-7.6 9.4-10.4 0 .1 0 .2-.1.3-.2.4-.2.9-.2 1.3.4.1.5 0 .4-.4 2.7-.7 3.6-2 2.7-3.7 12.1-11.1 8.3-9.3 8.3-2.7 1.9-.8 2.7-3 5-3-1.5 2.9-2.9 5.7-5.3 7.6-4.6 4.2-19.3 17.6-19.4 23.6.5-.8 11.8-9 11.8-9.1 0 14.7-31.9 39.5-56.4 59.8-4.5 2.3-5.1 3.2-8.4 6.5-.2.2-.2.5-.1.7-7.1 6.2-13 11.7-16.3 16.1v-.4c-2.7 0-4.7 4.8-2.7 3.8 3.3-1.7 12-15.4 16-11.4 3.8 3.8-8.2 14.1-8.8 14.8-8.9-8.1 2.8 12.2.5 1 3.4-2.2 9.6-8.3 12.5-11.3 0 5.6 7.5-2.7 2.3-2.7 3.1-1.5 5.8-3.5 8-6.1-2.2-2.2 5.6-6.7 7.2-8.4-4.1 8.1 8.2-4.6.4-.8 5.5-5.4 11.1-10.8 16.7-16.1.3 3.5 5.6-1 2.1-2 2.6-2.4 8.1-7.4 15-13.6.1.3.3.6.5 1.1 2.3 2.3.7-.4-.2-1.4 20.4-18.2 52-45.7 52-43.5h-.4v.4h.4c0 2.9-1.7 6.4-4.6 10.3 4.7-3.6 9-5.7 12.2-5.7-.1.9-.3 1.8-.8 2.7.4.4 1.1.4 1.9 1.1-1.4 1.4-11 7.1-8.4 8.4-1.3 2.9-3.4 4.5-6.1 5v-.4s0 .4-.4.4h.4c-6.6 3.3-24.1 16.7-41 32.1 4.6-5.1 10.1-11.4 15.8-17.7-15.3 12.8-31.8 25.2-38.4 31.9-12 12.2-27.7 26.6-36.2 40.6 5.1 0 15.6-9.3 25.8-19.7-3.8 5.4-6 10.1-6 13.6 1-.9 2.2-1.3 3.4-1.1 0 1.9-10.2 7.8-7.6 9.5 7.7 7.7 22-21.7 21.7-21.7-1.3 1.4-3.9 3.8-6.1 3.8 5.2-5.2 12.3-10.8 19.9-16.6l-.4-.4.4.4c5.9-4.6 12.2-9.3 18.3-14.1 1.4 1.3 1.2.6.5-.4 6.1-5 12-10.1 16.9-15.3l-.4-.4.4.4c5.3-5.6 9.5-11.3 11.8-17.1-2 1.7-6.5 5.2-11.5 9.3 11-9.4 21.4-18.1 20.2-19.9 3-2.9 11.2-5.2 14.7-7.8-3.7 4.4-13.9 16.4-24.4 28.3 10.4-8.3 20.3-15.3 23.2-16.8-6.9 13.8-64.4 73.1-71.6 73.1-.8 3.5-1.9 7-3.4 10.3-.1.1 13.6-10.9 16-11.8 3.1 0-.7 4.2-1.7 5.2 1.9-1.3 3.9-2.5 5.9-3.7.2-.3 13.5.7 16-.2 14.7-5.2 26.1-21.2 38.1-30.3-1.5 3-3.4 5.7-5.5 8.2 1.3-.9 2.1 0 .9 4.8 13.1-6.6 22-27.1 35-34.7 0 4-20.7 22.9-21.7 23.6 7.5-3 20.4-22.8 26.2-22.8-2.2 0-10.3 15.9-12.5 18.3 2-1.6 6-6.6 7.2-5.4 0 0-7.9 9.9-14.6 16.7 19-16.7 68.2-61.7 71-61.7 3.1 0-6.9 8.2-7.9 12.2 3.4-3.7 20.8-19.5 22.3-23.2-1.5 6.4-7 13.4-13.6 17.9-.6 0-3.8 3.3-8.4 8.3-.2-.5-.4-1.1-.7-1.7-2 2.5-5.8 4.7-5.8 8.2 0-.2.5-.4 1.2-.6-11.5 13-27.4 31.8-36.9 42.6-.6.5-1.9 2-2.5 2.8-.8.9-1.5 1.7-2.1 2.4.6-.6 1.5-1.6 1.5-1.5 2.1 1-1.9 4.1-1.9 2-.2.2 0-.1.4-.4-.8.9-1.5 1.6-2.1 2.2-.1-.2-.4-.5-.6-.7-1.1 2.2-5 3.9-6.5 5.9-4.3-2.8 4.1-3.2 1.6-7.1-9.2-9.2-7.9 10.4-8.2 11-.3-.7-.9-1.1-1.7-1.1 0 .2-.6 3.3 1 2.1-4.5 5.8-5.5 9.5-7.8 14.2 2.2 0 5.1-1.6 6.5-3 .6.5 1.1 1.2 1.5 1.9-.5-.5-5.3 10.2-5 9.5 11.5-9.7 36.7-42.1 54.5-43.8 0 3.7-30.1 29.7-27.8 32-5 5-10.8 10.4-15.6 15.2l.2.2c-3.2 2.7-14.3 12.9-14.3 15 .8-.4 1.5-.8 2.3-1.1-2.6 2.6 5.4-.8.4-.8 7.2-4.8 12.7-12.3 18.7-18.3-.4 1.1-1.1 2.3-1.1 3.8 1.6-2.4 3.6-3.4 6.1-3-1.1 1.9-1.9 3.8-3 6.1 4.5-4.5 9.4-9.7 14.9-11.4.2 2.2 0 4.4-.8 6.5 3.4-1.8 7-2.7 10.7-2.7-4.2 5.2-9.5 10.8-14.1 14.9h.4c-2.1 4.2-5.3 6.4-9.5 6.5-4 2-7.3 2.3-5.7 5.3 4.6-2.3-26.3 33.2-33.1 40-1.9-.6-2.5 0-1.9 1.9-.4.4-.8 1.1-.8 1.9-4.6 3.5-9.5 7.6-13.7 11.8 0-6-5.9 3.3-2.1 2.3-2.3 2.6-6.1 7.9-4.4 9.5-.2-.2 20.6-17.9 20.6-23.6.7.1 1.3-.2 1.9-.8 0 .5.1 1 .4 1.5.2 0 .5.1.7.1-.5.6-7.1 5.8-5.2 6.6-.1.1-.1.3-.1.5.1-.1.3-.2.4-.3 2.7.8 5.6-3.6 6.7-6.4 6.5-7.1 12.7-15.4 21.4-19.1 0 3-6.4 9.6-8 10.7-.1-1.1.1-2.1.8-3-3.5 1.2-5.2 7.2-5.3 9.9 8-5.3 14.6-13.4 21.3-20.2 1.1-1.1-1.5 3.6-1.5 4.2h.7c-1.1.8-1.6 1.8-1.5 3 2 .2 3.3-1 4-3.5.7-.3 1.4-.7 2-1.2-4.3 4.9-8.4 10.2-10.8 15.3-.1 0-.2.1-.1.3-1.2 2.7-1.9 5.3-1.9 7.8 1 .1 1.9-.3 2.7-1.1 4.7 7.1 2.3-5.7 5-5.7 0-3 5-5.3 5-6.9h-.5c2.7-2.7 5.9-4.7 9.7-6.1-3.5 3.7-6.7 7.6-9.5 11.8 5.9 2.9 27.5-26.3 29.3-28.6 1.4-1.7 6.7-8.1 12-13.2.2-.1.5-.3.6-.5 1.5-1.5 3.1-2.8 4.5-3.9-.1.1-.2.3-.3.4.4-.3.7-.6.9-.9 2.8-2 5-2.7 5.9-1 1.9-1.6 19.9-18.6 21.7-16.8-1.2 1.5-2.3 3.2-3 5.3l-.4.4h.4c0 4.3-6.1 11.2-13.2 17.9-1.8-1.6-5.1-2.5-5.1 3.8l.6.3c-7.1 6.3-14.3 12-17 14.6-12.6 12.3-55 43.5-72.6 66.3-.8.3-1.4.4-1.7 1.5l.3.3c-4 5.5-6.4 10.5-6.4 14.5.4-.4.8-.8 1.1-.8 0 2.3 4.4-.1 2.3-1.1 4.9-4.9 9.7-10.2 14.6-15.2.1.3.3.7.6 1.5 2.6 2.6.3-1-.5-1.6 5.5-5.6 11.2-10.8 17.8-14.7-.7 1.9 3.3.2 1-.6.2-.1 15.9-7.4 12.9-10.4-1.7.8-3 3.4-5 3.4-6.7-6.7 42.5-39.1 31.2-27.8 12.2-6.1-5.9 13.8-6.9 13.3.3-1 .7-2 1.3-3-1 0-12.7 5.5-12.7 7.6h3.8c-1.9 3.7-8.6 13.8-14.1 19.5-.6 10.7-21 29-37.2 45.2.7-1.1 1.2-2.1 1.4-2.2-.4.4-.8.8-1.5.8-3.3.3-5.2 2.3-5.7 6.1l.7.7c-6.1 6.4-11.1 12.3-13.2 16.9 9.8 0-2.9 1 2.7 3.8 2.8-2.8 22.1-21.6 26-22.4-.8 1.1-2.9 6.9-.1 4.1 4.2-4.2 11.2-17.5 17.9-17.5 0 7.5 7.8 6.9 11.4 14.1-.4.1-11.6 6.6-7.2 9.5.8.8 2.6-.7 3.9-2-3.8 3.9-7.6 7.7-11.1 11.9-2.9 4.6-12 14.5-17.1 20.9 10.3-5.2 21-28.7 32-31.6 18.9-4.9-3.4 21.2-4.7 22.5-.1-.3-.3-.5-.3-.8-10.4 0-17.3 17.9-20.9 24 1.3-.6 6.8-4.9 3.8 1.1 6.4 0-1.5 5.8-1.5 7.6.7-.4 12.1-7.5 12.6-10.3 8.3-1.7 14.1-18.3 23.2-18.3-8.6 11.8-21.4 21.9-26.2 36 1.7-1.9 25.8-18.8 21.3-9.7 6.3 0-9.3 17.5 5.3 6.5 4.5 4.5 16.4-31 16.4-13.7 16.3-5.4-4.6 17.9-5.3 20.2 11.6 7.7 20.2-18.7 32.4-18.7-2.3 3.1-11.6 9-8.4 12.2-7.2 7.2 3.1-3.6-7.2 4.2v-.4c-1.2 7-4.2 2-4.2 10.3 1.9-.9 3.6-2.2 5-3.8.5.2.9.1 1.1-.4h-.4s.4 0 .4-.4c.7 3.6-4.6 6-4.6 11 2.4-3 5-3.8 7.6-2.7-.1.7-3.4 5.7-1.5 5.7 13.9 0 20.3-25.9 35-25.9-8.4 14-26.3 16.8-26.3 35 0 1.6 13.1-8.9 13.7-9.5-.2 1-7.1 16.4 0 16.4 7.7-2.6 11.7-29.7 27.4-29.7 1.3 1.3-18.7 18.2-18.7 18.3.5-.3 10.6-9.2 12.2-7.6 0 3.8-8.3 6.6-9.5 10.3 16.2 0 34.1-39.5 45.1-50.2 0 .2-.2.5-.2.7.8-.2 1.2-.7 1.1-1.5h-.1c.2-.2 1.3-.9 2.5-1.8 1-.1 1.9-.8 2.7-2.1 1.3-1.1 2-2.1 1.1-2.5 22.8-23.9 46.6-48.3 71.7-69.6l-1.3 1.3c20-13.4 32-36.8 52.6-49.9 2.6 2.6-2.7 3.9-2.7 6.5 0-2.5 30.7-26.6 30.5-26.7-6.5 7.8-32.5 23.9-34.2 34.7-.6.5-1.1 1.1-1.7 1.6-.8.5-1.6 1.4-2.2 2.2-23.2 22.7-43.6 43.7-50.3 52.6-7.5 8.3-15.7 20.1-22.9 20.1-2.2-2.2 26.1-28 29.3-31.2-4.3 0-37.4 33.3-36.2 35.8 11.4-11.4-44.1 48.4-43.8 48.8 1.6-1.2 7.2-7.2 9.5-7.2-.3.3-55.7 50.4-48 55.6 6.1.2 16.1-18.1 21.5-15.3zm126.4-150.6c1.3 0 6.2-4 5.3-5l4.2-4.2c-.4 0-.4 0 0-.4-1.4.1-9.5 8.1-9.5 9.6zm-72.7 74.3c1.4.2 2.4-.6 3-2.3l-.4-.4c-.7.8-1.5 1.6-2.6 2.7zm-5.7-1.1c.3.1.6 0 .8-.4-.4-.1-.7 0-.8.4zm-3.8 3.4c.8.4.8 0 .4-.4-.1 0-.4 0-.4.4zm.3.4c-1.8 0-5.3 4.5-6.1 5.3-1 1.1 6.1-1 6.1-5.3zm-7.2 13.7c3-.7 8.9-7.5 10.3-10.3-3 0-9.2 6.9-10.3 10.3zm-2.7 2.7l.4-.4h-.4v.4zm-138.2 3.8c.6.3.9.1.8-.4-.4-.1-.6 0-.8.4zm22.8-123.1c1.3 1.3 2.5-2.5.4-.4 0 .1 0 .1-.4.4zm-4.1-1.1h.4c0-.4.4-.8.8-.8-.8-.2-1.2.1-1.2.8zm-61.8 62.5c5.8 0 26.1-24.7 29.3-31.2-1.5 1.1-2.7 1.9-3.8 3 0 0 0-.1.1-.2-4.5 2.2-25.6 23-25.6 28.4zm-4.5 12.9c.5.1.9-.2 1.1-.8-.5-.7-.8-.4-1.1.8zm22.4-65.9l2.7-2.7c-1.5.8-2.7 1.2-2.7 2.7zm13-60.9c1.4 0 1.9-.3 1.1-1.5-.7.3-1.5 1.1-1.1 1.5zm-11.4 27.8h.3s0-.4.4-.4c-.3-.1-.6 0-.7.4zm-.4.4h.4v-.3c-.1.1-.2.3-.4.3zm36.6-76.6c.5.1.5 0 0-.4v.4zm-17.2 15.6c.8 0 3.8 2.6 3.8-.8-1.4.1-2.7-.3-3.8.8zm-2.3 5c.4.4.4 0 .4 0v-.4l-.4.4zm17.9-47.6c9.7-6.1 17.4-18.4 25.9-25.9-3.8 2.5-25.9 18.6-25.9 25.9zm-3.8 2.3c.6.3.9.1.8-.4-.4-.1-.6 0-.8.4zM347.7 513c3-2.3 5.7-4.6 8.4-8-2.9 2.6-5.7 5.3-8.4 8zm-10.6 5.8c1.1 0 2-1 2.3-1.9-1.2.1-1.9.7-2.3 1.9zm-9.5 19c.3.5.5.5.8 0h-.4c-.1-.4-.1-.4-.4 0zm-8.8 12.6c.4 0 .8-.4 1.1-.8-.5-.1-.9.2-1.1.8zm-6.1 64.3c4.9-3.2 7.1-5.6 11.4-9.9-4.3 2.8-8.1 6.1-11.4 9.9zm-6.1-164.9c.2 0 .7.6 1.1-.8-.3.4-.7.4-1.1.8zM203 537c.3-.2.5-.4.4-.8-.4.1-.8.5-.4.8zm-4.2 2.3l.8-.8c-.8-.2-1 .1-.8.8zm8-26.6c.8-.2 1.4-.8 1.5-1.5-.9-.3-1.4.2-1.5 1.5zm13.3-49.6c1.1-.8 1.9-1.5 2.7-2.7-1.5.5-2.3 1.2-2.7 2.7zm-5.7 5.4c.9-.9 1.7-1.9 2.3-3-1.7.6-2.4 1.6-2.3 3zm23.3-32.4c1.8 1.8 0-2.5 0-.8-.4 0-.4.4 0 .8zm-32 27.8c2.3 2.3 5.2-3.5 5.3-4.6-2.4 0-3.7 3.5-5.3 4.6zm-11.8 37c.2-1.1.6-2.8 0-.8-.5.6-1.1 1-1.9 1.1-.6 0 3.6 3.2 1.9-.3zm-12.6 12.5c1.5-.6 2.8-1.4 3.9-2.2l2.4 2.4-1.3-1.3-1-1c2.6-1.9 4.4-4.3 5.2-7.3-.1-.3-9.5 9.7-9.2 9.4zm-67.4-60.5c1-.1 1.6-.6 1.9-1.5-1 0-1.6.5-1.9 1.5zM85.7 473l.4-.4h-.4c-.4.1-.4.1 0 .4zM8.8 749.2c-1.1.4-1.9.8-2.3 1.9 1.1-.8 1.5-1.2 2.3-1.9zm95.2 64.7c-1 0-1.5.5-1.5 1.5.7-.2 1.2-.7 1.5-1.5zm.7-6.8c-2.6 0-5.7 5.3-7.2 6.9 2-.1 6.8-5.1 7.2-6.9zm193.9-98.3l-.4.4.4.4v-.8zm3.1-4.6h-.4v.4l.4-.4zm-5-76.9c-.9-.1-1.3.1-1.1.8 0 0 .4 0 .4-.4.3 0 .7-.4.7-.4zm1.5-4.9c0 .9-7.6 4.5-7.6 6.9 1.2-.1 7.6-5.5 7.6-6.9zm3.1-3.5c-.4-.1-.5 0-.4.4l.4-.4zm8.4-68.9c0 .4-.4.4-.4.4.4.1.5 0 .4-.4zm-24.8-9.9c3.4 0 4.5-3.3 6.5-5.3-.1 0-.3-.1-.4-.1-.8.6-7.6 3.9-6.1 5.4zm-4.2 9.5c2.8 0 12.1-9.6 15.2-12.7.7.9 2.7.1 2-1.6 3.6-2.1 11.7-7.7 11.7-12.4-5.7 3.8-3.9-1.4-1.3-5.2-2.3 2.4-4.8 4.8-7.2 7.1h.2c0 11-20.6 15.9-20.6 24.8zm3.4-.8c.8.1 1.5-.2 1.9-.8-.8-.4-1.9-.4-1.9.8zm-12.9-3c2.8 2.8 2.9 3.1.4 6.9 3.9-3.1 7.5-6.5 10.8-10.1-.5.5-1 .9-1.6 1.4v-.8c-1.5-.2-2.4.4-2.7 1.9-5 0-4.9.1-3.8-4.2-2.7.9-3.7 2.5-3.1 4.9zm6.5 4.2c-1.3-.1-2.2.8-2.7 2.7 2-.4 2.9-1.3 2.7-2.7zm-16.8-11.1c.4.1.5 0 .4-.4 0 .4-.4.4-.4.4zm-10.3 4.2c2.3-1.1 3-2.3 3.4-3.4-.7.8-1.5 1.9-3.4 3.4zm-12.6 147c5.8-4.2 10.9-9.1 15.2-14.9-5.4 2.9-11.3 10.5-15.2 14.9zm14.1-36.9c-.5-.7-.7-.5-.8.8.5-.4.8-.8.8-.8zm1.6 40.8c-1.5 3.3-.5 4.6 3 3.8 1.5-3.3.5-4.6-3-3.8zm1.5-29c3.3 1.5 4.6.5 3.8-3-3.3-1.6-4.6-.5-3.8 3zm-3.4 61c-1.5 3.3-.5 4.6 3 3.8 1.5-3.3.5-4.6-3-3.8zm-6.5 37.3c1.1-.4 1.9-1.1 2.7-1.9-.1-1.9-2.7-.2-2.7 1.9zm-9.2-50.7c3.7 1.7 5.1.5 4.2-3.4-3.6-1.7-5-.5-4.2 3.4zm5.4-32c1.7-3.7.5-5.1-3.4-4.2-1.7 3.7-.6 5.1 3.4 4.2zm4.9-37.3c0 .4-1.9.7-1.9 1.9h.8c.4 0 1.5-1.9 1.1-1.9zm-1.5 34.3c3.1-.7 4.6-2.7 4.6-6.1-2.7 1.1-2.7 1.1-4.6 6.1zm5.3-104.4c-1.1.2-1.9.8-2.5 1.7-2.3 2.4 2.5 2 2.5-1.7zm-4.9-15.2h3.4c0-6.2 0-6.9-3.4 0zm-3.4 57.9c3.3 1.5 4.6.5 3.8-3-3.3-1.6-4.6-.6-3.8 3zm-5 28.9c-2.3 2.3 1.6 1.1 2.3.3-.6 3 .8 4.1 4.1 3.1 1.6-3.5.6-5-3.1-4.4 1.6-1.2 2.4-2.7 2.3-4.4-2.6-.1-4.5 1.7-5.6 5.4zm-1.1-94.1c.7 0 1.1 0 1.1-.8-.4 0-.8.4-1.1.4v.4zM234.2 745c3.7 1.7 5.1.5 4.2-3.4-3.7-1.7-5-.5-4.2 3.4zm1.6 32.4c1.5-3.3.5-4.6-3-3.8-1.6 3.3-.6 4.5 3 3.8zm-9.2-113.5c1.8-4.1.5-5.6-3.8-4.6-1.8 4.1-.5 5.6 3.8 4.6zm-5.7 27.4c-1.9 4.4-.5 6.1 4.2 5 1.9-4.5.5-6.2-4.2-5zm7.6-59.4c1.8-4.1.5-5.6-3.8-4.6-1.8 4.1-.5 5.6 3.8 4.6zm-2.3 158c3.4-2.3 5-3.8 8-8-5.3 3.8-5.7 4.2-8 8zm4.6-194.6c-3.7-1.7-5.1-.5-4.2 3.4 3.7 1.7 5.1.5 4.2-3.4zM219 561c3.9.2 7.1-1.8 9.5-6.1-.6.4-9.5 4.7-9.5 6.1zm-14.1 118.1c4.8 2 6.6.5 5.3-4.6-4.8-2-6.6-.5-5.3 4.6zm-1.5 24c.8-.6 1.6-1.2 2.3-1.9-1.2-.2-2 .4-2.3 1.9zm0 8.4c4.8 2 6.6.5 5.3-4.6-4.8-2-6.6-.5-5.3 4.6zm-7.2-147c3.7 1.7 5.1.5 4.2-3.4-3.7-1.7-5.1-.6-4.2 3.4zm4.1 141.6s.4 0 .4-.4v-.4c-.4.1-.4.5-.4.8zm-4.1 4.2c1 .1 1.4-.3 1.1-1.1-1 0-1.1.1-1.1 1.1zm0-60.9c-.3.2-.5.4-.4.8.4-.4.7-.8.4-.8zm2.2-56.4c-4.1-1.8-5.6-.5-4.6 3.8 4.1 1.8 5.7.5 4.6-3.8zm-6.4-22.8c2-1.2 3.2-2.8 3.4-5-.8 1.9-3.1 2.3-3.4 5zm0 59.4c4.4 1.9 6.1.5 5-4.2-4.5-1.9-6.2-.5-5 4.2zm-2.3 32.4c5.2 2.2 7.1.5 5.7-5-5.2-2.1-7.1-.5-5.7 5zm4.9 10.2c.6 0 1.1-.6 1.1-1.1-.8.1-1.2.5-1.1 1.1zm-3.8 3.5c-1.7 1.7.4 1.5.4 0h-.4zm-3-102.1l.4-.4-.4-.4v.8zm0 120.7c5.2 2.2 7.1.5 5.7-5 .8-.8 1.5-1.9 2.3-3-1.1.7-2.2 1.6-3 2.7-5.2-1.6-6.8.1-5 5.3zm-1.9 32.4c5.2 2.2 7.1.5 5.7-5-5.2-2.1-7.1-.4-5.7 5zm3.8 27.4c-5.2-2.2-7.1-.5-5.7 5 5.2 2.1 7.1.5 5.7-5zm-6.1-15.2c0 4.3 3.5-1.8 5.3-5-2.5 1.7-4.2 2.8-5.3 5zM179 580.1c4.1 1.8 5.6.5 4.6-3.8-4.1-1.8-5.6-.5-4.6 3.8zm-2.7-61.3c1.1-.8 1.9-1.1 2.3-2.3-1.1.3-1.9 1.1-2.3 2.3zm-6.8 28.1c1.9.2 3.1-1.1 3.4-3.8-1.1 1.5-2.7 1.9-3.4 3v.8zm-1.2 195.4c6 2.4 8.1.5 6.5-5.7-5.9-2.4-8.1-.5-6.5 5.7zm4.6 26.7c-5.6-2.3-7.6-.5-6.1 5.3 5.6 2.3 7.6.5 6.1-5.3zm-1.9 32.4c-5.6-2.3-7.6-.5-6.1 5.3 5.6 2.3 7.6.5 6.1-5.3zm-7.2-238.5c4.1 1.8 5.6.5 4.6-3.8-4.1-1.8-5.6-.5-4.6 3.8zm-2.3 32.4c4.4 1.9 6.1.5 5-4.2-4.5-1.9-6.2-.5-5 4.2zm-2.3 32.8c5.2 2.2 7.1.5 5.7-5-5.2-2.1-7.1-.5-5.7 5zm-1.9 32.3c6 2.4 8.1.5 6.5-5.7-6-2.4-8.1-.5-6.5 5.7zm4.2 33.2c2.5-6.3.5-8.6-6.1-6.9-2.5 6.4-.5 8.7 6.1 6.9zm-12.6-147.8c3.7 1.7 5.1.5 4.2-3.4-3.7-1.7-5.1-.5-4.2 3.4zm-2.3 32.8c4.4 1.9 6.1.5 5-4.2-4.5-1.9-6.1-.5-5 4.2zm-2.2-29c.3.1.6 0 .8-.4 0 0-.4-.4-.4 0-.1 0-.4 0-.4.4zm0 61.3c5.2 2.2 7.1.5 5.7-5-5.2-2.1-7.1-.4-5.7 5zm2.6 4.2c-.4 1.4.8.6.8-.4-.4.4-.4.4-.8.4zm-4.6 22.5c-2.4 6-.5 8.1 5.7 6.5 2.5-6 .6-8.2-5.7-6.5zm-18.2 103.6c.1-.1 19-18.7 19-20.6-4.7 0-19.5 16.9-22.5 22.9 1.4-.3 2.6-1.1 3.5-2.3zm0 4.6v-.8c-.4.4-.4.8 0 .8zM99.4 554.9c-1.9 4.4-.5 6.1 4.2 5 4-2.7-.4-5.6-.4-5-1.1-.7-2.6-.7-3.8 0zm5.3-27.8c1.5-3.3.5-4.6-3-3.8-1.5 3.3-.5 4.6 3 3.8zm.4 179.8c10.2 12.3 11.6-18.8.4-7.6l-.4 7.6zM104 681l-.4.4s.4.4.4 0c0 0 .4 0 0-.4zm-.8 50.7c-3 7.9-.5 10.7 7.6 8.4 3.1-7.9.5-10.7-7.6-8.4zm5.7 12.9c2.1 0 4.1-3.2 5-4.6v-.4c-.4 0-1.1-.4-1.1-.4-2 1.5-3.3 3.3-3.9 5.4zm5 5c.4.1.5 0 .2-.2-.1 0-.1.1-.2.2zm-6.1-82.3c-.1 2.4-.3 4.8-.4 7.2 9 10.8 11.9-16.8.4-7.2zm8-25.1c2.5-6.3.5-8.6-6.1-6.9-2.5 6.4-.5 8.6 6.1 6.9zm1.5-32.4c2.3-5.6.5-7.6-5.3-6.1-2.3 5.6-.5 7.6 5.3 6.1zm1.5-32.8c2-4.8.5-6.6-4.6-5.3-2 4.8-.4 6.6 4.6 5.3zm-.7 168.4c1-.1 1.8-.6 2.3-1.5-.8 0-1.1 0-1.5.4s-.4.7-.8 1.1zm-1.6-205.3c-1.7 3.7-.5 5.1 3.4 4.2 1.7-3.7.6-5.1-3.4-4.2zm.8-53.7c-1.2-.8-1.9-.6-1.9.8 1 .7 1.6.4 1.9-.8zm5-7.6c-.3.2-6.2 5-2.3 5 5.4 0 6.8-6.3 9.1-9.1-2.2-1.1-4.1-.2-5.7 2.7 0-4.4-5 1.4-1.1 1.4zm6.8 109.7c-2.2 5.2-.5 7.1 5 5.7 2.1-5.2.5-7.1-5-5.7zm6.5-27.1c1.8-4.1.5-5.6-3.8-4.6-1.8 4.1-.5 5.6 3.8 4.6zm-4.2 91.4c-2.2-.1-4.3-.3-6.5-.4-.1 2.2-.3 4.3-.4 6.5 6.4 2.6 8.7.5 6.9-6.1zm-8.8 31.6c-2.8 7.1-.5 9.6 6.9 7.6 2.8-7.1.5-9.6-6.9-7.6zm10.3-63.6c-6-2.4-8.1-.5-6.5 5.7 6 2.5 8.2.6 6.5-5.7zM120.4 724c9.4 11.3 12.6-17.8.4-7.6l-.4 7.6zm17.9-10.2c-2 0-5.3 3.5-5.3 5.3h.4c2.6-1.1 4.2-2.9 4.9-5.3zm-1.2-185.1c1.5-3.3.5-4.6-3-3.8-1.6 3.2-.5 4.5 3 3.8zm3.1-26.3c-.8.8-1.9 1.5-2.7 2.7 1.1-.4 1.9-1.6 2.7-2.7zm-.8 52.5l-.4.4c0 .9 2.4-2.3.4-.4zm-.4 68.6c1.5 0 2.3-1.5 3-2.3.1-.1-1.7-2.9-3 2.3zm4.2-167.6c1.4-.6 2.8-1.2 4.2-1.9-.8-2-3.3-1.8-4.2 1.9zm-3.4 1.2c1.2-.3 2.3-.7 3.4-1.2 0-3.4.5-8.1-4-3.8-.3.3-.6.6-.8 1l.3-.3.3-.3c-.2.2-.4.4-.6.7-1.2 1.8-.1 2.3 1.4 3.9zM99 488.7c8.7 0 31.8-27 38.7-34.8-6.5 6.9-30.7 28-38.7 34.8zm-1.9 14.8c2.6 2.6 5.7-1.6 5.7-5-2.6.1-4 3.3-5.7 5zm-1.9 90.7c1 0 1.9-.9 1.9-1.9 7.4 5.5 7.5-11.3 0-5.7-1.5 2.5-1.5 4.4 0 5.7-1 0-1.9.8-1.9 1.9zm-.7 30.4c6 2.4 8.1.5 6.5-5.7-6-2.4-8.2-.5-6.5 5.7zm5.7 138.3v1.1l.4-.4c0-.4.4-.8.4-1.1l-.8.4zm-8-105.5c7.1 2.8 9.6.5 7.6-6.9-7.1-2.8-9.7-.5-7.6 6.9zm-3.1-159.6l.4.4s0-.4.4-.4c-.3-.5-.5-.5-.8 0zm.8 192.3c7.9 3 10.7.5 8.4-7.6-7.9-3-10.7-.5-8.4 7.6zm6.1 32.8c.1-2.8.3-5.6.4-8.4-12.4-12.3-11.8 19.8-.4 8.4zm-1.5 32.8c3.3-8.6.5-11.7-8.4-9.1-.1 2.9-.3 5.8-.4 8.8 2.9 0 5.8.1 8.8.3zm-5.8 10.6c1.2 0 1.7-.7 1.5-1.9-.7.5-1.2 1.1-1.5 1.9zm-9.1-164.5c-2.4 6-.5 8.1 5.7 6.5 2.4-6 .5-8.2-5.7-6.5zm5.7 159.6l-.4.4c.3.1.6 0 .8-.4h-.4zm-28.2-72.8c2.8.1 5.6.3 8.4.4 10.7-10.7-17.9-13.7-8.4-.4zm-.7 15.6l-.8.8c.3.5.7.5 1.1 0-.3 0-.3-.4-.3-.8zm-6.9-8.7c-7.9-9.3-9.5 5.7-10.4 6.4-3.9 3 23.7 9 10.4-6.4zm.4 15.2c-1.8-.2-3 .8-3.8 3 1.5.8 2.7.4 3.8-.8.5-.7.5-1.4 0-2.2zm-6.1 6.1c-1.5 0-1.5.8-1.5 1.9.4 0 .8-.4 1.1-.4.5-.3.7-.8.4-1.5zm-4.2-25.1c9 0 14-17.8 8-11.8-.3-.1-.2-.5-.5-.2-7.9-3.1-3.8 4.9-2.2 5.4-3.7 1.4-5.5 3.6-5.3 6.6zm10.7-20.2c3-7.9.5-10.7-7.6-8.4-3.1 7.9-.5 10.7 7.6 8.4zm9.5-43.1c-2.8 0-4.8 4.8-6.5 6.5-.3-4.5-3.1-5.8-8.4-3.8-2.6 5.7-1.2 8.6 4.2 8.8 0 2 1.9-.7 1.9-1.1.2-.1 8.8-8.8 8.8-10.4zm-4.2-87.9c1.7-3.7.5-5.1-3.4-4.2-1.7 3.7-.5 5.1 3.4 4.2zm-.8 5.3c-.4.3-.6.6-.4 1.1h.8c-.4-.3-.4-.3-.4-1.1zm-4.9 22.1c-2 4.8-.5 6.6 4.6 5.3 2-4.8.5-6.6-4.6-5.3zm3 22.1c0 .4-.4.8-.4 1.1 1 0 1.5-.5 1.5-1.5-.3 0-.7.4-1.1.4zm-5.3 9.9c-2.4 6-.5 8.1 5.7 6.5 2.4-6 .5-8.2-5.7-6.5zm15.2-19.1c-1.8 0-3.1 1.9-3.4 3.4 1.3.1 3.4-1.9 3.4-3.4zm4.2 75.5l.4-7.6c-2.5-.1-5.1-.3-7.6-.4-2.9 7.4-.5 10.1 7.2 8zm-6.1 9.1c.4-.4.4-.8.4-.8-.3.2-.4.4-.4.8zm7.7-41.9c2.5-6.3.5-8.6-6.1-6.9-2.6 6.4-.5 8.7 6.1 6.9zm1.1-32.8c2.2-5.2.5-7.1-5-5.7-2.1 5.2-.5 7.1 5 5.7zm3 114.7c2.8.1 5.6.3 8.4.4 13.5-11.2-20.7-12.8-8.4-.4zm4.6-72l-.4 6.9c10.2 10.2 9.7-16.1.4-6.9zm9.2-58.3c2-4.8.5-6.6-4.6-5.3-2 4.8-.5 6.6 4.6 5.3zM84.2 542c3.7 1.7 5.1.5 4.2-3.4-3.7-1.7-5.1-.5-4.2 3.4zm-7.6-32.4c0 3.1 9.8-7.2 7.6-7.2-1.9.7-7.6 4.4-7.6 7.2zm-1.9 163c2.5.1 5.1.3 7.6.4 2.9-7.5.5-10.2-7.2-8l-.4 7.6zm-2.3 14.1h.4c.3-.3.4-.5.5-.7-.4.2-.7.7-.9.7zm-1.2-133.3c-4.1-1.8-5.6-.5-4.6 3.8 4.1 1.8 5.6.5 4.6-3.8zm-2.3-36.6v-.4l-.4.4h.4zm-2.2-21.7c.8-.8 1.5-1.1 1.9-1.9-.8.4-1.6.8-1.9 1.9zm-27.9 35.8c.4.4.4.4.4.8 6.1 0 31.7-30 31.2-30.5-11.1 8.2-22.1 19.4-31.6 29.7zM35 551.5c-1.8 4.1-.5 5.6 3.8 4.6 1.8-4.1.6-5.6-3.8-4.6zm-1.5-14.1c.6.1 1-.3 1.1-1.1-.5 0-1.1.5-1.1 1.1zm-.7 30.1c4 0 9.5-5.7 9.5-9.5-2.9 2.8-9.5 4.9-9.5 9.5zm4.9 16c-5.2-2.2-7.1-.5-5.7 5 5.2 2.1 7.1.5 5.7-5zM27 580.8c0 2.4 4.7-2.3 9-7.1-3.2 2-9 6-9 7.1zm-4.1 49.6c1.8 0 5.3-6.3 5.3-7.6-3.7-.1-7.1 7.6-5.3 7.6zm-5.4-59.5c4.4 1.9 6.1.5 5-4.2-4.5-1.9-6.1-.5-5 4.2zm5.8 4.8c-3.6 1.8-9.8 5.8-8.5 8.5-2.4 1.2-4.3 2.4-3 4.6 2.3-2.2 8.2-10.2 11.5-13.1zm-8.4 28c5.6 2.3 7.6.5 6.1-5.3-5.6-2.3-7.7-.6-6.1 5.3zm-2.7 32.7c7.1 2.8 9.6.5 7.6-6.9l2.3-2.3c-3.4.1-16 1.6-9.9 9.2zM10.3 654h.4s0-.4.4-.4c-.4-.1-.7 0-.8.4zm-1.9 6.1c0 .6 7.5-1.9 6.5-5.3-3.7.6-5.8 2.4-6.5 5.3zm4.5 21.7c0-2.7-14.4 8.8-11.5 12.1.8-1.1 13.4-12.1 11.5-12.1zm16.4-23.6c-3.9-1.7-6.9.6-9.1 6.9 0-6.4-18.8-5-10.3 5 5.7 3.1 8.5 3.1 8.4 0 1.1 1.1-2.4 7.6-1.9 7.6 6.7-.1 12.9-15.4 12.9-19.5zm6.9-36.6c2.5-6.3.5-8.6-6.1-6.9-2.5 6.4-.5 8.7 6.1 6.9zm.4 30.1c4.2 0 10.6-2 5.3-7.2-2.2-.1-3.9 1.3-5 4.2-10.8-21.8-7.2 23.6-.3 3zm-.4 99.8l.4-.4c-.4-.1-.5 0-.4.4zm-1.9-54.1c0 .4.4 1.1.4 1.5.9-.9 1-1.9.4-2.7-.8.4-1.2.8-.8 1.2zm-2.7-.8c.7-.5 1.1-1.1 1.1-1.9-1 0-1.1 1.1-1.1 1.9zm-.4 45.7c-7.4-8.5-18.2 6.3-9.5 10.7-4.4 4.5 18.5-.4 9.5-10.7zm1.6-1.1v-.4s-.4 0-.4-.4v.4s.4 0 .4.4zm0-30.9c-1.1-1.5-3-2.3-4.6-2.3 4.4-2.2 3.8-6.7 3.8-11-3.8 3.8-16.8 24.8-3.4 24.8-2 2 1.1 2.6 1.1 0 5-1.4 6-5.2 3.1-11.5zm11.4 64c-4.9 2.3-7.3 5.5-7.2 9.5 4.1.3 6.6-2.9 7.2-9.5zm1.5-16c1.6-1.6 3-3.4 3-5.7-2.5-1.2-4.2.2-5.3 4.2-16.4-5.5-7.1 17.7-3 14.3 3.9-3.2 12.8-5.3 5.3-12.8zm-7.2-14.4c.4-.4.4-.8.4-.8-.4.2-.5.4-.4.8zM49.1 729c1.9-1.9 1.9-3.8 1.5-5.7 0-1.9-2.5 1.4-3.9 3.4-30.5-21.9 17.3 37 2.4 2.3zm14.1 15.2c-1.1-1.1-2.7-1.9-3.8-2.3-.1-.7-.6-1.3-1.5-.4v.4c-9.7 0-5.8 21.6 5 12.2l.3-9.9zm1.5-31.6c-4.4-5.1-13.7.2-10.7 7.2-2.4 2.4.8 2.8.8 1.5 3.3 2.1 19.5 2.5 9.9-8.7zm5.4 25.5c7.9 9.3 9.5-5.7 10.4-6.4 3.9-3-23.7-9-10.4 6.4zm7.6 32.8c-3.4 2.7 1.5-8.4 3-6.9 3-1.2 4.4-2.9 4.2-5.3-2.6-.3-4.6 1.3-5.7 4.6-10-20-19.1 23-1.5 7.6zm5-6.9c-.3.2-.5.4-.4.8.7 0 .7-.4.4-.8zm1.9 10.3c0-2.3 1.1-3.8 2.3-6.1-3.1 2.2-6.5 3.8-10.3 4.6-.2-.2 8 12.2 8 1.5zm8.3 4.6c-2-.8-2.7-2.4-2.3-4.6-2.6 1.6-18.4 14.9-1.9 14.9-3 6 10.2-3.4 4.2-10.3zm1.9-19.1c.9-.6 1.3-1.3 1.1-2.3-1.9 1.5-4.7 4.5-6.1 6.5 1.6-1.5 3.5-3 5-4.2zm5 4.6c-3.2 1.1-4.8 2.8-4.6 5.3 2.3.1 3.9-1.6 4.6-5v-.3zm15.6 22.9c1 3.1 3.8 3.7 8.4 1.9 6.5-5.4-1-4.9-8.4-1.9zm1.5-35.8c-4.2 2.1-10.9 7.8-13.7 11.4-12.9 16.7 17.7 6.2 4.6-.4l9.1-9.1c.8 4.1 3.7 5.1 8.8 3 8.8-7.3-8.8-12.1-8.8-4.9zm22.5 47.2c-1.9-1.9-5-2.3-6.9-.4.4-.7.7-1.5.8-2.3-2.2 2-4.3 4.1-6.5 6.1 1.1 2.1 2.6-.4 4.6-3-5.8 9.7 14.6 7.5 8-.4zm1.9-32.4c-2.4-.1-4.8-.3-7.2-.4-2.8 7.1-.5 9.6 6.9 7.6l.3-7.2zm-3.7-33.1c2.5-2.4 8.3-8.4 7.1-8.4-4.9 4.9-10 9.6-14.9 14.5l.4.4c1.7-1.1 3.2-2.4 4.6-3.8-.9 5.9 1.7 7.8 8 5.7 2.7-6.3 1-9.1-5.2-8.4zm7.5-31.2c-6.7-2.7-9.1-.5-7.2 6.5 6.7 2.6 9.1.4 7.2-6.5zm1.2-25.6c2.5-6.3.5-8.6-6.1-6.9-2.6 6.4-.5 8.7 6.1 6.9zm2.2 14.9c1.2-.7 1.7-1.5 1.5-2.7-3.3 0-5.4 6.6-1.5 2.7zm7.7 92.5c-7.7-9.7-11 15-.4 6.5.1-2.1.2-4.3.4-6.5zm1.9-32.3c-6.3-2.5-8.6-.5-6.9 6.1 6.4 2.5 8.6.5 6.9-6.1zm1.5-25.5c2.5-6.3.5-8.6-6.1-6.9-2.5 6.3-.5 8.6 6.1 6.9zm1.1 92.9c0-.4-.4-.4-.4-.8 0 .4.1.6.4.8zm1.6-.4l-.8.8c.4-.4.8-.4.8-.8zm9.5-6.9c0-3.5-16.3 3.1-9.5 6.5 3.7-5 7.6 1 9.5-6.5zm1.9 2.3c-.8 0-1 .8-1.5.8.6 0 1.1-.3 1.5-.8zm1.9-65.5c-.4 0-.8 0-1.1.4h.4c-.1 0 .3 0 .7-.4zm1.1-.7l-.8.8c.4-.1.8-.5.8-.8zm0-43.5c-6-2.4-8.1-.5-6.5 5.7 6 2.5 8.2.6 6.5-5.7zm-3.8-32.3c-2.3 5.6-.5 7.6 5.3 6.1 2.3-5.6.6-7.7-5.3-6.1zm7.6 86.8l-.4-.4c-1 1 .4 2.5.4.4zm-.3-118.4c-5.2-2.2-7.1-.5-5.7 5 5.1 2.1 7.1.4 5.7-5zm1.9-32c-4.8-2-6.6-.5-5.3 4.6 4.8 2 6.5.4 5.3-4.6zm5.7 178.2c-4.8-2-6.6-.5-5.3 4.6 4.8 2 6.5.5 5.3-4.6zm14.8 17.2c-4.1-1.8-5.6-.5-4.6 3.8 4.1 1.7 5.6.5 4.6-3.8zm-2.6-32.4c-1.6 3-1.1 4.9 1.5 5.7-4.3 4.4-9.1 9.7-12.9 14.5 7.5 0 11-15.6 16-15.6 1.3-4.3-.2-5.8-4.6-4.6zm6.4-32.4c-4.8-2-6.6-.5-5.3 4.6 4.8 2 6.6.5 5.3-4.6zm4.9-23.9c-.1-.1-.1-.3.1-.5-3.9 0-13.1 11.6-14.1 13.3 5.7-2.3 9.7-7.6 14-12.8zm.5 53.6c-.3.2-.5.4-.4.8l.4-.8zm.3-126.1c-4.4-1.9-6.1-.5-5 4.2 4.5 1.9 6.2.5 5-4.2zm1.6-32c-4.1-1.8-5.6-.5-4.6 3.8 4.1 1.8 5.6.6 4.6-3.8zm1.9-32.3c-3.7-1.7-5.1-.5-4.2 3.4 3.7 1.6 5.1.5 4.2-3.4zm-1.2 188.1c1.3 0 1.7-.5 1.5-1.9-.9 0-1.4 1.2-1.5 1.9zm5 22.5c-3.7-1.7-5.1-.5-4.2 3.4 3.7 1.7 5.1.5 4.2-3.4zm2.3-32.4c-4.1-1.8-5.6-.5-4.6 3.8 4.1 1.8 5.6.5 4.6-3.8zm1.1 1.5h-.4v.4l.4-.4zm.8-33.9c-4.4-1.9-6.1-.5-5 4.2 4.5 1.9 6.1.5 5-4.2zm12.5 88c-2 0-10.4 6-7.6 8.8 3.4 3.4 6.3-7.5 7.6-8.8zm11.1-1.5c-1.5 0-5.7 3.6-5.7 5.3 2.6-.6 4.5-2.4 5.7-5.3zm2.3-10.3c2.7-3.4 4.9-4.8 6.5-8.4-3-3-19.7 19.9-19.8 20.2.4.4.8.8.8 1.1 5.3.1 18.3-12.9 12.5-12.9zm8.7-6.5l-.4-.4c-.2.8 0 .8.4.4zm3.1-34.2c-6.4 0-29.7 30.1-36.2 36.6 13.5-10.2 25.7-23.5 36.2-36.6zm-1.9-130.7c0-2-4.1 2.6-3.8 2.3 6.6-5-7.8 7.2-4.6 7.2 2.4 0 3.4-5.3 5.7-6.5 0 5.6 8.9-3 2.7-3zm1.5-4.9c-1.1-.4-1.9.4-2.3.8-.4.4-.4.8-.4 1.1 1.3.2 2.1-.5 2.7-1.9zm2.3-72.4c-.4.8-1.1 1.5-1.5 2.7 2.9.4 5.7.2 8.4-.8 6-6-8.8-3.1-13.1-2-.6-.6-.6-.2-.6.1v.1c-.6.2-.6.2 0 .1.2 2.5 5.2-1.8 6.8-.2zm1.1 204.9c-.3.2-.5.4-.4.8 0-.4 0-.4.4-.8zm5.7-12.5c-1.4-1.4-5.1 1.7 0 2.7v-2.7zm-.3-129.2c-3.5 0-3.8.7-6.5 6.1 2.5 0 9.2-3.3 6.5-6.1zm2.2 169.9c-.5-.5-.8-.5-1.1 0l.4.4c.4-.4.7-.4.7-.4zm.8-40.7s0 .4-.4.4c.4-.1.4-.1.4-.4.8 0 .4-.4 0 0zm1.2-3.1c.8-1.5 1.9-1.9 2.7-3.4-1.5.7-2.4 1.8-2.7 3.4zm6 32c.7-2.2 4.6-5.1 4.6-7.2-2.8 0-9.9 9.4-10.3 9.9 1.8-1.2 3.7-2.1 5.7-2.7zm6.9 36.2c-1.3.4-1.8 1.4-2.7 2.3 1.7 0 2.7-.6 2.7-2.3zm1.1-80.4l-.8.8c-2.4 1.3-2.9 1.8.8.4v-1.2zm.7-5.9c-1.5 1.7-6.3 6.9-7.2 8.2-.8 1.1-2.3 1.5-2.3 3 1.1-.3 7.7-8.9 9.5-11.2zm2-4.7l-.4.4c.5-.1 1-.7.4-.4zm2.3-24.8c2.6 0 8.8-6.9 8.8-9.1-3 2.7-5.7 5.7-8.8 8.4v.7zm7.7 54.9c-1 .3-1.8 2.2-1.6 2.2 5.2 0 1.3-1.8 1.6-2.2zm23.1-23.7c-.4.4-.4.8-.8 1.1 0 0 .4 0 .4-.4.4.1.4-.3.4-.7zm-9.9 80.8l-.4.4.4.4v-.8zm9.9-81.2c.5-.8.5-1.5 0-2.3-1.4.4-4.6 2.3-4.6 4.2 1.8.2 3.3-.5 4.6-1.9zm-.3 72.4c-.9-.2-1-.1-.4.4l.4-.4zm7.6-15.2h.4v-.4h-.4v.4zm-1.5 32.4v.8c5.7-5.8 0-6 0-.8zm9.9-11.9c-2.8-.2-4.7 1.6-5.7 5.3 1.5-.1 5.7-2.6 5.7-5.3zm15.6 14.1c-1.1 0-2.3.6-2.3 1.9 0 .4.8 0 .8.4.8-.5 1.3-1.3 1.5-2.3zm16.4-43.4c-1.6.8-6.9 2.3-6.9 4.6 2.9-.7 5.1-2.2 6.9-4.6zm12.1 17.5c-.3-.1-.6 0-.8.4.4.1.7 0 .8-.4zm3.9-1.5c0-.4-.4-.4 0 0-.4 0-.8 0-.8.4.3.1.6 0 .8-.4zm14 16.8c-2.4-.2-4 1.4-4.6 5 1.5-1.5 3-2.7 4.2-4.2.4.3.1-.4.4-.8zm53-2.2c.6.2 1.1.6 1.5 1-1.2-1.2 74.8-77 82-84-27.4 25.1-61.1 53-83.5 83zM353.8 673.4c-3.5.6-5.2 2.1-5 4.6 2.6.3 4.2-1.3 5-4.6zM695.2 566c1.7-1.6 3.5-3.2 5.2-4.8-.1.1-.2.1-.4.3-1.6 1.4-3.2 2.9-4.8 4.5zM380.5 679.5c0-.4-.4-.8-.4-1.1-1.8.9-4.2 2.9-4.2 5 2.1-.3 4.6-1.6 4.6-3.9zm-12.2 13.7c4.3-1.2 6.6-3.8 6.9-7.6-2.2.4-11.6 7.6-6.9 7.6zm-48.4-28.6c-.4.4-.8.8-.4 1.5 1.1-1.1 13.3-10.3 11.4-12.2-3.9 3.1-7.2 7-11 10.7zm152.4 108.6c-3.6 0-13.5 13.4-14.9 16 4.9-1.7 14-10.6 14.9-16zM937.7 326c-9.2 8.2-20.1 17.3-26.7 26.7 9.8-4.9 18.4-18.1 26.3-25.9 0 0 0-.4.4-.8zm-150 121.5c1.5-1 2.8-2.3 3.8-3.8-1.6 1.2-3.1 1.9-3.8 3.8zm-384.7 40c5-1.9 7.8-8.3 10.7-11.4-1 .9-13.7 8.4-10.7 11.4zm13.7 71.2c-2.3 0-3.3.8-3 2.3 1.3.2 2.4-.6 3-2.3zm-139.4-30.4c5.8 0 15.7-14.1 17.5-17.1-5.3-.1-19.7 17.1-17.5 17.1zm31.6-37c-1.1 1.5-3 2.3-3.8 4.6 3.2 0 12.4-10.1 13.7-13.3-3.8 2.6-6.5 4.5-9.9 8.7zM276.1 521c-3.8 3.8-8.3 7.5-12.2 11.4 4.5-2.2 11.8-7.3 16.8-12.2-.6-1.9 0-2.5 1.9-1.9-1.2 1.2 6.5-5.7 2.3-5.7-3.2.1-6.5 6.9-8.8 8.4zm19.1 117.3c2.8-1.3 5-3.5 6.5-6.5-1.4-.1-2.4.8-3 2.7-2.6.7-3.7 2-3.5 3.8zm39.6-27.8c1.8-1.8 3.7-2.5 1.9-3.4-.8 1.2-1.5 2.3-1.9 3.4zm56-111.6c-3.5-1.7-8.9 3.6-6.1 6.5 2.7 2.8 6.9-6.5 6.1-6.5zm-31.6 45.8c-2.2-.2-3.9 1.1-5 3.8 0 3 4.5-2.8 5-3.8zm17.1 45.7c1.8 0 4.5-3.6 5.2-4.1-1.8.8-3.8 2.4-5.2 4.1zm281.5 13.7c-3.8 3.8-6.4 6.4-8.1 8 .4-.3.4-.1-.4 1.1 6.8-6.5 13.5-13 20.2-19.5-3.8 3.6-7.7 7.1-11.7 10.4zm808.6-266.8c2.1-2.3 2.4-3.5 1.7-4l-4.2 3.9c1.1 0 2.1-.1 2.5.1zm17.7 24.3c-3.5-.9-6.2.7-8.1 4.6 1.8-.3 3.5-.9 5.2-1.8 1-.9 2-1.8 2.9-2.8zm-9.3 6c-1 1.4-2.2 2.5-3.8 3.4h1.4c1.4-.8 2.2-1.9 2.4-3.4zm-97.1 37.1c-7 4.9-18.7 13.9-18.7 19.6 7.3-7.1 13.9-13.9 18.7-19.6zm65.2-49.5c-9 7.4-17.7 14.7-24.5 21.4l-1.9 1.9c-1.5 2-2.6 3.9-3 5.7 9.7-9.3 19-18.6 29.4-29zm-66.4-40.2c1.6-1.6 3.3-3.3 5-4.9-1.8-1.9-8.2 6.5-10 9.2 2.1-1 3.5-2.9 5-4.3zm5-39.8c-2.9 1-4.6 2.6-5 4.7-2.5 2.3-5.1 4.6-7.7 6.9h.4v.8c-.1.1-.3.3-.4.5 2.4-2.7 5-5.2 7.7-7.6v.7c2.1 0 5.7-4 5.7-6.1 5.1-4.5 10-9.4 14.5-14.5l-3.9 3c-3.5 4-7.3 7.8-11.3 11.6zm18.1 17.6c-2.9-2.8-13.3 8.4-14.4 13.9 4.7-4.3 9.3-8.8 13.8-13.4.2-.2.4-.4.6-.5zm8.1 7c1.9-1.5 3.4-3 5.2-4.5-6.2-1.8-3.3 1.3-6.6 4.8.5.1 1 0 1.4-.3zm-246.6 422.3c-1.5 1.1-9.3 7.7-9.3 10.7 4.3-1.3 8.2-5 10.3-9.1-.4-.4-1.1-.4-1.1-.8v-.5c2.1-2 4.3-4 6.4-6 .6-.7 1.2-1.4 1.8-2-1.5.2-7.3 5.9-8.1 7.7zm8.1-7.7c.3 0 .6 0 .8.1.7.7 2.2-.1 3.9-1.5 3.7-4.5 7.3-8.5 10.4-11.8.3-.4.5-.7.5-.7-7.1-.3-12.3 4.3-15.6 13.9zm25.8-295.8h-.6c-1.4 0-1.5-.8 0-2.3-4.6 3-3.4 1.5-11.8 11.8 2.7 0 3-4.2 6.1-4.2 0 .6-6.6 7.2-6.5 7.2 2.5 0 7-5 10.1-8.9.4-.9 1.2-1.8 1.9-2.6.4-.3.6-.7.8-1zm12.4 260.5c1-.5 1.6-1.3 1.9-2.3-3.2 2.2-18.3 12.6-18.3 18.3 5.9-4.9 11-10.6 16.4-16zm146.4-147.4c9.7-9.8 19.5-19.5 29.4-29-26.5 21.3-53.7 44.9-66.8 69.4 12.9-9 31-33.9 37.4-40.4zm148.6-185.4c1.6-1.2 3.9-3.2 3.6-3.2-5-5-19.8 12.6-21.3 14.1.7 1.3 2 1.1 3.7.1 4.2-4.3 10.3-10.1 14-11zm-6.9 20.8c.9-.8 2-1.8 3.2-3h-.1c-.8.7-1.6 1.5-2.3 2.1-.2.3-.5.6-.8.9zm-239 257.9c3-1.5 9.4-6.1 16.1-11.7 6.8-7 13.5-14 20.2-21.1.7-1.3 1.1-2.5 1.1-3.4-1.6-.2-2.9.5-3.8 2.3-5.2 5.6-15.4 12.8-23.3 20.3-1.3 1.3-2.5 2.6-3.8 3.9-3.1 3.2-5.4 6.5-6.5 9.7zm-117.7 120c2.2-1.7 9.5-6.3 9.5-9.5-4.6-.2-7.8 3-9.5 9.5zm109.3-111.2c1.2-.5 2.1-1.4 2.7-2.7l-.4-.4c-1.7.7-2.4 1.7-2.3 3.1zm-102 109.3l.4.4c2.1-.8 3.4-2.2 3.8-4.2-1.8.8-3.2 2-4.2 3.8zm-184-427c2.7-1.7 5-3.8 6.9-6.3-2.6.9-5.9 4.5-7.9 6.5.3.2.7.2 1-.2zm368.2 179.7c.5-.4 1.1-.9 1.6-1.4 7.3-8 14.2-15.1 17.4-16-4.1.7-11.6 8.7-19 17.4zM909.2 364.9c1-1 3.7-3 7.2-5.6 9.7-10.6 19.8-20.7 30.8-28.4 0-.2.1-.4.1-.6.4-.1.7-.1 1.1-.2 1.3-.9 2.5-1.7 3.8-2.5.5-1.3.1-2.6.5-3 2.8-2.8 5.6-5.6 8.5-8.3-.8-.6 13.5-18 13.9-18-1.1 0-3.1 2.6-4.2 1.5-21.7 21.7-41.4 45.5-64.5 66.1 1.3 1.1 2 .1 2.8-1zm481 104.3c-8.1 4-17.1 15.2-23.5 21.5 6.3-3.9 12.8-11.7 18.6-16.2 2.3-1.2 4-2.9 4.9-5.3zm-95.7-1.3c-1.2.9-2.3 2-3.3 3.2 1.1-1 2.3-1.9 3.3-3.2zM536.3 782.7c.7-.4 2.7-2.6 5.2-5.2-2.4 2.4-4.4 4.3-5.2 5.2zm9.3-9.4c-1.4 1.4-2.8 2.9-4.1 4.2 1.2-1.3 2.7-2.7 4.1-4.2zM1346.4 239c9.8-9.6 18.3-17.6 18.3-17.7-2 0-3.8.8-5.6 2.1 6.4-4.7 11.9-9.5 12.8-14.3-6.2 6.2-12.6 12.5-19.1 18.8 2-1.4 4-2.8 5.9-4.3-4.4 3.5-8.3 10.1-12.3 15.4zm-190.1 110.3l-1 1c.5-.1.9-.2 1.3-.3 1.5-1.9 2.8-3.6 3.9-5v-.3c-2.9-1.4-4.9.5-6 5.6.9-.8 1.7-1.7 2.6-2.5.4 1.1-.4 1.1-.8 1.5zm-32 33.1c2.3 0 2-2.4 3-3.4-1.1 0-3 2.3-3 3.4zm95.3 89.1c-1.1 1.1-2.2 2.2-3.4 3.3-.2.4.8-.4 3.4-3.3zm-66.7-118.8c-6.2 6.1-12.5 12-18.6 18.3.1.3.3.5.3.8 7.4-4.9 14-11.7 18.3-19.1zm5 62.5c.3-.3.5-.7.6-1.1-.9 1-1.8 2-2.6 3 .1-.2-.5.4-1.4 1.4l.6-.3c1.2-.7 2.1-1.9 2.8-3zm89.2-122.5c-3.2 2.5-3.5 3-5.4 5.9.2-.1.3-.2.5-.3 2.1-2.2 3.7-3.9 4.5-4.9.1-.2.3-.4.4-.7zm-263.7 3.2c5.1-2.4 8.2-6 9.2-10.5-7.3 6.8-17 14.5-22.3 23.2 4.9-3.7 9.2-7.9 13.1-12.7zm347.3 62.9c1.8-2 3.7-4 5.5-6-2.3 2.2-4.2 4.3-5.5 6zm-166.4-9.5c11.4-8 21.5-19.5 31.2-30.5-9.2 9.6-20.3 19.2-31.2 29-.2.7-.3 1.2 0 1.5zm20.5-89.1c-.7 1-1.6 1.7-2.9 2.2-2.8.9-5 4.6-6.7 6.8.7.2 9.4-7.5 9.6-9zm58.8-33.2c.2 0 .8-.3 1.6-.6 3.3-5.4 6.2-11.2 8.7-17.3-8.2 0-8.2 13.5-10.3 17.9zm-94.1 126.8c-3.6 1.8-15.2 11.5-15.2 16.1 6-5.9 12.2-11.7 18.2-17.6-1.2.1-2.3.8-3 1.5zm46-35.1c2.2-2.3 4.3-4.7 6.3-7-2.1 2.3-4.2 4.7-6.3 7zm53.4-93.2c-1.2 0-2.6.5-3.7.9-1.7 2.7-3.4 5.4-5.2 8 3.2-2.9 6.3-5.9 8.9-8.9zm-173.7-24.8c-1.6.5-3.2 1.9-4.1 3.4h1c1.2-1.1 2.4-1.9 3.1-3.4zm46-2.7c-1.3 1.3-2.7 2.5-4.2 3.7.7 1.5 4-3.1 4.2-3.7zm32.7 44c2.9-2.3 5.6-5 7.9-8-2.9 2.4-5.5 5-7.9 8zm-148.8 32.2c-1.4 1.3-2.7 2.4-3.9 3.5 1-.7 2-1.5 3-2.3.3-.3.6-.7.9-1.2zm506.2 112.4c-1.8-9.2-43.6 35.6-46.5 38.5-15.2 15.4-30.4 30.5-46.5 44.9-11.9 10.7-23.6 21.6-35.2 32.7 17.5-14.1 34.7-27.1 47.4-38.8 9.1-8.2 80.8-64.9 80.8-77.3zm-361.6-140.2c-7.3 5.4-9.9 6.6-16.6 13.7 5.8-4 11.3-8.4 16.3-13.3.2-.1.2-.3.3-.4zm3.5-3.9c-1.5 1-2.5 2.3-3.5 3.9 1.4-1.1 2.6-2.4 3.5-3.9zm-58.8-3.9c5.9-4.6 11.8-10.1 14.4-12.7 2.8-2.9-8.3 6.7-14.4 12.7zM996 282.2c-.3.3-.6.6-.9.8 2-1.7 4-3.4 6.1-5.3-1.8 1.4-3.6 3-5.2 4.5zm354.2 146.3c-9.1 0-30.9 24.6-45.5 41.7 6.3-4.4 14.7-11 23.8-18.6 7.6-7.4 15.2-14.9 21.7-23.1zm-455.7-52.1c3.9-3.5 7.9-7.1 11.9-10.6-2.4-2-11 9-11.9 10.6zm552.7 40.8c-.6.4-1.2.8-1.7 1.2-.7.8-1.4 1.6-2 2.5l3.7-3.7zm-287-6.6c-1.6.6-2.2 1.8-1.7 3.5 1.2-1.2 2.4-2.4 3.6-3.7-.6.2-1.2.2-1.9.2zm99.7-128c-3.2.7-4.7 2.2-4.6 4.5 1.9-1.2 3.4-2.7 4.6-4.5zm-5.9.3c1.2-1.2 2.2-2.6 3-4.1-1.4 1.4-2.4 2.6-3 4.1zm82.6-39.7c5.5-5 10.9-10.1 16.3-15.2-7.1 5-14 10-16.3 15.2zm-46.6 78.3c-1 1-3.9 3.3-7.6 6.2-1 2.3-4.2 5.9-4.6 7.9 3.2 0 11.1-12.4 12.2-14.1zm-7.2 4.9c-6.1 4.4-12 9.1-17.9 13.9 5.5-3.6 12.3-8.6 17.5-12.6.3-.5.4-.9.4-1.3zm63.6-87.4c-2.2 2.2-4.5 4.4-6.8 6.7 2.3-1.3 4.6-3.8 6.8-6.7zM286 508.5v-1.1c-1.7.9-5.7 3.9-5.7 6.1 2.7.1 4.6-1.5 5.7-5zM9.5 780.4c-4.7 0 3-9.1 3-11-7.8 1.4-11.6-1.5-11.4-8.8 0 5.8-.6 12-.4 17.9 2.7-1.8 8.2.2 5.3 3 2.3-.4 5 .4 6.9 1.9 0-.7 4.2-4.6 5-5.3-.4-.8-.8-1.5-.8-2.3-.4.4-1.1.6-1.7.3-1.4 2.1-3.4 3.5-5.9 4.3zm249.6-275.9c1-4.2 13.1-14.7 24.6-24.5-10.5 8.6-23.7 19.9-24.6 24.5zm-53.8 10.1c-2.9 2.4-5.8 4.8-8.4 7.1.7.9 5.1.6 8.4-7.1zm-17.4-65.9c.2 0 .2-.2.1-.1l.2-.2c-4.4.8-10.7 9.1-15.8 14.3l-.3.6c4.5-.6 12.6-10.3 15.8-14.6zM15.4 776.1c2.3-2.7 3.4-4.1 3.5-7.3-.7 1.9-1.7 3.6-2.9 5.1-.8.7-1 1.4-.6 2.2zm454.2 21.1c-2.1 2.4-13.9 7.5-11.4 12.6 2.1 4.2 5.5-4.7 4.8-5 2-.6 3.6-1.4 4.7-2.4.3-.3.6-.7.9-1 .8-1.3 1.1-2.6 1-4.2zm693.9-59.3c-.3 0-.7-.1-1-.2-3.8 5-2 3.5 1 .2zM76.1 808c-2.4 2-4.5 3.6-6 4.4 3-1.1 5-2.5 6-4.4zm1154.4-132.6c-3 .7-9.6 7.6-16.5 15.5 7.4-7.5 14.6-14.6 16.5-15.5zm-158.3 105.8c5-4.6 9.5-9.1 14.5-14.5-1.1.8-1.9.8-2.3 1.5-1.5.7-2.8 1.4-4 2.2-2.2 2.4-4.6 5.2-7.2 8.1-.4.9-.8 1.7-1 2.7zM1459.3 451c-2.3 2.4-4.7 4.8-7.2 7.1 2.8-1.9 5.2-4.3 7.2-7.1zM542 716.4c3.9-3.6 7.9-7.1 11.8-10.7-7.6 6.7-13.2 11.7-15.9 14.3 1.4-1.2 2.7-2.4 4.1-3.6zM478.7 789c.8-1.1 1.9-2.4 3.2-3.9-1.5 1.4-2.9 3-3.2 3.9zm193.5-189.4c-5.4 5.1-11.2 10.5-17.2 16 5.4-2 11.4-8.8 17.2-16zm-278.4-24.3c1.3-.6 2.1-1.6 2.3-2.9-2.1 1.4-3.2 2.8-4.3 4.5.2-.2.4-.3.7-.5.3-.3.7-.8 1.3-1.1zM334 749.2c0 3.9 6.8-6.8 7.1-7.7-4.7 1.6-7.1 4.2-7.1 7.7zm13.6-14.9c-1.9 1.9-3.7 3.9-5.5 6 2.2-1 7.2-2.2 5.5-6zm-35.3-68.5c-1 1-1.8 1.3-2.5 1.6-.5.6-.9 1.2-1.4 1.8 1.3 1 2.6-.1 3.9-3.4zm90.7-81.5c2.6.9 2.2-.7.9-1.9-1.5 1.4-3 2.7-4.5 4.1 1.4.4 2.6-.3 3.6-2.2zm-95.6 119.9c1.7-.3 3.8-3.3 5.1-5.4-1.8 1.8-3.6 3.6-5.1 5.4zm511.1-294.8c-2.7 0-13.9 9.9-22.9 18.9-.4-3.1-4.3.8-4.9.9.6 1.2 1.2 1.9 1.9 2.2-4.6 4.8-8.1 8.9-8.7 10.4-2.1 4.3-14.9 10.4-14.9 16 .6.6 28.6-24.4 42.2-38.8 1.4-1.6 2.8-3.2 4.4-4.9 2-2.3 3.1-4 2.9-4.7zM563.7 665.2c5.4-10.2 27.3-29 35.4-37.1-12.4 0-37 37.7-45.2 46.3 3.4-2.9 6.7-6 9.8-9.2zM395 468.8c-1.6 1.8-3.4 3.8-5.3 6 2.2-.7 6.6-1.7 5.3-6zm-45 51.9c2.1-.7 3.1-1.8 3-3.4-.1 0-.1.1-.3.2-.9 1-1.7 2-2.5 2.8-.1.1-.2.3-.2.4zm1018.5 36.1l3.4-3.4c-1.5 1.2-3 1.9-3.4 3.4zM349.8 601.4c.5-.1.9-.2 1.3-.4-.4.5-.9.7-1.5.8v-.2c-.6 1.8-1.3 3.3-2.1 4.4 4.1-4.6 8.2-8.9 10.8-12.3-3.1 2.2-6 4.8-8.5 7.7zm754 220.6c.8-.8 1.7-1.7 2.7-3.5-1.2 1.4-2.3 2.5-3.3 3.5h.6zM184 326c-2.3 1.2-5.7 1.2-3.8 3.8 2.1-.6 3.4-1.9 3.8-3.8zm6.1 58.7c-5 2.9-25.5 18.1-25.5 25.5 7.5-9.1 16.9-17.4 25.5-25.5zm-19.5 24.7c-4.1 4.1-13.3 8.9-13.3 13.7-.2.2 14.9-12 13.3-13.7zm25.6-41.9c-2.7 0-6.1 3.6-6.1 6.1 2.2-1.9 4.1-4.1 6.1-6.1zm13.3-65.5c-2.3 1.5-5 3-6.9 5.7v.8c3.2-.8 5.4-3 6.9-6.5zM95.2 415.5c-3 3-6.1 6.1-9.1 9.5.1.3 0 .6-.4.8v-.4c-1.5 1.5-3 3-3.8 5.3 2.9 1.5 9.7-8.5 11-10.3-2.5 2.5-2.7.8-.4-1.5 1.2-1.1 2-2.2 2.7-3.4zm-14.1 15.3c-4 2-8.7 8.7-11 12.2 3.3-3.3 7-6.6 10.3-9.9.3-.8.7-1.6.7-2.3zm80.4-6.5c.4-.2 7.1-5 4.2-5-3 1-4.4 2.7-4.2 5zM96.7 411c1.6-1.7 1.9-2.5 1.2-2.7 1.5.3 2.7-.3 3.4-1.9 4-4 12.3-12 14.5-17.1-2.1 2.1-15.2 13.6-17.9 19h-.4v-.8c-7.2 7.2-16 14.2-20.6 23.2 8.3-6.3 13-12.9 19.8-19.7zm32.4-29.4c5.3-2.1 7.9-5.3 7.6-9.5-3.9 0-12.3 12.7-14.9 15.2 2.8-1.5 5.2-3.5 7.3-5.7zm-2.3-4.2c-2.7 3.1-5.5 6.1-8.4 9.1 1.6-1.1 7.4-7.4 8.4-9.1zm83.4 41.6c-1.1.4-1.9 1.5-2.7 3 .8-1.1 2.7-1.5 2.7-3zm39.7-54.1c.1 1.1-.4 2-1.5 2.7-41.9 50.1-26.1-2.7 1.5-2.7zm-17.2 15.2c.5 0 .9-.3 1.1-.8-.5 0-.8.2-1.1.8zm-4.9 2.7c.4.1.5 0 .4-.4-.1 0-.1.4-.4.4zm4.5 8.7c5.1-1.3 12.9-7.2 12.9-12.6-2.3.9-4.2 2.3-5.7 4.2-3 2.3-5.3 5-7.2 8.4zm-4.9 10.3c-3 1.4-5.5 3.3-7.6 5.7-3.4-.2 2.8-4.6-.8-4.6-11 3.2-2 10.7 7.2 1.5 2 .1 1.8-1.9 1.2-2.6zm1240.1 57.9c3.8 0 20.1-19.3 21.3-20.6-5 .1-21.3 20.3-21.3 20.6zM196.2 431.5c.4.4.4.4.4.8 2.9-3 5.7-3.8 8-7.6-3.9-.3-7.2 2.3-8.4 6.8zm1305.2.8c1.9.2 3.3-1 4.2-3.4-3 .2-4.4 1.4-4.2 3.4zM216.7 363c-.8.8-1.1 1.9-2.7 3.8 2.2-1.8 12-15 15.6-11.4 2.4 4.8-15.9 19.3-19.4 22.9-7.5 5-18.8 25.5-27.4 25.5 11.5-13.4 21.5-28.4 33.9-40.8zm-10.3 17.1c-1.4.5-2.4 1.4-3 2.7 1.4-.3 2.4-1.2 3-2.7zm1247.4 99c1.5-1.5 3-2.7 4.6-4.2l17.9-17.9c-7.6 7.3-15.3 14.5-22.5 22.1zm-1226-71.2c1.5-.3 2.7-1.4 2.7-3-1.2 0-3.5 3-2.7 3zm935.8 336.7c1.7-.8 2.5-1.9 2.3-3.4-1.7.2-2.4 1.4-2.3 3.4zm-10.7 4.2c1.5-1.1 3-1.9 3.4-4.2-1.5 1.5-3 1.9-3.4 4.2zm155.8-153.1c-3.9 0-18.6 18.1-20.9 24 6.9-5 11.8-10.7 16.8-16-16.6 16.5 8.3-8 4.1-8zm35.4-22.1c-1 1-2.3 2.2-3.9 3.6 3.6-4.3 7.1-8.7 10.4-13.1-50.5 45.4-97.3 94.9-145.9 142.4-4.6 4.2-9.1 8.4-12.9 13.3 35.6-31.2 76.1-65.9 111.8-102.3 18.2-16.6 58-58.9 57.3-59.6-6.7 4.4-9.8 8.7-16.8 15.7zm-68.5 56c-3.2-3.2-9.1 9.4-9.1 9.5 1.4-1.1 9.1-6.6 9.1-9.5zM68.2 439.9c-5.2 4.4-15.4 12.9-18.7 19.4 2.1-1.5 18.7-14.6 18.7-19.4zm-18.3 24.8c.4-.3 5-4.4 5-5.4-.5-.2-.9-.1-1.1.4-1.2 1.5-2.4 3.1-3.9 5l-.4.4c.4 0 .4-.4.4-.4zm9.5-10.7c1.8 0 6.3-4.6 8-8-3 3.1-5.3 5.3-8 8zm-12.6 9.5v-.4c-.4.4-.8.4-1.1.8.4-.4.8-.8.8-1.1-1.9 0-12.3 14.1-12.6 14.5 5.2-2.6 9-9.8 12.9-13.8zm-4.9 9.2c-1.7 1.1-3.1 2.5-4.2 4.2 1.5-1.6 2.7-2.7 4.2-4.2zm1323.5 81.5c.9-.9-14.2 18.2 11.8-10.7-3.7 3.7-8.6 6.4-11.8 10.7zm100.8-110.8c-1.7 2-3.6 4-5.4 6 2.1-1.9 3.9-3.8 5.4-6zM1086.4 822l1.8-2.7c-1.1 1-2.2 1.9-3.1 2.7h1.3zM25.6 486.6c-1.6 1.3-3 2.7-4.6 4.4v.4c1.6-.4 3.6-2.7 4.6-4.8zM1218 236.9c.6-.6 10.5-11.2 8-13.7-1.8 0-21.5 25.1-28.2 32.6 3.9-3.6 8-6.9 12.2-10.1-3.4 5-7.6 8.4-12.2 13.7 7.6-6.6 14.4-12.7 20.7-19.9-1.1.7-2.3 1-3.6.8-.1-1.7.9-2.8 3.1-3.4zm3.5-.8c-.9 1.1-1.9 2.3-2.9 3.3 1.1-.6 2.1-1.7 2.9-3.3zm-33.5-22c-4 3.5-8.9 5.5-5.3 7.2 1.4-1.9 3.4-3.8 5.3-7.2zm52.9-9.2c2.8-5.6-2.8-.9-1.1.8 0-.4.3-.8 1.1-.8zM6.2 723.7c-2.6 2.9-3.3 8.2-1.3 11 .3.5.7.9 1.2 1.2.4-4.1.5-8.3.1-12.2zm11.7-184c.1 0 .2-.2.1-.4-6 4.5-2.6 3-.9 1.5.2-.3.5-.7.8-1.1 0 .1 0 0 0 0zm1279.4-283.8c2 .8 4.2-1 4.2-3.4-2.1-.3-3.5.9-4.2 3.4zM236.7 443.6c-2.9 3.2-5.2 5.8-5.9 6.6 4-.8 20.2-17.5 20.9-16.8-.5 0-5.7 8-6.5 8.8 5.8-2.9 13.1-12.3 17.5-16.4 3-3 12.9-8.7 13.7-12.9-5.6 1.1-16 12.6-20.2 16.8-1.1-.6-2.7-.3-4.4.6-2.9 3.7-8.5 8.4-15.1 13.3zm909.4-68.4c4.4-4.4 6.9-2.6 6.9-6.9-2.4 1.9-5 3.8-6.9 6.9zm32-28.2c-3 2.7-6.1 5-8.4 8 3.4-1.9 4.5-3.1 8.4-8zm-29.8-154.7c2.2-.5 3.6-2 4.4-4.4-1.3.9-2.7 1.8-4.2 2.8-.1.5-.2 1.1-.2 1.6zm28.6-20.5c-1.8.2-3.4 1.1-4.6 2.7 4.3 2.1 3.2 0 4.6-2.7zm-5.3 1.9c-18.6 8-37.4 21.8-51.8 36.2.4 0 1.1.4.4 0 2.3-1.8 17.5-11.9 28.4-19.1.4-1.9 1.7-3.3 4.4-3.3 0 .2-.1.4-.2.5 4.2-2.8 7.1-4.7 7-4.7.4-.4.8-.4 1.1-.8 2.5 1 3.6.5 3-1.5-1.4-1 7.2-6.5 7.7-7.3zm-61.7 44.2c4.2-.5 7.4-3 9.5-7.6-4.1.7-7.3 3.3-9.5 7.6zm70.4-48c1.9 1.9 4.4-2.4 6.5-.4-1.6 3.1-5.8 5.8-7.2 8.8 5.1-3.4 24.6-22.1 25.1-22.1-6.6 2.8-18.8 9-24.4 13.7zm-32 52.2c1.5 1.7 4.9 1.5 3.8-4.2-1.5 1.1-3 2.2-3.8 4.2zm-43 5.3c.8.1 1.4-.3 1.9-1.1l2.7-2.7s0-.4.4-.8c-1.6 0-5 3.2-5 4.6zm399.2 134.1c-.4-.2-1.5.8-3.4 4.6-.4.7-.5 1.5-.4 2.3 2.8 0 4.5-5.4 3.9-6.6.2-.3.2-.3-.1-.3zM656.8 585.6c-2.9 2.7-6.1 5.5-9.3 8.5 13.7-15.1 26.4-28.5 32.2-30 9.8-10.6 19.4-21.6 21.5-24-.8.4-1.5.2-1.9-.4 13.6-20.4 101.1-103.2 100.2-103.2 0-.3 0-.5.1-.8h.7c-.2 0-.4-.1-.7-.2.6-2.9 5-8.9 11.7-16.4 1.7-1.8 3.2-3.5 4.4-4.9 15.2-16.5 38.4-38.6 57.1-54.8-1.6.6-3.3 1-5.1 1 10-15 26-25.6 38.5-38.1-.1 0-1 3.4-1.1 3.8.4-.9 25-23.2 29.1-27.3-4.4.6 18.1-26.7 26.5-30.9-.8 1.5-14.9 13.3-14.9 16.4 1.3 0 3-.8 4.8-2.1-1 1-1.9 2-2.7 3 .8-.7 1.7-1 2.8-.9.1 2.6-1.4 4.6-4.6 6.1.6.6 4.9-3.7 9-7.7-.2.1-.4.2-.7.1.1-.5.4-.8.8-1.1 0-.4 0 0 .4.4-.1.1-.1.3-.2.4 3.4-3.3 6.6-6.5 7.4-6.5-10.2 12.5-21.3 24.7-32.8 36.2-1-1.9-1.6-.8-1.9.8-.2.2-16 12.6-16 17.9 2.6-1.1 12.2-1.2 12.2-4.2 0 3-3.8 4.9-5.3 7.2.3-.3 37.4-34.6 36.9-35-4 2.5-30.1 22.2-30.1 25.5 0-8.3 42.6-42.1 45.3-43.8-.1.2-12.2 11.4-12.2 14.7 4.8-1.9 9.8-5.5 14.9-9.9-2.9 13.6-85.5 83.7-90.3 88.4-21.3 20.7-41.8 45.2-65.3 63.2-6.8 5.2-18 6.6-21.5 12.4 7.1 2.4-1.5 4.3-6.9 11-14.6 18.4-35.8 34.7-52.8 50.8-2.1 1.9-34 31.7-57.3 53.1 1-.2 1.8-.1 2.3.4-.8 0-4.3 2.7-9.7 7.3 2.1-2.2 4.3-4.4 6.4-6.8-12.9 11.9-22.8 21-23 20.8.4-.2.7-.3 1.1-.4zm285.5-298.4s0-.1.1-.2c-.5.2-.4.2-.1.2zM817.7 433.8c-1.1-1.4-2.4-.6-3.8 2.3 1.5 0 2.7-.8 3.8-1.9.4.4.4 0 0-.4zm62.5-62.1c-2.9.7-13.3 11-13.3 13.3 4.3.1 11.6-10.9 13.3-13.3zm21.3-28.5c-3.6 0-8.1 7.6-8.8 9.9 4.4-.5 8.8-5.7 8.8-9.9zm-.7-10.3c.5.1.9-.2 1.1-.8-.5.2-.8.4-1.1.8zm-17.2 16.7c.7-.3 1.9-1.2 3.4-2.3l-.1.1c.2-.2.4-.3.6-.5-.2.1-.4.3-.5.4 2.9-3.2 5.8-6.3 8.9-8.2-1.8 2.2-4.4 4.6-6.9 6.6 6.8-5.4 11.8-8.6 13.5-8.6-2.4 0-4.6.8-6.6 2.1 1.1-1.3 1.9-2.6 2.1-3.6-6.9 5.7-9.4 9-14.4 14zm-32.3 44.6c10.5-5.4 21.3-17.3 28.9-25.9-9.5 8.2-18.7 18.8-28.9 25.9zm-17.6 3.1c.8 0 1.7-.1 2.3-.8-1.3 1.7 10-8.6 13.2-13.1-3.3 3.8-15.5 9.1-15.5 13.9zm-4.5 13.3c-3.8-.1-6.1 2.8-6.9 8.8-2.9 2.9 9.4-6.3 6.9-8.8zm-18.3 22.8l.4.4c3.3-1.6 8.4-5.3 14.1-9.9-.2.3-.3.5-.4.8.4-.4.8-.4 1.1-.8.2-.2.3-.6.3-.9 13.9-11.4 30.6-27.7 32-33.4-3.4 2.3-6.1 5.3-9.1 7.2 0 0 0-.4-.4-.4.3-.6.8-.9 1.2-1.4-11 9.3-20.4 20-30.6 30.1.3-.6.6-1.2.8-2-1.2 0-4.6 3-4.6 4.2.7.1 1.3-.1 1.9-.3-2.1 2.2-4.4 4.4-6.7 6.4zm-3.4 6.1l1.9-1.9c-1.2.4-1.6 1.2-1.9 1.9zm-42.3 39.6l.4-.4h-.4v.4zm-26.3 25.6c3.7-3.3 19.7-15.3 21.7-21.3-7.6 6.4-17.1 15.9-21.7 21.3zm222.8-233.1c-3.2 3.2-7.6 6.7-11.2 10.5 4.1-3 8.8-8.1 11.2-10.5zm457.4 214.8h.8c9.6-4.8 24-19.8 32.2-28.3-5.6 3.9-33 23.9-33 28.3zM990.6 268.2c-5.7 5.2-11.2 10.3-16.7 15.5.1.4.1.8 0 1.3 5.6-4.8 11.3-10.7 16.7-16.8zm23.3-24.8c-6.9 6.2-14.9 15.6-23.3 24.9 1-.9 2-1.8 3.1-2.8 2.2-2.1 23-17.9 20.2-22.1zM672.4 571.7c-4.2 3.6-9.5 8.3-15.6 13.8 2.9-1.1 8.9-6.8 15.6-13.8zm778-121.9v.8c2.1 0 4.5-3.3 5.3-5-2.3 0-3.4 3.3-5.3 4.2zm-4.6 4.6c-1.5 1.5-2.7 3.4-4.2 5 2.9.2 5.1-1.6 6.5-5.3v-.8c-.9-.2-1.7.2-2.3 1.1zM647.5 594.1c-14.7 13.6-32.2 30.1-48.6 46.2 0 .3-.1.5-.1.8 7.2-.1 29.1-25.4 48.7-47zm-342.4 39.2c.1.1.2.1.4.1 2.4-1.9 4.6-4.1 6.7-6.4.9-2.3.6-3.6-1.9-.3h.3c-1.8 2.2-3.6 4.4-5.5 6.6zM1175 438.4c2.3-.9 3.6-2.4 3.8-4.6-1.1 1.5-3 2.3-3.8 4.6zm-6.9 7.2c-.8 1.1-1.5 1.9-2.7 3.4 2-.7 2.7-1.9 2.7-3.4zm-828.7 84.6c-.1 0-.3-.1-.4-.2-3.3 4.3-5.6 6-1.9 9.7 2 2 10.9-11.7 9-14.9-1.5 3-3.7 4.8-6.7 5.4zm903-158.8c-.8.8-1.1 1.5-2.7 3 1.9-1.9 3.8-2.7 4.6-5-.7.4-1.5 1.2-1.9 2zm6.5-5.8c6-4.5 9.4-9.6 12.6-16-1.4 2.7-14.8 7.5-12.6 16zm-14.1 13.8c1.1-.8 1.9-1.9 3-2.7-1.1.7-2.2 1.5-3 2.7zm162.6-96c2 .3 3-.9 3-3.8-2.2.6-3.2 1.9-3 3.8zM482.2 744c-2-.7-5.2 2.2-6.1 4 .8.4 1.6.6 2.3.5.9-.7 1.9-1.4 2.7-2.1.4-.6.8-1.4 1.1-2.4zm680.2-292.7c-.8 1.1-1.5 1.9-2.7 3.8 8.9-8.8 2.7-2.4 2.7-3.8zM553 689.4c-2.6 1.3-5.4 4.1-8.4 7.3-1.5 2-2.3 3.4-2.3 4.1 2.8-2.7 9-7.9 10.7-11.4zm41.2-44.2c1.8-.5 3.6-2.1 4.3-3.8-.4 0-.9.2-1.3.5-.7.7-1.5 1.4-2.2 2.2-.4.4-.7.9-.8 1.1zm561-186.2c-3 .3-5.3 1.9-6.9 5 2.4 1 4.8-2 6.9-5zm-932.8 71.3c11.3-11.4 22.2-24.1 25.4-27.2 2.1-2 4.7-4.7 7.5-7.9-13 11.8-25.7 24.8-32.9 35.1zM1410.8 246c-5.3 4.6-10.3 8.4-14.9 14.5 1.2-.9 2.4-1.5 3.8-1.9 0 .9-2.6 6.1-1.9 6.1 11.6-8.1 7-12.7 13-18.7zM478.1 78.8c-.1.6-.1.7 0 0-.1 0 0 0 0 0zm-28.3 49.9c0 .2-.2.3-.4.4.2-.1.3-.2.4-.4zm1.2 134.5c0-.2 0-.4.1-.6-.1.2-.1.4-.1.6zm15.2-13.8s0 .1 0 0c-.5.4-.4.4 0 0zm32.7 23l.1-.1c-.1.3-.1.2-.1.1zm57.6-67.1c-.2.2-.3.2-.3.2 0-.1.1-.2.3-.2zm352.4 104.3l.3-.3c.2-.2.1 0-.3.3zm339.7-136.7v.8c-.1-.4-.1-.4 0-.8zm.3-.4l-.3.3c0-.1.1-.3.3-.3zm281.5 175.1v.1c-.1.1-.1 0 0-.1zm-458.6-161.7s0-.1 0 0c.3-.4.6-.6.9-.9-.4.3-.9.9-.9.9zm81.4 56.6c.2-.2.4-.4.7-.6-.2.3-.4.5-.7.6zM176.7 451.3c.1-.1.2-.2.4-.3 0 .2-.1.3-.4.3zm1045.9-84.1v.1c-.1.1-.3.1-.4.3l.4-.4zm-1.6-110.8c-.1.2-.2.3-.3.3l.3-.3zM607.1 681.8s0 .3-.3.4c.1-.2.2-.3.3-.4zm-.5.7c-.1.1-.2.1-.2.1 0-.1.1-.1.2-.1zm-18.9.2v.2c0 .4-.1.2 0-.2zM1264.3 561c-.1.1-.2.1-.2.1.1-.1.2-.1.2-.1zm-211.4-7.6c-.1.1-.2.1-.2.1.1-.1.2-.1.2-.1zm214.9-268.3c0-.1.1-.1.1-.2l-.1.2zm163.2-16.2c-.1 0-.1 0 0 0 0-.1.1-.1 0 0zm-284.8 478.8c.1-.1.2-.1.3-.1-.1.1-.2.1-.3.1zm84.8-72.4c-.1 0-.3 0-.5.1.2-.1.4-.2.5-.1zm-97.9-289.5c.1 0 .2-.1.4-.1-.1.1-.2.1-.4.1zm349.6-55.1l-.5.5c.1-.2.3-.4.5-.5zm-169.1 227.7c0 .2-.1.3-.3.3 0-.1.1-.2.3-.3zM335.9 684.1l.4-.4.4-.4-.8.8zm0 0s-.1.1 0 0c-.1 0 0 0 0 0zm977.5-100.8c0 .1-.1.1-.2.2l.2-.2zM793.2 453.2c-.1.1-.2.1-.2.1.1-.1.1-.1.2-.1zM323 702.3h-.3c.2-.1.3-.2.3 0zm25.6 8.3c.5-.5.9-1 1.4-1.4-.2.2-.7.8-1.4 1.4zm-28.4-44.2l-.2.2c0-.3.1-.3.2-.2zm804.5-471.9l.1-.1c0 .1-.1.1-.1.1zM358.8 569l-.4.4c.1-.2.2-.4.4-.4zm-34.2-47.8c-.3.2-.5.3-.5.2.2 0 .3-.1.5-.2zm-200.8-74.8l-.4-.4-.4-.4.8.8zm119.3 81.7c-.3.3-.7.8-1.2 1.3.5-.6.9-1 1.2-1.3zm-90.3-49.4c.1 0 .3-.2.7-.4l1.6-.8c-.3.2-2 1.1-2.3 1.2zM8.7 645.6h-.3.3zm220.6 161.9l3 3-1.5-1.5c-.8-.9-1.3-1.3-1.5-1.5zm-184-122.7c-.1.2-.3.2-.4.2.1-.1.3-.1.4-.2zm23.5-245.4c0-.1.1-.2.1-.3 0 .2-.1.3-.1.3zm-43.2 47.2c.1-.2.3-.2.5-.4-.2.1-.4.3-.5.4zm391.5-44.4c0 .1 0 .3-.1.4 0-.1 0-.3.1-.4zm-67.3 159.2l-.2.2.2-.2z" fill="#fff"/></svg>