<svg version="1.1" xmlns="http://www.w3.org/2000/svg" viewBox="0 0 3200 1600"><path fill="#6d0527" d="M2461 1312.2l4-749.3h187.4l-3 749.3H2461z"/><path fill="#fc074f" d="M2841.7 1312.2L2465 562.9h187.4l377.8 749.3h-188.5z"/><path fill="#fc074f" d="M2230 1312.2l4-749.3h187.4l-3 749.3H2230z"/><path fill="#6d0527" d="M2233.2 729.4l-83.9-166.5h-187.4l269.3 535.7z"/><path fill="#6d0527" d="M1738 1312.2l4-749.3h187.4l-3 749.3H1738z"/><path fill="#fc074f" d="M1740.9 758.4L1742 563h187.4l-1.9 474.2-186.6-278.8z"/><path fill="#fc074f" d="M1277.9 1312.2l4-749.3h187.4l-3 749.3h-188.4z"/><path fill="#6d0527" d="M1525 562.9l-56.2 122.3-1.6 413.4 245-535.7z"/><path fill="#6d0527" d="M1046.2 1312.2l4-749.3h187.4l-3 749.3h-188.4z"/><path fill="#fc074f" d="M1049.1 758.4l1.1-195.4h187.4l-1.9 474.2-186.6-278.8z"/><path fill="#6d0527" d="M822.6 1312.2l4-749.3H1014l-3 749.3H822.6z"/><path fill="#fc074f" d="M825.6 758.4l1.1-195.4H1014l-1.9 474.2-186.5-278.8z"/><path fill="#fc074f" d="M407.2 319.3l-187.9 788.2 313.2 296.3 288-1207.6-413.3 123.1"/><path fill="#6d0527" d="M169.8 679.2l49.5 428.3 96.4-404.3z"/></svg>